%FSLAX45Y45*%
G04 Gerber Fmt 4.5, Leading zero omitted, Abs format (unit mm)*
G04 Created by KiCad (PCBNEW (6.0.5)) date 2025-05-25 15:45:03*
%MOMM*%
%LPD*%
G01*
G04 APERTURE LIST*
%TA.AperFunction,Profile*%
%ADD10C,0.100000*%
%TD*%
%ADD11C,0.200000*%
G04 APERTURE END LIST*
D10*
X12500000Y-11800000D02*
X17200000Y-11800000D01*
X12100000Y-6700000D02*
X12100000Y-11400000D01*
X17600000Y-6700000D02*
X17600000Y-11400000D01*
X12500000Y-6300000D02*
G75*
G03*
X12100000Y-6700000I0J-400000D01*
G01*
X17600000Y-6700000D02*
G75*
G03*
X17200000Y-6300000I-400000J0D01*
G01*
X12100000Y-11400000D02*
G75*
G03*
X12500000Y-11800000I400000J0D01*
G01*
X17200000Y-11800000D02*
G75*
G03*
X17600000Y-11400000I0J400000D01*
G01*
X12500000Y-6300000D02*
X17200000Y-6300000D01*
D11*
X12352619Y-12115476D02*
X12352619Y-11915476D01*
X12400238Y-11915476D01*
X12428809Y-11925000D01*
X12447857Y-11944048D01*
X12457381Y-11963095D01*
X12466905Y-12001190D01*
X12466905Y-12029762D01*
X12457381Y-12067857D01*
X12447857Y-12086905D01*
X12428809Y-12105952D01*
X12400238Y-12115476D01*
X12352619Y-12115476D01*
X12552619Y-12115476D02*
X12552619Y-11982143D01*
X12552619Y-12020238D02*
X12562143Y-12001190D01*
X12571667Y-11991667D01*
X12590714Y-11982143D01*
X12609762Y-11982143D01*
X12676428Y-12115476D02*
X12676428Y-11982143D01*
X12676428Y-11915476D02*
X12666905Y-11925000D01*
X12676428Y-11934524D01*
X12685952Y-11925000D01*
X12676428Y-11915476D01*
X12676428Y-11934524D01*
X12800238Y-12115476D02*
X12781190Y-12105952D01*
X12771667Y-12086905D01*
X12771667Y-11915476D01*
X12905000Y-12115476D02*
X12885952Y-12105952D01*
X12876428Y-12086905D01*
X12876428Y-11915476D01*
X13133571Y-12115476D02*
X13133571Y-11915476D01*
X13200238Y-12058333D01*
X13266905Y-11915476D01*
X13266905Y-12115476D01*
X13447857Y-12115476D02*
X13447857Y-12010714D01*
X13438333Y-11991667D01*
X13419286Y-11982143D01*
X13381190Y-11982143D01*
X13362143Y-11991667D01*
X13447857Y-12105952D02*
X13428809Y-12115476D01*
X13381190Y-12115476D01*
X13362143Y-12105952D01*
X13352619Y-12086905D01*
X13352619Y-12067857D01*
X13362143Y-12048809D01*
X13381190Y-12039286D01*
X13428809Y-12039286D01*
X13447857Y-12029762D01*
X13543095Y-11982143D02*
X13543095Y-12182143D01*
X13543095Y-11991667D02*
X13562143Y-11982143D01*
X13600238Y-11982143D01*
X13619286Y-11991667D01*
X13628809Y-12001190D01*
X13638333Y-12020238D01*
X13638333Y-12077381D01*
X13628809Y-12096428D01*
X13619286Y-12105952D01*
X13600238Y-12115476D01*
X13562143Y-12115476D01*
X13543095Y-12105952D01*
X13724048Y-12096428D02*
X13733571Y-12105952D01*
X13724048Y-12115476D01*
X13714524Y-12105952D01*
X13724048Y-12096428D01*
X13724048Y-12115476D01*
X13724048Y-11991667D02*
X13733571Y-12001190D01*
X13724048Y-12010714D01*
X13714524Y-12001190D01*
X13724048Y-11991667D01*
X13724048Y-12010714D01*
M02*
