%TF.GenerationSoftware,KiCad,Pcbnew,(6.0.5)*%
%TF.CreationDate,2025-05-25T15:44:49+02:00*%
%TF.ProjectId,HT1015A_Dev,48543130-3135-4415-9f44-65762e6b6963,rev?*%
%TF.SameCoordinates,Original*%
%TF.FileFunction,Copper,L2,Bot*%
%TF.FilePolarity,Positive*%
%FSLAX46Y46*%
G04 Gerber Fmt 4.6, Leading zero omitted, Abs format (unit mm)*
G04 Created by KiCad (PCBNEW (6.0.5)) date 2025-05-25 15:44:49*
%MOMM*%
%LPD*%
G01*
G04 APERTURE LIST*
G04 Aperture macros list*
%AMRoundRect*
0 Rectangle with rounded corners*
0 $1 Rounding radius*
0 $2 $3 $4 $5 $6 $7 $8 $9 X,Y pos of 4 corners*
0 Add a 4 corners polygon primitive as box body*
4,1,4,$2,$3,$4,$5,$6,$7,$8,$9,$2,$3,0*
0 Add four circle primitives for the rounded corners*
1,1,$1+$1,$2,$3*
1,1,$1+$1,$4,$5*
1,1,$1+$1,$6,$7*
1,1,$1+$1,$8,$9*
0 Add four rect primitives between the rounded corners*
20,1,$1+$1,$2,$3,$4,$5,0*
20,1,$1+$1,$4,$5,$6,$7,0*
20,1,$1+$1,$6,$7,$8,$9,0*
20,1,$1+$1,$8,$9,$2,$3,0*%
G04 Aperture macros list end*
%TA.AperFunction,ComponentPad*%
%ADD10C,2.000000*%
%TD*%
%TA.AperFunction,ComponentPad*%
%ADD11C,6.400000*%
%TD*%
%TA.AperFunction,ComponentPad*%
%ADD12R,1.524000X1.524000*%
%TD*%
%TA.AperFunction,ComponentPad*%
%ADD13C,1.524000*%
%TD*%
%TA.AperFunction,ComponentPad*%
%ADD14C,3.500000*%
%TD*%
%TA.AperFunction,SMDPad,CuDef*%
%ADD15R,3.100000X2.410000*%
%TD*%
%TA.AperFunction,ComponentPad*%
%ADD16C,0.500000*%
%TD*%
%TA.AperFunction,ComponentPad*%
%ADD17RoundRect,0.249999X-1.550001X0.790001X-1.550001X-0.790001X1.550001X-0.790001X1.550001X0.790001X0*%
%TD*%
%TA.AperFunction,ComponentPad*%
%ADD18O,3.600000X2.080000*%
%TD*%
%TA.AperFunction,ViaPad*%
%ADD19C,0.760000*%
%TD*%
G04 APERTURE END LIST*
D10*
%TO.P,TP2,1,1*%
%TO.N,GND*%
X125000000Y-74600000D03*
%TD*%
%TO.P,TP1,1,1*%
%TO.N,/VM*%
X137100000Y-74300000D03*
%TD*%
%TO.P,TP5,1,1*%
%TO.N,GND*%
X125000000Y-106400000D03*
%TD*%
D11*
%TO.P,H1,1,1*%
%TO.N,GND*%
X125000000Y-67000000D03*
%TD*%
%TO.P,H3,1,1*%
%TO.N,GND*%
X125000000Y-114000000D03*
%TD*%
D10*
%TO.P,TP4,1,1*%
%TO.N,Net-(C4-Pad1)*%
X141750000Y-88950000D03*
%TD*%
%TO.P,TP3,1,1*%
%TO.N,GND*%
X172000000Y-74600000D03*
%TD*%
D12*
%TO.P,J2,1,VBUS*%
%TO.N,+5V*%
X163030000Y-94000000D03*
D13*
%TO.P,J2,2,D-*%
%TO.N,Net-(J2-Pad2)*%
X163030000Y-91500000D03*
%TO.P,J2,3,D+*%
X163030000Y-89500000D03*
%TO.P,J2,4,GND*%
%TO.N,GND*%
X163030000Y-87000000D03*
D14*
%TO.P,J2,5,Shield*%
X165740000Y-97070000D03*
X165740000Y-83930000D03*
%TD*%
D10*
%TO.P,TP7,1,1*%
%TO.N,+5V*%
X156200000Y-107000000D03*
%TD*%
D11*
%TO.P,H4,1,1*%
%TO.N,GND*%
X172000000Y-114000000D03*
%TD*%
%TO.P,H2,1,1*%
%TO.N,GND*%
X172000000Y-67000000D03*
%TD*%
D15*
%TO.P,U1,9,EP*%
%TO.N,GND*%
X148475000Y-87000000D03*
D16*
X148475000Y-86045000D03*
X147175000Y-86045000D03*
X148475000Y-87955000D03*
X147175000Y-87955000D03*
X149775000Y-87955000D03*
X149775000Y-86045000D03*
%TD*%
D17*
%TO.P,J1,1,Pin_1*%
%TO.N,Net-(J1-Pad1)*%
X130780000Y-87960000D03*
D18*
%TO.P,J1,2,Pin_2*%
%TO.N,GND*%
X130780000Y-93040000D03*
%TD*%
D10*
%TO.P,TP6,1,1*%
%TO.N,GND*%
X172000000Y-106400000D03*
%TD*%
D19*
%TO.N,GND*%
X137050000Y-87740000D03*
X151900000Y-71800000D03*
X144639000Y-81675000D03*
X155200000Y-102350000D03*
X155200000Y-104850000D03*
X141900000Y-104850000D03*
X154100000Y-104850000D03*
X148500000Y-110050000D03*
X144780000Y-86614000D03*
X154100000Y-102350000D03*
X145250000Y-84200000D03*
X151892000Y-88138000D03*
X154178000Y-88138000D03*
X142950000Y-104850000D03*
X152146000Y-89916000D03*
X141900000Y-102350000D03*
X142950000Y-102350000D03*
%TD*%
%TA.AperFunction,Conductor*%
%TO.N,GND*%
G36*
X150950000Y-89000000D02*
G01*
X145950000Y-89000000D01*
X145950000Y-85000000D01*
X150950000Y-85000000D01*
X150950000Y-89000000D01*
G37*
%TD.AperFunction*%
%TD*%
%TA.AperFunction,Conductor*%
%TO.N,GND*%
G36*
X170678905Y-63320502D02*
G01*
X170725398Y-63374158D01*
X170735502Y-63444432D01*
X170706008Y-63509012D01*
X170655938Y-63544131D01*
X170492836Y-63606740D01*
X170486811Y-63609422D01*
X170146397Y-63782872D01*
X170140687Y-63786169D01*
X169820268Y-63994251D01*
X169814938Y-63998123D01*
X169612111Y-64162369D01*
X169603645Y-64174624D01*
X169609979Y-64185715D01*
X174813419Y-69389155D01*
X174826495Y-69396295D01*
X174836863Y-69388837D01*
X175001877Y-69185062D01*
X175005749Y-69179732D01*
X175213831Y-68859313D01*
X175217128Y-68853603D01*
X175390578Y-68513189D01*
X175393260Y-68507164D01*
X175455869Y-68344062D01*
X175498955Y-68287634D01*
X175565708Y-68263457D01*
X175634935Y-68279208D01*
X175684657Y-68329886D01*
X175699500Y-68389216D01*
X175699500Y-112610784D01*
X175679498Y-112678905D01*
X175625842Y-112725398D01*
X175555568Y-112735502D01*
X175490988Y-112706008D01*
X175455869Y-112655938D01*
X175393260Y-112492836D01*
X175390578Y-112486811D01*
X175217128Y-112146397D01*
X175213831Y-112140687D01*
X175005749Y-111820268D01*
X175001877Y-111814938D01*
X174837631Y-111612111D01*
X174825376Y-111603645D01*
X174814285Y-111609979D01*
X169610845Y-116813419D01*
X169603705Y-116826495D01*
X169611163Y-116836863D01*
X169814943Y-117001880D01*
X169820265Y-117005747D01*
X170140685Y-117213830D01*
X170146394Y-117217127D01*
X170486811Y-117390578D01*
X170492836Y-117393260D01*
X170655938Y-117455869D01*
X170712366Y-117498955D01*
X170736543Y-117565708D01*
X170720792Y-117634935D01*
X170670114Y-117684657D01*
X170610784Y-117699500D01*
X126389216Y-117699500D01*
X126321095Y-117679498D01*
X126274602Y-117625842D01*
X126264498Y-117555568D01*
X126293992Y-117490988D01*
X126344062Y-117455869D01*
X126507164Y-117393260D01*
X126513189Y-117390578D01*
X126853606Y-117217127D01*
X126859315Y-117213830D01*
X127179735Y-117005747D01*
X127185057Y-117001880D01*
X127387889Y-116837631D01*
X127396355Y-116825376D01*
X127390021Y-116814285D01*
X124576868Y-114001132D01*
X125429462Y-114001132D01*
X125429593Y-114002965D01*
X125433844Y-114009580D01*
X127813419Y-116389155D01*
X127826495Y-116396295D01*
X127836863Y-116388837D01*
X128001877Y-116185062D01*
X128005749Y-116179732D01*
X128213831Y-115859313D01*
X128217128Y-115853603D01*
X128390578Y-115513189D01*
X128393260Y-115507164D01*
X128530171Y-115150498D01*
X128532212Y-115144216D01*
X128631094Y-114775184D01*
X128632465Y-114768734D01*
X128692234Y-114391371D01*
X128692920Y-114384833D01*
X128712916Y-114003301D01*
X168287084Y-114003301D01*
X168307080Y-114384833D01*
X168307766Y-114391371D01*
X168367535Y-114768734D01*
X168368906Y-114775184D01*
X168467788Y-115144216D01*
X168469829Y-115150498D01*
X168606740Y-115507164D01*
X168609422Y-115513189D01*
X168782872Y-115853603D01*
X168786169Y-115859313D01*
X168994251Y-116179732D01*
X168998123Y-116185062D01*
X169162369Y-116387889D01*
X169174624Y-116396355D01*
X169185715Y-116390021D01*
X171562924Y-114012812D01*
X171570538Y-113998868D01*
X171570407Y-113997035D01*
X171566156Y-113990420D01*
X169186581Y-111610845D01*
X169173505Y-111603705D01*
X169163137Y-111611163D01*
X168998123Y-111814938D01*
X168994251Y-111820268D01*
X168786169Y-112140687D01*
X168782872Y-112146397D01*
X168609422Y-112486811D01*
X168606740Y-112492836D01*
X168469829Y-112849502D01*
X168467788Y-112855784D01*
X168368906Y-113224816D01*
X168367535Y-113231266D01*
X168307766Y-113608629D01*
X168307080Y-113615167D01*
X168287084Y-113996699D01*
X168287084Y-114003301D01*
X128712916Y-114003301D01*
X128712916Y-113996699D01*
X128692920Y-113615167D01*
X128692234Y-113608629D01*
X128632465Y-113231266D01*
X128631094Y-113224816D01*
X128532212Y-112855784D01*
X128530171Y-112849502D01*
X128393260Y-112492836D01*
X128390578Y-112486811D01*
X128217128Y-112146397D01*
X128213831Y-112140687D01*
X128005749Y-111820268D01*
X128001877Y-111814938D01*
X127837631Y-111612111D01*
X127825376Y-111603645D01*
X127814285Y-111609979D01*
X125437076Y-113987188D01*
X125429462Y-114001132D01*
X124576868Y-114001132D01*
X122186581Y-111610845D01*
X122173505Y-111603705D01*
X122163137Y-111611163D01*
X121998123Y-111814938D01*
X121994251Y-111820268D01*
X121786169Y-112140687D01*
X121782872Y-112146397D01*
X121609422Y-112486811D01*
X121606740Y-112492836D01*
X121544131Y-112655938D01*
X121501045Y-112712366D01*
X121434292Y-112736543D01*
X121365065Y-112720792D01*
X121315343Y-112670114D01*
X121300500Y-112610784D01*
X121300500Y-111174624D01*
X122603645Y-111174624D01*
X122609979Y-111185715D01*
X124987188Y-113562924D01*
X125001132Y-113570538D01*
X125002965Y-113570407D01*
X125009580Y-113566156D01*
X127389155Y-111186581D01*
X127395684Y-111174624D01*
X169603645Y-111174624D01*
X169609979Y-111185715D01*
X171987188Y-113562924D01*
X172001132Y-113570538D01*
X172002965Y-113570407D01*
X172009580Y-113566156D01*
X174389155Y-111186581D01*
X174396295Y-111173505D01*
X174388837Y-111163137D01*
X174185057Y-110998120D01*
X174179735Y-110994253D01*
X173859315Y-110786170D01*
X173853606Y-110782873D01*
X173513189Y-110609422D01*
X173507164Y-110606740D01*
X173150498Y-110469829D01*
X173144216Y-110467788D01*
X172775184Y-110368906D01*
X172768734Y-110367535D01*
X172391371Y-110307766D01*
X172384833Y-110307080D01*
X172003301Y-110287084D01*
X171996699Y-110287084D01*
X171615167Y-110307080D01*
X171608629Y-110307766D01*
X171231266Y-110367535D01*
X171224816Y-110368906D01*
X170855784Y-110467788D01*
X170849502Y-110469829D01*
X170492836Y-110606740D01*
X170486811Y-110609422D01*
X170146397Y-110782872D01*
X170140687Y-110786169D01*
X169820268Y-110994251D01*
X169814938Y-110998123D01*
X169612111Y-111162369D01*
X169603645Y-111174624D01*
X127395684Y-111174624D01*
X127396295Y-111173505D01*
X127388837Y-111163137D01*
X127185057Y-110998120D01*
X127179735Y-110994253D01*
X126859315Y-110786170D01*
X126853606Y-110782873D01*
X126513189Y-110609422D01*
X126507164Y-110606740D01*
X126150498Y-110469829D01*
X126144216Y-110467788D01*
X125775184Y-110368906D01*
X125768734Y-110367535D01*
X125391371Y-110307766D01*
X125384833Y-110307080D01*
X125003301Y-110287084D01*
X124996699Y-110287084D01*
X124615167Y-110307080D01*
X124608629Y-110307766D01*
X124231266Y-110367535D01*
X124224816Y-110368906D01*
X123855784Y-110467788D01*
X123849502Y-110469829D01*
X123492836Y-110606740D01*
X123486811Y-110609422D01*
X123146397Y-110782872D01*
X123140687Y-110786169D01*
X122820268Y-110994251D01*
X122814938Y-110998123D01*
X122612111Y-111162369D01*
X122603645Y-111174624D01*
X121300500Y-111174624D01*
X121300500Y-107657388D01*
X124172496Y-107657388D01*
X124178223Y-107665038D01*
X124309042Y-107745205D01*
X124317837Y-107749687D01*
X124527988Y-107836734D01*
X124537373Y-107839783D01*
X124758554Y-107892885D01*
X124768301Y-107894428D01*
X124995070Y-107912275D01*
X125004930Y-107912275D01*
X125231699Y-107894428D01*
X125241446Y-107892885D01*
X125462627Y-107839783D01*
X125472012Y-107836734D01*
X125682163Y-107749687D01*
X125690958Y-107745205D01*
X125818110Y-107667285D01*
X125827570Y-107656829D01*
X125823786Y-107648050D01*
X125012812Y-106837076D01*
X124998868Y-106829462D01*
X124997035Y-106829593D01*
X124990420Y-106833844D01*
X124179256Y-107645008D01*
X124172496Y-107657388D01*
X121300500Y-107657388D01*
X121300500Y-106404930D01*
X123487725Y-106404930D01*
X123505572Y-106631699D01*
X123507115Y-106641446D01*
X123560217Y-106862627D01*
X123563266Y-106872012D01*
X123650313Y-107082163D01*
X123654795Y-107090958D01*
X123732715Y-107218110D01*
X123743171Y-107227570D01*
X123751950Y-107223786D01*
X124562924Y-106412812D01*
X124569302Y-106401132D01*
X125429462Y-106401132D01*
X125429593Y-106402965D01*
X125433844Y-106409580D01*
X126245008Y-107220744D01*
X126257388Y-107227504D01*
X126265038Y-107221777D01*
X126345205Y-107090958D01*
X126349687Y-107082163D01*
X126383720Y-107000000D01*
X154894532Y-107000000D01*
X154914365Y-107226692D01*
X154973261Y-107446496D01*
X155069432Y-107652734D01*
X155199953Y-107839139D01*
X155360861Y-108000047D01*
X155547266Y-108130568D01*
X155552244Y-108132889D01*
X155552247Y-108132891D01*
X155748522Y-108224416D01*
X155753504Y-108226739D01*
X155758812Y-108228161D01*
X155758814Y-108228162D01*
X155967993Y-108284211D01*
X155967995Y-108284211D01*
X155973308Y-108285635D01*
X156200000Y-108305468D01*
X156426692Y-108285635D01*
X156432005Y-108284211D01*
X156432007Y-108284211D01*
X156641186Y-108228162D01*
X156641188Y-108228161D01*
X156646496Y-108226739D01*
X156651478Y-108224416D01*
X156847753Y-108132891D01*
X156847756Y-108132889D01*
X156852734Y-108130568D01*
X157039139Y-108000047D01*
X157200047Y-107839139D01*
X157327309Y-107657388D01*
X171172496Y-107657388D01*
X171178223Y-107665038D01*
X171309042Y-107745205D01*
X171317837Y-107749687D01*
X171527988Y-107836734D01*
X171537373Y-107839783D01*
X171758554Y-107892885D01*
X171768301Y-107894428D01*
X171995070Y-107912275D01*
X172004930Y-107912275D01*
X172231699Y-107894428D01*
X172241446Y-107892885D01*
X172462627Y-107839783D01*
X172472012Y-107836734D01*
X172682163Y-107749687D01*
X172690958Y-107745205D01*
X172818110Y-107667285D01*
X172827570Y-107656829D01*
X172823786Y-107648050D01*
X172012812Y-106837076D01*
X171998868Y-106829462D01*
X171997035Y-106829593D01*
X171990420Y-106833844D01*
X171179256Y-107645008D01*
X171172496Y-107657388D01*
X157327309Y-107657388D01*
X157330568Y-107652734D01*
X157426739Y-107446496D01*
X157485635Y-107226692D01*
X157505468Y-107000000D01*
X157485635Y-106773308D01*
X157426739Y-106553504D01*
X157359626Y-106409580D01*
X157357458Y-106404930D01*
X170487725Y-106404930D01*
X170505572Y-106631699D01*
X170507115Y-106641446D01*
X170560217Y-106862627D01*
X170563266Y-106872012D01*
X170650313Y-107082163D01*
X170654795Y-107090958D01*
X170732715Y-107218110D01*
X170743171Y-107227570D01*
X170751950Y-107223786D01*
X171562924Y-106412812D01*
X171569302Y-106401132D01*
X172429462Y-106401132D01*
X172429593Y-106402965D01*
X172433844Y-106409580D01*
X173245008Y-107220744D01*
X173257388Y-107227504D01*
X173265038Y-107221777D01*
X173345205Y-107090958D01*
X173349687Y-107082163D01*
X173436734Y-106872012D01*
X173439783Y-106862627D01*
X173492885Y-106641446D01*
X173494428Y-106631699D01*
X173512275Y-106404930D01*
X173512275Y-106395070D01*
X173494428Y-106168301D01*
X173492885Y-106158554D01*
X173439783Y-105937373D01*
X173436734Y-105927988D01*
X173349687Y-105717837D01*
X173345205Y-105709042D01*
X173267285Y-105581890D01*
X173256829Y-105572430D01*
X173248050Y-105576214D01*
X172437076Y-106387188D01*
X172429462Y-106401132D01*
X171569302Y-106401132D01*
X171570538Y-106398868D01*
X171570407Y-106397035D01*
X171566156Y-106390420D01*
X170754992Y-105579256D01*
X170742612Y-105572496D01*
X170734962Y-105578223D01*
X170654795Y-105709042D01*
X170650313Y-105717837D01*
X170563266Y-105927988D01*
X170560217Y-105937373D01*
X170507115Y-106158554D01*
X170505572Y-106168301D01*
X170487725Y-106395070D01*
X170487725Y-106404930D01*
X157357458Y-106404930D01*
X157332891Y-106352247D01*
X157332889Y-106352244D01*
X157330568Y-106347266D01*
X157200047Y-106160861D01*
X157039139Y-105999953D01*
X156852734Y-105869432D01*
X156847756Y-105867111D01*
X156847753Y-105867109D01*
X156651478Y-105775584D01*
X156651476Y-105775583D01*
X156646496Y-105773261D01*
X156641188Y-105771839D01*
X156641186Y-105771838D01*
X156432007Y-105715789D01*
X156432005Y-105715789D01*
X156426692Y-105714365D01*
X156200000Y-105694532D01*
X155973308Y-105714365D01*
X155967995Y-105715789D01*
X155967993Y-105715789D01*
X155758814Y-105771838D01*
X155758812Y-105771839D01*
X155753504Y-105773261D01*
X155748524Y-105775583D01*
X155748522Y-105775584D01*
X155552247Y-105867109D01*
X155552244Y-105867111D01*
X155547266Y-105869432D01*
X155360861Y-105999953D01*
X155199953Y-106160861D01*
X155069432Y-106347266D01*
X155067111Y-106352244D01*
X155067109Y-106352247D01*
X155040374Y-106409580D01*
X154973261Y-106553504D01*
X154914365Y-106773308D01*
X154894532Y-107000000D01*
X126383720Y-107000000D01*
X126436734Y-106872012D01*
X126439783Y-106862627D01*
X126492885Y-106641446D01*
X126494428Y-106631699D01*
X126512275Y-106404930D01*
X126512275Y-106395070D01*
X126494428Y-106168301D01*
X126492885Y-106158554D01*
X126439783Y-105937373D01*
X126436734Y-105927988D01*
X126349687Y-105717837D01*
X126345205Y-105709042D01*
X126267285Y-105581890D01*
X126256829Y-105572430D01*
X126248050Y-105576214D01*
X125437076Y-106387188D01*
X125429462Y-106401132D01*
X124569302Y-106401132D01*
X124570538Y-106398868D01*
X124570407Y-106397035D01*
X124566156Y-106390420D01*
X123754992Y-105579256D01*
X123742612Y-105572496D01*
X123734962Y-105578223D01*
X123654795Y-105709042D01*
X123650313Y-105717837D01*
X123563266Y-105927988D01*
X123560217Y-105937373D01*
X123507115Y-106158554D01*
X123505572Y-106168301D01*
X123487725Y-106395070D01*
X123487725Y-106404930D01*
X121300500Y-106404930D01*
X121300500Y-105143171D01*
X124172430Y-105143171D01*
X124176214Y-105151950D01*
X124987188Y-105962924D01*
X125001132Y-105970538D01*
X125002965Y-105970407D01*
X125009580Y-105966156D01*
X125820744Y-105154992D01*
X125827199Y-105143171D01*
X171172430Y-105143171D01*
X171176214Y-105151950D01*
X171987188Y-105962924D01*
X172001132Y-105970538D01*
X172002965Y-105970407D01*
X172009580Y-105966156D01*
X172820744Y-105154992D01*
X172827504Y-105142612D01*
X172821777Y-105134962D01*
X172690958Y-105054795D01*
X172682163Y-105050313D01*
X172472012Y-104963266D01*
X172462627Y-104960217D01*
X172241446Y-104907115D01*
X172231699Y-104905572D01*
X172004930Y-104887725D01*
X171995070Y-104887725D01*
X171768301Y-104905572D01*
X171758554Y-104907115D01*
X171537373Y-104960217D01*
X171527988Y-104963266D01*
X171317837Y-105050313D01*
X171309042Y-105054795D01*
X171181890Y-105132715D01*
X171172430Y-105143171D01*
X125827199Y-105143171D01*
X125827504Y-105142612D01*
X125821777Y-105134962D01*
X125690958Y-105054795D01*
X125682163Y-105050313D01*
X125472012Y-104963266D01*
X125462627Y-104960217D01*
X125241446Y-104907115D01*
X125231699Y-104905572D01*
X125004930Y-104887725D01*
X124995070Y-104887725D01*
X124768301Y-104905572D01*
X124758554Y-104907115D01*
X124537373Y-104960217D01*
X124527988Y-104963266D01*
X124317837Y-105050313D01*
X124309042Y-105054795D01*
X124181890Y-105132715D01*
X124172430Y-105143171D01*
X121300500Y-105143171D01*
X121300500Y-98866398D01*
X164373016Y-98866398D01*
X164382898Y-98878887D01*
X164605144Y-99027387D01*
X164612281Y-99031508D01*
X164870349Y-99158772D01*
X164877953Y-99161922D01*
X165150420Y-99254412D01*
X165158383Y-99256546D01*
X165440600Y-99312683D01*
X165448751Y-99313756D01*
X165735881Y-99332575D01*
X165744119Y-99332575D01*
X166031249Y-99313756D01*
X166039400Y-99312683D01*
X166321617Y-99256546D01*
X166329580Y-99254412D01*
X166602047Y-99161922D01*
X166609651Y-99158772D01*
X166867719Y-99031508D01*
X166874856Y-99027387D01*
X167098537Y-98877929D01*
X167106825Y-98868011D01*
X167099568Y-98853832D01*
X165752812Y-97507076D01*
X165738868Y-97499462D01*
X165737035Y-97499593D01*
X165730420Y-97503844D01*
X164379212Y-98855052D01*
X164373016Y-98866398D01*
X121300500Y-98866398D01*
X121300500Y-97074119D01*
X163477425Y-97074119D01*
X163496244Y-97361249D01*
X163497317Y-97369400D01*
X163553454Y-97651617D01*
X163555588Y-97659580D01*
X163648078Y-97932047D01*
X163651228Y-97939651D01*
X163778492Y-98197718D01*
X163782613Y-98204855D01*
X163932071Y-98428537D01*
X163941989Y-98436825D01*
X163956167Y-98429569D01*
X165302924Y-97082812D01*
X165309302Y-97071132D01*
X166169462Y-97071132D01*
X166169593Y-97072965D01*
X166173844Y-97079580D01*
X167525052Y-98430788D01*
X167536398Y-98436984D01*
X167548887Y-98427102D01*
X167697387Y-98204855D01*
X167701508Y-98197718D01*
X167828772Y-97939651D01*
X167831922Y-97932047D01*
X167924412Y-97659580D01*
X167926546Y-97651617D01*
X167982683Y-97369400D01*
X167983756Y-97361249D01*
X168002575Y-97074119D01*
X168002575Y-97065881D01*
X167983756Y-96778751D01*
X167982683Y-96770600D01*
X167926546Y-96488383D01*
X167924412Y-96480420D01*
X167831922Y-96207953D01*
X167828772Y-96200349D01*
X167701508Y-95942282D01*
X167697387Y-95935145D01*
X167547929Y-95711463D01*
X167538011Y-95703175D01*
X167523833Y-95710431D01*
X166177076Y-97057188D01*
X166169462Y-97071132D01*
X165309302Y-97071132D01*
X165310538Y-97068868D01*
X165310407Y-97067035D01*
X165306156Y-97060420D01*
X163954948Y-95709212D01*
X163943602Y-95703016D01*
X163931113Y-95712898D01*
X163782613Y-95935145D01*
X163778492Y-95942282D01*
X163651228Y-96200349D01*
X163648078Y-96207953D01*
X163555588Y-96480420D01*
X163553454Y-96488383D01*
X163497317Y-96770600D01*
X163496244Y-96778751D01*
X163477425Y-97065881D01*
X163477425Y-97074119D01*
X121300500Y-97074119D01*
X121300500Y-95271989D01*
X164373175Y-95271989D01*
X164380431Y-95286167D01*
X165727188Y-96632924D01*
X165741132Y-96640538D01*
X165742965Y-96640407D01*
X165749580Y-96636156D01*
X167100788Y-95284948D01*
X167106984Y-95273602D01*
X167097102Y-95261113D01*
X166874856Y-95112613D01*
X166867719Y-95108492D01*
X166609651Y-94981228D01*
X166602047Y-94978078D01*
X166329580Y-94885588D01*
X166321617Y-94883454D01*
X166039400Y-94827317D01*
X166031249Y-94826244D01*
X165744119Y-94807425D01*
X165735881Y-94807425D01*
X165448751Y-94826244D01*
X165440600Y-94827317D01*
X165158383Y-94883454D01*
X165150420Y-94885588D01*
X164877953Y-94978078D01*
X164870349Y-94981228D01*
X164612282Y-95108492D01*
X164605145Y-95112613D01*
X164381463Y-95262071D01*
X164373175Y-95271989D01*
X121300500Y-95271989D01*
X121300500Y-94806646D01*
X161967500Y-94806646D01*
X161970618Y-94832846D01*
X162016061Y-94935153D01*
X162095287Y-95014241D01*
X162105924Y-95018944D01*
X162105926Y-95018945D01*
X162165462Y-95045265D01*
X162197673Y-95059506D01*
X162223354Y-95062500D01*
X163836646Y-95062500D01*
X163840350Y-95062059D01*
X163840353Y-95062059D01*
X163847746Y-95061179D01*
X163862846Y-95059382D01*
X163965153Y-95013939D01*
X164044241Y-94934713D01*
X164089506Y-94832327D01*
X164092500Y-94806646D01*
X164092500Y-93193354D01*
X164089382Y-93167154D01*
X164043939Y-93064847D01*
X163964713Y-92985759D01*
X163954076Y-92981056D01*
X163954074Y-92981055D01*
X163894538Y-92954735D01*
X163862327Y-92940494D01*
X163836646Y-92937500D01*
X162223354Y-92937500D01*
X162219650Y-92937941D01*
X162219647Y-92937941D01*
X162212254Y-92938821D01*
X162197154Y-92940618D01*
X162094847Y-92986061D01*
X162015759Y-93065287D01*
X161970494Y-93167673D01*
X161967500Y-93193354D01*
X161967500Y-94806646D01*
X121300500Y-94806646D01*
X121300500Y-93351242D01*
X128499254Y-93351242D01*
X128562989Y-93576476D01*
X128566503Y-93585927D01*
X128667506Y-93802528D01*
X128672485Y-93811292D01*
X128806814Y-94008951D01*
X128813138Y-94016815D01*
X128977336Y-94190451D01*
X128984843Y-94197210D01*
X129174688Y-94342357D01*
X129183167Y-94347821D01*
X129393783Y-94460752D01*
X129403029Y-94464792D01*
X129628987Y-94542596D01*
X129638768Y-94545107D01*
X129875334Y-94585969D01*
X129883206Y-94586824D01*
X129907685Y-94587936D01*
X129910518Y-94588000D01*
X130461885Y-94588000D01*
X130477124Y-94583525D01*
X130478329Y-94582135D01*
X130480000Y-94574452D01*
X130480000Y-94569885D01*
X131080000Y-94569885D01*
X131084475Y-94585124D01*
X131085865Y-94586329D01*
X131093548Y-94588000D01*
X131600072Y-94588000D01*
X131605104Y-94587798D01*
X131783259Y-94573464D01*
X131793212Y-94571852D01*
X132025300Y-94514846D01*
X132034870Y-94511663D01*
X132254860Y-94418282D01*
X132263799Y-94413608D01*
X132466024Y-94286261D01*
X132474099Y-94280220D01*
X132653368Y-94122173D01*
X132660371Y-94114921D01*
X132812062Y-93930250D01*
X132817818Y-93921967D01*
X132938031Y-93715421D01*
X132942393Y-93706316D01*
X133028034Y-93483215D01*
X133030885Y-93473526D01*
X133055075Y-93357736D01*
X133053952Y-93343675D01*
X133043844Y-93340000D01*
X131098115Y-93340000D01*
X131082876Y-93344475D01*
X131081671Y-93345865D01*
X131080000Y-93353548D01*
X131080000Y-94569885D01*
X130480000Y-94569885D01*
X130480000Y-93358115D01*
X130475525Y-93342876D01*
X130474135Y-93341671D01*
X130466452Y-93340000D01*
X128514465Y-93340000D01*
X128500377Y-93344137D01*
X128499254Y-93351242D01*
X121300500Y-93351242D01*
X121300500Y-92722264D01*
X128504925Y-92722264D01*
X128506048Y-92736325D01*
X128516156Y-92740000D01*
X130461885Y-92740000D01*
X130477124Y-92735525D01*
X130478329Y-92734135D01*
X130480000Y-92726452D01*
X130480000Y-92721885D01*
X131080000Y-92721885D01*
X131084475Y-92737124D01*
X131085865Y-92738329D01*
X131093548Y-92740000D01*
X133045535Y-92740000D01*
X133059623Y-92735863D01*
X133060746Y-92728758D01*
X132997011Y-92503524D01*
X132993497Y-92494073D01*
X132892494Y-92277472D01*
X132887515Y-92268708D01*
X132753186Y-92071049D01*
X132746862Y-92063185D01*
X132582664Y-91889549D01*
X132575157Y-91882790D01*
X132385312Y-91737643D01*
X132376833Y-91732179D01*
X132166217Y-91619248D01*
X132156971Y-91615208D01*
X131931013Y-91537404D01*
X131921232Y-91534893D01*
X131684666Y-91494031D01*
X131676794Y-91493176D01*
X131652315Y-91492064D01*
X131649482Y-91492000D01*
X131098115Y-91492000D01*
X131082876Y-91496475D01*
X131081671Y-91497865D01*
X131080000Y-91505548D01*
X131080000Y-92721885D01*
X130480000Y-92721885D01*
X130480000Y-91510115D01*
X130475525Y-91494876D01*
X130474135Y-91493671D01*
X130466452Y-91492000D01*
X129959928Y-91492000D01*
X129954896Y-91492202D01*
X129776741Y-91506536D01*
X129766788Y-91508148D01*
X129534700Y-91565154D01*
X129525130Y-91568337D01*
X129305140Y-91661718D01*
X129296201Y-91666392D01*
X129093976Y-91793739D01*
X129085901Y-91799780D01*
X128906632Y-91957827D01*
X128899629Y-91965079D01*
X128747938Y-92149750D01*
X128742182Y-92158033D01*
X128621969Y-92364579D01*
X128617607Y-92373684D01*
X128531966Y-92596785D01*
X128529115Y-92606474D01*
X128504925Y-92722264D01*
X121300500Y-92722264D01*
X121300500Y-91485093D01*
X161962463Y-91485093D01*
X161979899Y-91692730D01*
X162037333Y-91893025D01*
X162040151Y-91898507D01*
X162040152Y-91898511D01*
X162129756Y-92072862D01*
X162129759Y-92072866D01*
X162132577Y-92078350D01*
X162136408Y-92083183D01*
X162258174Y-92236816D01*
X162258179Y-92236821D01*
X162262003Y-92241646D01*
X162420683Y-92376693D01*
X162426061Y-92379699D01*
X162426063Y-92379700D01*
X162511627Y-92427520D01*
X162602571Y-92478346D01*
X162800740Y-92542735D01*
X163007641Y-92567407D01*
X163013776Y-92566935D01*
X163013778Y-92566935D01*
X163209252Y-92551894D01*
X163209256Y-92551893D01*
X163215394Y-92551421D01*
X163416085Y-92495387D01*
X163421589Y-92492607D01*
X163421591Y-92492606D01*
X163596570Y-92404218D01*
X163596572Y-92404217D01*
X163602071Y-92401439D01*
X163766266Y-92273156D01*
X163902417Y-92115423D01*
X164005339Y-91934249D01*
X164071109Y-91736534D01*
X164085926Y-91619248D01*
X164096783Y-91533312D01*
X164096784Y-91533305D01*
X164097225Y-91529810D01*
X164097641Y-91500000D01*
X164077308Y-91292627D01*
X164017083Y-91093154D01*
X163919261Y-90909176D01*
X163913590Y-90902222D01*
X163877427Y-90857882D01*
X163787567Y-90747704D01*
X163627017Y-90614885D01*
X163621603Y-90611957D01*
X163621596Y-90611953D01*
X163620188Y-90611192D01*
X163619594Y-90610603D01*
X163616488Y-90608508D01*
X163616886Y-90607917D01*
X163569780Y-90561197D01*
X163554403Y-90491885D01*
X163578940Y-90425263D01*
X163602538Y-90401074D01*
X163766266Y-90273156D01*
X163902417Y-90115423D01*
X163994570Y-89953206D01*
X164002294Y-89939610D01*
X164002296Y-89939606D01*
X164005339Y-89934249D01*
X164071109Y-89736534D01*
X164087443Y-89607239D01*
X164096783Y-89533312D01*
X164096784Y-89533305D01*
X164097225Y-89529810D01*
X164097641Y-89500000D01*
X164077308Y-89292627D01*
X164017083Y-89093154D01*
X163919261Y-88909176D01*
X163913590Y-88902222D01*
X163827395Y-88796538D01*
X163787567Y-88747704D01*
X163627017Y-88614885D01*
X163443728Y-88515781D01*
X163371923Y-88493554D01*
X163320764Y-88477717D01*
X163261604Y-88438465D01*
X163233057Y-88373461D01*
X163244186Y-88303342D01*
X163291457Y-88250371D01*
X163325412Y-88235645D01*
X163460715Y-88199391D01*
X163471007Y-88195645D01*
X163662436Y-88106380D01*
X163671937Y-88100894D01*
X163677501Y-88096998D01*
X163685877Y-88086520D01*
X163678808Y-88073072D01*
X163042812Y-87437076D01*
X163028868Y-87429462D01*
X163027035Y-87429593D01*
X163020420Y-87433844D01*
X162380470Y-88073794D01*
X162374040Y-88085569D01*
X162383334Y-88097583D01*
X162388063Y-88100894D01*
X162397564Y-88106380D01*
X162588993Y-88195645D01*
X162599285Y-88199391D01*
X162735010Y-88235758D01*
X162795633Y-88272710D01*
X162826654Y-88336570D01*
X162818226Y-88407065D01*
X162773023Y-88461812D01*
X162737975Y-88478338D01*
X162712063Y-88485965D01*
X162630055Y-88510101D01*
X162445399Y-88606636D01*
X162283011Y-88737200D01*
X162279047Y-88741924D01*
X162233223Y-88796535D01*
X162149075Y-88896818D01*
X162048693Y-89079411D01*
X161985690Y-89278025D01*
X161985004Y-89284142D01*
X161985003Y-89284146D01*
X161972401Y-89396496D01*
X161962463Y-89485093D01*
X161979899Y-89692730D01*
X162037333Y-89893025D01*
X162040151Y-89898507D01*
X162040152Y-89898511D01*
X162129756Y-90072862D01*
X162129759Y-90072866D01*
X162132577Y-90078350D01*
X162136408Y-90083183D01*
X162258174Y-90236816D01*
X162258179Y-90236821D01*
X162262003Y-90241646D01*
X162420683Y-90376693D01*
X162442520Y-90388897D01*
X162492224Y-90439587D01*
X162506634Y-90509105D01*
X162481171Y-90575379D01*
X162450310Y-90604069D01*
X162445399Y-90606636D01*
X162283011Y-90737200D01*
X162149075Y-90896818D01*
X162048693Y-91079411D01*
X161985690Y-91278025D01*
X161962463Y-91485093D01*
X121300500Y-91485093D01*
X121300500Y-87127227D01*
X128679500Y-87127227D01*
X128679501Y-88792772D01*
X128679956Y-88796530D01*
X128679956Y-88796535D01*
X128689326Y-88873970D01*
X128690364Y-88882548D01*
X128693342Y-88890071D01*
X128693343Y-88890073D01*
X128703061Y-88914617D01*
X128745887Y-89022784D01*
X128837077Y-89142923D01*
X128957216Y-89234113D01*
X129039192Y-89266570D01*
X129089922Y-89286655D01*
X129089924Y-89286656D01*
X129097452Y-89289636D01*
X129187227Y-89300500D01*
X130778949Y-89300500D01*
X132372772Y-89300499D01*
X132376530Y-89300044D01*
X132376535Y-89300044D01*
X132454515Y-89290608D01*
X132462548Y-89289636D01*
X132470071Y-89286658D01*
X132470073Y-89286657D01*
X132522681Y-89265828D01*
X132602784Y-89234113D01*
X132722923Y-89142923D01*
X132814113Y-89022784D01*
X132842930Y-88950000D01*
X140444532Y-88950000D01*
X140464365Y-89176692D01*
X140465789Y-89182005D01*
X140465789Y-89182007D01*
X140495430Y-89292627D01*
X140523261Y-89396496D01*
X140525583Y-89401476D01*
X140525584Y-89401478D01*
X140585427Y-89529810D01*
X140619432Y-89602734D01*
X140749953Y-89789139D01*
X140910861Y-89950047D01*
X141097266Y-90080568D01*
X141102244Y-90082889D01*
X141102247Y-90082891D01*
X141298522Y-90174416D01*
X141303504Y-90176739D01*
X141308812Y-90178161D01*
X141308814Y-90178162D01*
X141517993Y-90234211D01*
X141517995Y-90234211D01*
X141523308Y-90235635D01*
X141750000Y-90255468D01*
X141976692Y-90235635D01*
X141982005Y-90234211D01*
X141982007Y-90234211D01*
X142191186Y-90178162D01*
X142191188Y-90178161D01*
X142196496Y-90176739D01*
X142201478Y-90174416D01*
X142397753Y-90082891D01*
X142397756Y-90082889D01*
X142402734Y-90080568D01*
X142589139Y-89950047D01*
X142750047Y-89789139D01*
X142880568Y-89602734D01*
X142914574Y-89529810D01*
X142974416Y-89401478D01*
X142974417Y-89401476D01*
X142976739Y-89396496D01*
X143004571Y-89292627D01*
X143034211Y-89182007D01*
X143034211Y-89182005D01*
X143035635Y-89176692D01*
X143051094Y-89000000D01*
X145950000Y-89000000D01*
X150950000Y-89000000D01*
X150950000Y-87005475D01*
X161755628Y-87005475D01*
X161774038Y-87215896D01*
X161775941Y-87226691D01*
X161830609Y-87430715D01*
X161834355Y-87441007D01*
X161923624Y-87632444D01*
X161929102Y-87641930D01*
X161933002Y-87647501D01*
X161943480Y-87655876D01*
X161956928Y-87648808D01*
X162592924Y-87012812D01*
X162599302Y-87001132D01*
X163459462Y-87001132D01*
X163459593Y-87002965D01*
X163463844Y-87009580D01*
X164103794Y-87649530D01*
X164115568Y-87655960D01*
X164127584Y-87646663D01*
X164130898Y-87641930D01*
X164136376Y-87632444D01*
X164225645Y-87441007D01*
X164229391Y-87430715D01*
X164284059Y-87226691D01*
X164285962Y-87215896D01*
X164304372Y-87005475D01*
X164304372Y-86994525D01*
X164285962Y-86784104D01*
X164284059Y-86773309D01*
X164229391Y-86569285D01*
X164225645Y-86558993D01*
X164136376Y-86367556D01*
X164130898Y-86358070D01*
X164126998Y-86352499D01*
X164116520Y-86344124D01*
X164103072Y-86351192D01*
X163467076Y-86987188D01*
X163459462Y-87001132D01*
X162599302Y-87001132D01*
X162600538Y-86998868D01*
X162600407Y-86997035D01*
X162596156Y-86990420D01*
X161956206Y-86350470D01*
X161944432Y-86344040D01*
X161932416Y-86353337D01*
X161929102Y-86358070D01*
X161923624Y-86367556D01*
X161834355Y-86558993D01*
X161830609Y-86569285D01*
X161775941Y-86773309D01*
X161774038Y-86784104D01*
X161755628Y-86994525D01*
X161755628Y-87005475D01*
X150950000Y-87005475D01*
X150950000Y-85913480D01*
X162374124Y-85913480D01*
X162381192Y-85926928D01*
X163017188Y-86562924D01*
X163031132Y-86570538D01*
X163032965Y-86570407D01*
X163039580Y-86566156D01*
X163679530Y-85926206D01*
X163685960Y-85914431D01*
X163676666Y-85902417D01*
X163671937Y-85899106D01*
X163662436Y-85893620D01*
X163471007Y-85804355D01*
X163460715Y-85800609D01*
X163256691Y-85745941D01*
X163245896Y-85744038D01*
X163044276Y-85726398D01*
X164373016Y-85726398D01*
X164382898Y-85738887D01*
X164605144Y-85887387D01*
X164612281Y-85891508D01*
X164870349Y-86018772D01*
X164877953Y-86021922D01*
X165150420Y-86114412D01*
X165158383Y-86116546D01*
X165440600Y-86172683D01*
X165448751Y-86173756D01*
X165735881Y-86192575D01*
X165744119Y-86192575D01*
X166031249Y-86173756D01*
X166039400Y-86172683D01*
X166321617Y-86116546D01*
X166329580Y-86114412D01*
X166602047Y-86021922D01*
X166609651Y-86018772D01*
X166867719Y-85891508D01*
X166874856Y-85887387D01*
X167098537Y-85737929D01*
X167106825Y-85728011D01*
X167099568Y-85713832D01*
X165752812Y-84367076D01*
X165738868Y-84359462D01*
X165737035Y-84359593D01*
X165730420Y-84363844D01*
X164379212Y-85715052D01*
X164373016Y-85726398D01*
X163044276Y-85726398D01*
X163035475Y-85725628D01*
X163024525Y-85725628D01*
X162814104Y-85744038D01*
X162803309Y-85745941D01*
X162599285Y-85800609D01*
X162588993Y-85804355D01*
X162397556Y-85893624D01*
X162388070Y-85899102D01*
X162382499Y-85903002D01*
X162374124Y-85913480D01*
X150950000Y-85913480D01*
X150950000Y-85000000D01*
X145950000Y-85000000D01*
X145950000Y-89000000D01*
X143051094Y-89000000D01*
X143055468Y-88950000D01*
X143035635Y-88723308D01*
X143034211Y-88717993D01*
X142978162Y-88508814D01*
X142978161Y-88508812D01*
X142976739Y-88503504D01*
X142946411Y-88438465D01*
X142882891Y-88302247D01*
X142882889Y-88302244D01*
X142880568Y-88297266D01*
X142750047Y-88110861D01*
X142589139Y-87949953D01*
X142402734Y-87819432D01*
X142397756Y-87817111D01*
X142397753Y-87817109D01*
X142201478Y-87725584D01*
X142201476Y-87725583D01*
X142196496Y-87723261D01*
X142191188Y-87721839D01*
X142191186Y-87721838D01*
X141982007Y-87665789D01*
X141982005Y-87665789D01*
X141976692Y-87664365D01*
X141750000Y-87644532D01*
X141523308Y-87664365D01*
X141517995Y-87665789D01*
X141517993Y-87665789D01*
X141308814Y-87721838D01*
X141308812Y-87721839D01*
X141303504Y-87723261D01*
X141298524Y-87725583D01*
X141298522Y-87725584D01*
X141102247Y-87817109D01*
X141102244Y-87817111D01*
X141097266Y-87819432D01*
X140910861Y-87949953D01*
X140749953Y-88110861D01*
X140619432Y-88297266D01*
X140617111Y-88302244D01*
X140617109Y-88302247D01*
X140553589Y-88438465D01*
X140523261Y-88503504D01*
X140521839Y-88508812D01*
X140521838Y-88508814D01*
X140465789Y-88717993D01*
X140464365Y-88723308D01*
X140444532Y-88950000D01*
X132842930Y-88950000D01*
X132863986Y-88896818D01*
X132866655Y-88890078D01*
X132866656Y-88890076D01*
X132869636Y-88882548D01*
X132880500Y-88792773D01*
X132880499Y-87127228D01*
X132880044Y-87123462D01*
X132870608Y-87045485D01*
X132869636Y-87037452D01*
X132859881Y-87012812D01*
X132817274Y-86905201D01*
X132814113Y-86897216D01*
X132722923Y-86777077D01*
X132602784Y-86685887D01*
X132520808Y-86653430D01*
X132470078Y-86633345D01*
X132470076Y-86633344D01*
X132462548Y-86630364D01*
X132372773Y-86619500D01*
X130781051Y-86619500D01*
X129187228Y-86619501D01*
X129183470Y-86619956D01*
X129183465Y-86619956D01*
X129106030Y-86629326D01*
X129097452Y-86630364D01*
X129089929Y-86633342D01*
X129089927Y-86633343D01*
X129037319Y-86654172D01*
X128957216Y-86685887D01*
X128837077Y-86777077D01*
X128745887Y-86897216D01*
X128742726Y-86905201D01*
X128700120Y-87012812D01*
X128690364Y-87037452D01*
X128679500Y-87127227D01*
X121300500Y-87127227D01*
X121300500Y-83934119D01*
X163477425Y-83934119D01*
X163496244Y-84221249D01*
X163497317Y-84229400D01*
X163553454Y-84511617D01*
X163555588Y-84519580D01*
X163648078Y-84792047D01*
X163651228Y-84799651D01*
X163778492Y-85057718D01*
X163782613Y-85064855D01*
X163932071Y-85288537D01*
X163941989Y-85296825D01*
X163956167Y-85289569D01*
X165302924Y-83942812D01*
X165309302Y-83931132D01*
X166169462Y-83931132D01*
X166169593Y-83932965D01*
X166173844Y-83939580D01*
X167525052Y-85290788D01*
X167536398Y-85296984D01*
X167548887Y-85287102D01*
X167697387Y-85064855D01*
X167701508Y-85057718D01*
X167828772Y-84799651D01*
X167831922Y-84792047D01*
X167924412Y-84519580D01*
X167926546Y-84511617D01*
X167982683Y-84229400D01*
X167983756Y-84221249D01*
X168002575Y-83934119D01*
X168002575Y-83925881D01*
X167983756Y-83638751D01*
X167982683Y-83630600D01*
X167926546Y-83348383D01*
X167924412Y-83340420D01*
X167831922Y-83067953D01*
X167828772Y-83060349D01*
X167701508Y-82802282D01*
X167697387Y-82795145D01*
X167547929Y-82571463D01*
X167538011Y-82563175D01*
X167523833Y-82570431D01*
X166177076Y-83917188D01*
X166169462Y-83931132D01*
X165309302Y-83931132D01*
X165310538Y-83928868D01*
X165310407Y-83927035D01*
X165306156Y-83920420D01*
X163954948Y-82569212D01*
X163943602Y-82563016D01*
X163931113Y-82572898D01*
X163782613Y-82795145D01*
X163778492Y-82802282D01*
X163651228Y-83060349D01*
X163648078Y-83067953D01*
X163555588Y-83340420D01*
X163553454Y-83348383D01*
X163497317Y-83630600D01*
X163496244Y-83638751D01*
X163477425Y-83925881D01*
X163477425Y-83934119D01*
X121300500Y-83934119D01*
X121300500Y-82131989D01*
X164373175Y-82131989D01*
X164380431Y-82146167D01*
X165727188Y-83492924D01*
X165741132Y-83500538D01*
X165742965Y-83500407D01*
X165749580Y-83496156D01*
X167100788Y-82144948D01*
X167106984Y-82133602D01*
X167097102Y-82121113D01*
X166874856Y-81972613D01*
X166867719Y-81968492D01*
X166609651Y-81841228D01*
X166602047Y-81838078D01*
X166329580Y-81745588D01*
X166321617Y-81743454D01*
X166039400Y-81687317D01*
X166031249Y-81686244D01*
X165744119Y-81667425D01*
X165735881Y-81667425D01*
X165448751Y-81686244D01*
X165440600Y-81687317D01*
X165158383Y-81743454D01*
X165150420Y-81745588D01*
X164877953Y-81838078D01*
X164870349Y-81841228D01*
X164612282Y-81968492D01*
X164605145Y-81972613D01*
X164381463Y-82122071D01*
X164373175Y-82131989D01*
X121300500Y-82131989D01*
X121300500Y-75857388D01*
X124172496Y-75857388D01*
X124178223Y-75865038D01*
X124309042Y-75945205D01*
X124317837Y-75949687D01*
X124527988Y-76036734D01*
X124537373Y-76039783D01*
X124758554Y-76092885D01*
X124768301Y-76094428D01*
X124995070Y-76112275D01*
X125004930Y-76112275D01*
X125231699Y-76094428D01*
X125241446Y-76092885D01*
X125462627Y-76039783D01*
X125472012Y-76036734D01*
X125682163Y-75949687D01*
X125690958Y-75945205D01*
X125818110Y-75867285D01*
X125827064Y-75857388D01*
X171172496Y-75857388D01*
X171178223Y-75865038D01*
X171309042Y-75945205D01*
X171317837Y-75949687D01*
X171527988Y-76036734D01*
X171537373Y-76039783D01*
X171758554Y-76092885D01*
X171768301Y-76094428D01*
X171995070Y-76112275D01*
X172004930Y-76112275D01*
X172231699Y-76094428D01*
X172241446Y-76092885D01*
X172462627Y-76039783D01*
X172472012Y-76036734D01*
X172682163Y-75949687D01*
X172690958Y-75945205D01*
X172818110Y-75867285D01*
X172827570Y-75856829D01*
X172823786Y-75848050D01*
X172012812Y-75037076D01*
X171998868Y-75029462D01*
X171997035Y-75029593D01*
X171990420Y-75033844D01*
X171179256Y-75845008D01*
X171172496Y-75857388D01*
X125827064Y-75857388D01*
X125827570Y-75856829D01*
X125823786Y-75848050D01*
X125012812Y-75037076D01*
X124998868Y-75029462D01*
X124997035Y-75029593D01*
X124990420Y-75033844D01*
X124179256Y-75845008D01*
X124172496Y-75857388D01*
X121300500Y-75857388D01*
X121300500Y-74604930D01*
X123487725Y-74604930D01*
X123505572Y-74831699D01*
X123507115Y-74841446D01*
X123560217Y-75062627D01*
X123563266Y-75072012D01*
X123650313Y-75282163D01*
X123654795Y-75290958D01*
X123732715Y-75418110D01*
X123743171Y-75427570D01*
X123751950Y-75423786D01*
X124562924Y-74612812D01*
X124569302Y-74601132D01*
X125429462Y-74601132D01*
X125429593Y-74602965D01*
X125433844Y-74609580D01*
X126245008Y-75420744D01*
X126257388Y-75427504D01*
X126265038Y-75421777D01*
X126345205Y-75290958D01*
X126349687Y-75282163D01*
X126436734Y-75072012D01*
X126439783Y-75062627D01*
X126492885Y-74841446D01*
X126494428Y-74831699D01*
X126512275Y-74604930D01*
X126512275Y-74595070D01*
X126494428Y-74368301D01*
X126492885Y-74358554D01*
X126478827Y-74300000D01*
X135794532Y-74300000D01*
X135814365Y-74526692D01*
X135815789Y-74532005D01*
X135815789Y-74532007D01*
X135836575Y-74609580D01*
X135873261Y-74746496D01*
X135969432Y-74952734D01*
X136099953Y-75139139D01*
X136260861Y-75300047D01*
X136447266Y-75430568D01*
X136452244Y-75432889D01*
X136452247Y-75432891D01*
X136648522Y-75524416D01*
X136653504Y-75526739D01*
X136658812Y-75528161D01*
X136658814Y-75528162D01*
X136867993Y-75584211D01*
X136867995Y-75584211D01*
X136873308Y-75585635D01*
X137100000Y-75605468D01*
X137326692Y-75585635D01*
X137332005Y-75584211D01*
X137332007Y-75584211D01*
X137541186Y-75528162D01*
X137541188Y-75528161D01*
X137546496Y-75526739D01*
X137551478Y-75524416D01*
X137747753Y-75432891D01*
X137747756Y-75432889D01*
X137752734Y-75430568D01*
X137939139Y-75300047D01*
X138100047Y-75139139D01*
X138230568Y-74952734D01*
X138326739Y-74746496D01*
X138363426Y-74609580D01*
X138364672Y-74604930D01*
X170487725Y-74604930D01*
X170505572Y-74831699D01*
X170507115Y-74841446D01*
X170560217Y-75062627D01*
X170563266Y-75072012D01*
X170650313Y-75282163D01*
X170654795Y-75290958D01*
X170732715Y-75418110D01*
X170743171Y-75427570D01*
X170751950Y-75423786D01*
X171562924Y-74612812D01*
X171569302Y-74601132D01*
X172429462Y-74601132D01*
X172429593Y-74602965D01*
X172433844Y-74609580D01*
X173245008Y-75420744D01*
X173257388Y-75427504D01*
X173265038Y-75421777D01*
X173345205Y-75290958D01*
X173349687Y-75282163D01*
X173436734Y-75072012D01*
X173439783Y-75062627D01*
X173492885Y-74841446D01*
X173494428Y-74831699D01*
X173512275Y-74604930D01*
X173512275Y-74595070D01*
X173494428Y-74368301D01*
X173492885Y-74358554D01*
X173439783Y-74137373D01*
X173436734Y-74127988D01*
X173349687Y-73917837D01*
X173345205Y-73909042D01*
X173267285Y-73781890D01*
X173256829Y-73772430D01*
X173248050Y-73776214D01*
X172437076Y-74587188D01*
X172429462Y-74601132D01*
X171569302Y-74601132D01*
X171570538Y-74598868D01*
X171570407Y-74597035D01*
X171566156Y-74590420D01*
X170754992Y-73779256D01*
X170742612Y-73772496D01*
X170734962Y-73778223D01*
X170654795Y-73909042D01*
X170650313Y-73917837D01*
X170563266Y-74127988D01*
X170560217Y-74137373D01*
X170507115Y-74358554D01*
X170505572Y-74368301D01*
X170487725Y-74595070D01*
X170487725Y-74604930D01*
X138364672Y-74604930D01*
X138384211Y-74532007D01*
X138384211Y-74532005D01*
X138385635Y-74526692D01*
X138405468Y-74300000D01*
X138385635Y-74073308D01*
X138326739Y-73853504D01*
X138293345Y-73781890D01*
X138232891Y-73652247D01*
X138232889Y-73652244D01*
X138230568Y-73647266D01*
X138100047Y-73460861D01*
X137982357Y-73343171D01*
X171172430Y-73343171D01*
X171176214Y-73351950D01*
X171987188Y-74162924D01*
X172001132Y-74170538D01*
X172002965Y-74170407D01*
X172009580Y-74166156D01*
X172820744Y-73354992D01*
X172827504Y-73342612D01*
X172821777Y-73334962D01*
X172690958Y-73254795D01*
X172682163Y-73250313D01*
X172472012Y-73163266D01*
X172462627Y-73160217D01*
X172241446Y-73107115D01*
X172231699Y-73105572D01*
X172004930Y-73087725D01*
X171995070Y-73087725D01*
X171768301Y-73105572D01*
X171758554Y-73107115D01*
X171537373Y-73160217D01*
X171527988Y-73163266D01*
X171317837Y-73250313D01*
X171309042Y-73254795D01*
X171181890Y-73332715D01*
X171172430Y-73343171D01*
X137982357Y-73343171D01*
X137939139Y-73299953D01*
X137752734Y-73169432D01*
X137747756Y-73167111D01*
X137747753Y-73167109D01*
X137551478Y-73075584D01*
X137551476Y-73075583D01*
X137546496Y-73073261D01*
X137541188Y-73071839D01*
X137541186Y-73071838D01*
X137332007Y-73015789D01*
X137332005Y-73015789D01*
X137326692Y-73014365D01*
X137100000Y-72994532D01*
X136873308Y-73014365D01*
X136867995Y-73015789D01*
X136867993Y-73015789D01*
X136658814Y-73071838D01*
X136658812Y-73071839D01*
X136653504Y-73073261D01*
X136648524Y-73075583D01*
X136648522Y-73075584D01*
X136452247Y-73167109D01*
X136452244Y-73167111D01*
X136447266Y-73169432D01*
X136260861Y-73299953D01*
X136099953Y-73460861D01*
X135969432Y-73647266D01*
X135967111Y-73652244D01*
X135967109Y-73652247D01*
X135906655Y-73781890D01*
X135873261Y-73853504D01*
X135814365Y-74073308D01*
X135794532Y-74300000D01*
X126478827Y-74300000D01*
X126439783Y-74137373D01*
X126436734Y-74127988D01*
X126349687Y-73917837D01*
X126345205Y-73909042D01*
X126267285Y-73781890D01*
X126256829Y-73772430D01*
X126248050Y-73776214D01*
X125437076Y-74587188D01*
X125429462Y-74601132D01*
X124569302Y-74601132D01*
X124570538Y-74598868D01*
X124570407Y-74597035D01*
X124566156Y-74590420D01*
X123754992Y-73779256D01*
X123742612Y-73772496D01*
X123734962Y-73778223D01*
X123654795Y-73909042D01*
X123650313Y-73917837D01*
X123563266Y-74127988D01*
X123560217Y-74137373D01*
X123507115Y-74358554D01*
X123505572Y-74368301D01*
X123487725Y-74595070D01*
X123487725Y-74604930D01*
X121300500Y-74604930D01*
X121300500Y-73343171D01*
X124172430Y-73343171D01*
X124176214Y-73351950D01*
X124987188Y-74162924D01*
X125001132Y-74170538D01*
X125002965Y-74170407D01*
X125009580Y-74166156D01*
X125820744Y-73354992D01*
X125827504Y-73342612D01*
X125821777Y-73334962D01*
X125690958Y-73254795D01*
X125682163Y-73250313D01*
X125472012Y-73163266D01*
X125462627Y-73160217D01*
X125241446Y-73107115D01*
X125231699Y-73105572D01*
X125004930Y-73087725D01*
X124995070Y-73087725D01*
X124768301Y-73105572D01*
X124758554Y-73107115D01*
X124537373Y-73160217D01*
X124527988Y-73163266D01*
X124317837Y-73250313D01*
X124309042Y-73254795D01*
X124181890Y-73332715D01*
X124172430Y-73343171D01*
X121300500Y-73343171D01*
X121300500Y-69826495D01*
X122603705Y-69826495D01*
X122611163Y-69836863D01*
X122814943Y-70001880D01*
X122820265Y-70005747D01*
X123140685Y-70213830D01*
X123146394Y-70217127D01*
X123486811Y-70390578D01*
X123492836Y-70393260D01*
X123849502Y-70530171D01*
X123855784Y-70532212D01*
X124224816Y-70631094D01*
X124231266Y-70632465D01*
X124608629Y-70692234D01*
X124615167Y-70692920D01*
X124996699Y-70712916D01*
X125003301Y-70712916D01*
X125384833Y-70692920D01*
X125391371Y-70692234D01*
X125768734Y-70632465D01*
X125775184Y-70631094D01*
X126144216Y-70532212D01*
X126150498Y-70530171D01*
X126507164Y-70393260D01*
X126513189Y-70390578D01*
X126853606Y-70217127D01*
X126859315Y-70213830D01*
X127179735Y-70005747D01*
X127185057Y-70001880D01*
X127387889Y-69837631D01*
X127395582Y-69826495D01*
X169603705Y-69826495D01*
X169611163Y-69836863D01*
X169814943Y-70001880D01*
X169820265Y-70005747D01*
X170140685Y-70213830D01*
X170146394Y-70217127D01*
X170486811Y-70390578D01*
X170492836Y-70393260D01*
X170849502Y-70530171D01*
X170855784Y-70532212D01*
X171224816Y-70631094D01*
X171231266Y-70632465D01*
X171608629Y-70692234D01*
X171615167Y-70692920D01*
X171996699Y-70712916D01*
X172003301Y-70712916D01*
X172384833Y-70692920D01*
X172391371Y-70692234D01*
X172768734Y-70632465D01*
X172775184Y-70631094D01*
X173144216Y-70532212D01*
X173150498Y-70530171D01*
X173507164Y-70393260D01*
X173513189Y-70390578D01*
X173853606Y-70217127D01*
X173859315Y-70213830D01*
X174179735Y-70005747D01*
X174185057Y-70001880D01*
X174387889Y-69837631D01*
X174396355Y-69825376D01*
X174390021Y-69814285D01*
X172012812Y-67437076D01*
X171998868Y-67429462D01*
X171997035Y-67429593D01*
X171990420Y-67433844D01*
X169610845Y-69813419D01*
X169603705Y-69826495D01*
X127395582Y-69826495D01*
X127396355Y-69825376D01*
X127390021Y-69814285D01*
X125012812Y-67437076D01*
X124998868Y-67429462D01*
X124997035Y-67429593D01*
X124990420Y-67433844D01*
X122610845Y-69813419D01*
X122603705Y-69826495D01*
X121300500Y-69826495D01*
X121300500Y-68389216D01*
X121320502Y-68321095D01*
X121374158Y-68274602D01*
X121444432Y-68264498D01*
X121509012Y-68293992D01*
X121544131Y-68344062D01*
X121606740Y-68507164D01*
X121609422Y-68513189D01*
X121782872Y-68853603D01*
X121786169Y-68859313D01*
X121994251Y-69179732D01*
X121998123Y-69185062D01*
X122162369Y-69387889D01*
X122174624Y-69396355D01*
X122185715Y-69390021D01*
X124574604Y-67001132D01*
X125429462Y-67001132D01*
X125429593Y-67002965D01*
X125433844Y-67009580D01*
X127813419Y-69389155D01*
X127826495Y-69396295D01*
X127836863Y-69388837D01*
X128001877Y-69185062D01*
X128005749Y-69179732D01*
X128213831Y-68859313D01*
X128217128Y-68853603D01*
X128390578Y-68513189D01*
X128393260Y-68507164D01*
X128530171Y-68150498D01*
X128532212Y-68144216D01*
X128631094Y-67775184D01*
X128632465Y-67768734D01*
X128692234Y-67391371D01*
X128692920Y-67384833D01*
X128712916Y-67003301D01*
X168287084Y-67003301D01*
X168307080Y-67384833D01*
X168307766Y-67391371D01*
X168367535Y-67768734D01*
X168368906Y-67775184D01*
X168467788Y-68144216D01*
X168469829Y-68150498D01*
X168606740Y-68507164D01*
X168609422Y-68513189D01*
X168782872Y-68853603D01*
X168786169Y-68859313D01*
X168994251Y-69179732D01*
X168998123Y-69185062D01*
X169162369Y-69387889D01*
X169174624Y-69396355D01*
X169185715Y-69390021D01*
X171562924Y-67012812D01*
X171570538Y-66998868D01*
X171570407Y-66997035D01*
X171566156Y-66990420D01*
X169186581Y-64610845D01*
X169173505Y-64603705D01*
X169163137Y-64611163D01*
X168998123Y-64814938D01*
X168994251Y-64820268D01*
X168786169Y-65140687D01*
X168782872Y-65146397D01*
X168609422Y-65486811D01*
X168606740Y-65492836D01*
X168469829Y-65849502D01*
X168467788Y-65855784D01*
X168368906Y-66224816D01*
X168367535Y-66231266D01*
X168307766Y-66608629D01*
X168307080Y-66615167D01*
X168287084Y-66996699D01*
X168287084Y-67003301D01*
X128712916Y-67003301D01*
X128712916Y-66996699D01*
X128692920Y-66615167D01*
X128692234Y-66608629D01*
X128632465Y-66231266D01*
X128631094Y-66224816D01*
X128532212Y-65855784D01*
X128530171Y-65849502D01*
X128393260Y-65492836D01*
X128390578Y-65486811D01*
X128217128Y-65146397D01*
X128213831Y-65140687D01*
X128005749Y-64820268D01*
X128001877Y-64814938D01*
X127837631Y-64612111D01*
X127825376Y-64603645D01*
X127814285Y-64609979D01*
X125437076Y-66987188D01*
X125429462Y-67001132D01*
X124574604Y-67001132D01*
X127389155Y-64186581D01*
X127396295Y-64173505D01*
X127388837Y-64163137D01*
X127185057Y-63998120D01*
X127179735Y-63994253D01*
X126859315Y-63786170D01*
X126853606Y-63782873D01*
X126513189Y-63609422D01*
X126507164Y-63606740D01*
X126344062Y-63544131D01*
X126287634Y-63501045D01*
X126263457Y-63434292D01*
X126279208Y-63365065D01*
X126329886Y-63315343D01*
X126389216Y-63300500D01*
X170610784Y-63300500D01*
X170678905Y-63320502D01*
G37*
%TD.AperFunction*%
%TD*%
M02*
