%TF.GenerationSoftware,KiCad,Pcbnew,(6.0.5)*%
%TF.CreationDate,2025-05-25T15:44:49+02:00*%
%TF.ProjectId,HT1015A_Dev,48543130-3135-4415-9f44-65762e6b6963,rev?*%
%TF.SameCoordinates,Original*%
%TF.FileFunction,Copper,L1,Top*%
%TF.FilePolarity,Positive*%
%FSLAX46Y46*%
G04 Gerber Fmt 4.6, Leading zero omitted, Abs format (unit mm)*
G04 Created by KiCad (PCBNEW (6.0.5)) date 2025-05-25 15:44:49*
%MOMM*%
%LPD*%
G01*
G04 APERTURE LIST*
G04 Aperture macros list*
%AMRoundRect*
0 Rectangle with rounded corners*
0 $1 Rounding radius*
0 $2 $3 $4 $5 $6 $7 $8 $9 X,Y pos of 4 corners*
0 Add a 4 corners polygon primitive as box body*
4,1,4,$2,$3,$4,$5,$6,$7,$8,$9,$2,$3,0*
0 Add four circle primitives for the rounded corners*
1,1,$1+$1,$2,$3*
1,1,$1+$1,$4,$5*
1,1,$1+$1,$6,$7*
1,1,$1+$1,$8,$9*
0 Add four rect primitives between the rounded corners*
20,1,$1+$1,$2,$3,$4,$5,0*
20,1,$1+$1,$4,$5,$6,$7,0*
20,1,$1+$1,$6,$7,$8,$9,0*
20,1,$1+$1,$8,$9,$2,$3,0*%
G04 Aperture macros list end*
%TA.AperFunction,ComponentPad*%
%ADD10C,2.000000*%
%TD*%
%TA.AperFunction,SMDPad,CuDef*%
%ADD11RoundRect,0.243750X-0.243750X-0.456250X0.243750X-0.456250X0.243750X0.456250X-0.243750X0.456250X0*%
%TD*%
%TA.AperFunction,SMDPad,CuDef*%
%ADD12RoundRect,0.250000X0.325000X0.650000X-0.325000X0.650000X-0.325000X-0.650000X0.325000X-0.650000X0*%
%TD*%
%TA.AperFunction,SMDPad,CuDef*%
%ADD13RoundRect,0.250000X-0.450000X0.262500X-0.450000X-0.262500X0.450000X-0.262500X0.450000X0.262500X0*%
%TD*%
%TA.AperFunction,SMDPad,CuDef*%
%ADD14RoundRect,0.250000X-0.250000X-0.475000X0.250000X-0.475000X0.250000X0.475000X-0.250000X0.475000X0*%
%TD*%
%TA.AperFunction,SMDPad,CuDef*%
%ADD15RoundRect,0.250000X-0.475000X0.250000X-0.475000X-0.250000X0.475000X-0.250000X0.475000X0.250000X0*%
%TD*%
%TA.AperFunction,SMDPad,CuDef*%
%ADD16RoundRect,0.250000X-0.325000X-0.650000X0.325000X-0.650000X0.325000X0.650000X-0.325000X0.650000X0*%
%TD*%
%TA.AperFunction,ComponentPad*%
%ADD17C,6.400000*%
%TD*%
%TA.AperFunction,SMDPad,CuDef*%
%ADD18R,1.800000X2.500000*%
%TD*%
%TA.AperFunction,ComponentPad*%
%ADD19R,1.524000X1.524000*%
%TD*%
%TA.AperFunction,ComponentPad*%
%ADD20C,1.524000*%
%TD*%
%TA.AperFunction,ComponentPad*%
%ADD21C,3.500000*%
%TD*%
%TA.AperFunction,SMDPad,CuDef*%
%ADD22RoundRect,0.250000X0.262500X0.450000X-0.262500X0.450000X-0.262500X-0.450000X0.262500X-0.450000X0*%
%TD*%
%TA.AperFunction,SMDPad,CuDef*%
%ADD23RoundRect,0.250000X-0.262500X-0.450000X0.262500X-0.450000X0.262500X0.450000X-0.262500X0.450000X0*%
%TD*%
%TA.AperFunction,SMDPad,CuDef*%
%ADD24R,3.000000X1.500000*%
%TD*%
%TA.AperFunction,SMDPad,CuDef*%
%ADD25RoundRect,0.250000X0.650000X-0.325000X0.650000X0.325000X-0.650000X0.325000X-0.650000X-0.325000X0*%
%TD*%
%TA.AperFunction,SMDPad,CuDef*%
%ADD26RoundRect,0.150000X-0.150000X0.650000X-0.150000X-0.650000X0.150000X-0.650000X0.150000X0.650000X0*%
%TD*%
%TA.AperFunction,ComponentPad*%
%ADD27C,0.500000*%
%TD*%
%TA.AperFunction,SMDPad,CuDef*%
%ADD28R,3.100000X2.410000*%
%TD*%
%TA.AperFunction,ComponentPad*%
%ADD29RoundRect,0.249999X-1.550001X0.790001X-1.550001X-0.790001X1.550001X-0.790001X1.550001X0.790001X0*%
%TD*%
%TA.AperFunction,ComponentPad*%
%ADD30O,3.600000X2.080000*%
%TD*%
%TA.AperFunction,SMDPad,CuDef*%
%ADD31R,2.200000X1.200000*%
%TD*%
%TA.AperFunction,SMDPad,CuDef*%
%ADD32R,6.400000X5.800000*%
%TD*%
%TA.AperFunction,SMDPad,CuDef*%
%ADD33R,1.700000X1.300000*%
%TD*%
%TA.AperFunction,ViaPad*%
%ADD34C,0.760000*%
%TD*%
%TA.AperFunction,Conductor*%
%ADD35C,1.000000*%
%TD*%
%TA.AperFunction,Conductor*%
%ADD36C,0.600000*%
%TD*%
%TA.AperFunction,Conductor*%
%ADD37C,1.400000*%
%TD*%
%TA.AperFunction,Conductor*%
%ADD38C,0.400000*%
%TD*%
G04 APERTURE END LIST*
D10*
%TO.P,TP2,1,1*%
%TO.N,GND*%
X125000000Y-74600000D03*
%TD*%
D11*
%TO.P,D3,1,K*%
%TO.N,Net-(D3-Pad1)*%
X156812500Y-71800000D03*
%TO.P,D3,2,A*%
%TO.N,+5V*%
X158687500Y-71800000D03*
%TD*%
D12*
%TO.P,C9,1*%
%TO.N,GND*%
X152725000Y-104850000D03*
%TO.P,C9,2*%
%TO.N,+5V*%
X149775000Y-104850000D03*
%TD*%
D10*
%TO.P,TP1,1,1*%
%TO.N,/VM*%
X137100000Y-74300000D03*
%TD*%
D13*
%TO.P,R6,1*%
%TO.N,GND*%
X144650000Y-87837500D03*
%TO.P,R6,2*%
%TO.N,Net-(C4-Pad1)*%
X144650000Y-89662500D03*
%TD*%
D14*
%TO.P,C3,1*%
%TO.N,Net-(C3-Pad1)*%
X148800000Y-91800000D03*
%TO.P,C3,2*%
%TO.N,Net-(C3-Pad2)*%
X150700000Y-91800000D03*
%TD*%
D15*
%TO.P,C5,1*%
%TO.N,Net-(C4-Pad2)*%
X143500000Y-97550000D03*
%TO.P,C5,2*%
%TO.N,+5V*%
X143500000Y-99450000D03*
%TD*%
D13*
%TO.P,R4,1*%
%TO.N,Net-(C3-Pad2)*%
X143500000Y-93987500D03*
%TO.P,R4,2*%
%TO.N,Net-(C4-Pad2)*%
X143500000Y-95812500D03*
%TD*%
D16*
%TO.P,C8,1*%
%TO.N,GND*%
X144275000Y-104850000D03*
%TO.P,C8,2*%
%TO.N,+5V*%
X147225000Y-104850000D03*
%TD*%
D10*
%TO.P,TP5,1,1*%
%TO.N,GND*%
X125000000Y-106400000D03*
%TD*%
D15*
%TO.P,C10,1*%
%TO.N,+5V*%
X148500000Y-106900000D03*
%TO.P,C10,2*%
%TO.N,GND*%
X148500000Y-108800000D03*
%TD*%
D17*
%TO.P,H1,1,1*%
%TO.N,GND*%
X125000000Y-67000000D03*
%TD*%
%TO.P,H3,1,1*%
%TO.N,GND*%
X125000000Y-114000000D03*
%TD*%
D10*
%TO.P,TP4,1,1*%
%TO.N,Net-(C4-Pad1)*%
X141750000Y-88950000D03*
%TD*%
D13*
%TO.P,R1,1*%
%TO.N,Net-(D1-Pad2)*%
X137050000Y-84687500D03*
%TO.P,R1,2*%
%TO.N,GND*%
X137050000Y-86512500D03*
%TD*%
D10*
%TO.P,TP3,1,1*%
%TO.N,GND*%
X172000000Y-74600000D03*
%TD*%
D18*
%TO.P,D2,1,K*%
%TO.N,Net-(C3-Pad2)*%
X154200000Y-93900000D03*
%TO.P,D2,2,A*%
%TO.N,GND*%
X154200000Y-89900000D03*
%TD*%
D19*
%TO.P,J2,1,VBUS*%
%TO.N,+5V*%
X163030000Y-94000000D03*
D20*
%TO.P,J2,2,D-*%
%TO.N,Net-(J2-Pad2)*%
X163030000Y-91500000D03*
%TO.P,J2,3,D+*%
X163030000Y-89500000D03*
%TO.P,J2,4,GND*%
%TO.N,GND*%
X163030000Y-87000000D03*
D21*
%TO.P,J2,5,Shield*%
X165740000Y-97070000D03*
X165740000Y-83930000D03*
%TD*%
D13*
%TO.P,R2,1*%
%TO.N,/VM*%
X152300000Y-81737500D03*
%TO.P,R2,2*%
%TO.N,Net-(R2-Pad2)*%
X152300000Y-83562500D03*
%TD*%
%TO.P,R3,1*%
%TO.N,Net-(R2-Pad2)*%
X152300000Y-85187500D03*
%TO.P,R3,2*%
%TO.N,GND*%
X152300000Y-87012500D03*
%TD*%
D10*
%TO.P,TP7,1,1*%
%TO.N,+5V*%
X156200000Y-107000000D03*
%TD*%
D16*
%TO.P,C1,1*%
%TO.N,GND*%
X146325000Y-81700000D03*
%TO.P,C1,2*%
%TO.N,/VM*%
X149275000Y-81700000D03*
%TD*%
%TO.P,C6,1*%
%TO.N,GND*%
X144275000Y-102350000D03*
%TO.P,C6,2*%
%TO.N,+5V*%
X147225000Y-102350000D03*
%TD*%
D22*
%TO.P,R5,1*%
%TO.N,Net-(C4-Pad1)*%
X143062500Y-91850000D03*
%TO.P,R5,2*%
%TO.N,+5V*%
X141237500Y-91850000D03*
%TD*%
D15*
%TO.P,C4,1*%
%TO.N,Net-(C4-Pad1)*%
X141450000Y-93950000D03*
%TO.P,C4,2*%
%TO.N,Net-(C4-Pad2)*%
X141450000Y-95850000D03*
%TD*%
D23*
%TO.P,R7,1*%
%TO.N,GND*%
X153150000Y-71800000D03*
%TO.P,R7,2*%
%TO.N,Net-(D3-Pad1)*%
X154975000Y-71800000D03*
%TD*%
D17*
%TO.P,H4,1,1*%
%TO.N,GND*%
X172000000Y-114000000D03*
%TD*%
%TO.P,H2,1,1*%
%TO.N,GND*%
X172000000Y-67000000D03*
%TD*%
D24*
%TO.P,L1,1,1*%
%TO.N,Net-(C3-Pad2)*%
X148500000Y-93950000D03*
%TO.P,L1,2,2*%
%TO.N,+5V*%
X148500000Y-99650000D03*
%TD*%
D25*
%TO.P,C2,1*%
%TO.N,GND*%
X142300000Y-81675000D03*
%TO.P,C2,2*%
%TO.N,/VM*%
X142300000Y-78725000D03*
%TD*%
D26*
%TO.P,U1,1,EN*%
%TO.N,Net-(R2-Pad2)*%
X150380000Y-84350000D03*
%TO.P,U1,2,VIN*%
%TO.N,/VM*%
X149110000Y-84350000D03*
%TO.P,U1,3,GND*%
%TO.N,GND*%
X147840000Y-84350000D03*
%TO.P,U1,4,GND*%
X146570000Y-84350000D03*
%TO.P,U1,5,FB*%
%TO.N,Net-(C4-Pad1)*%
X146570000Y-89650000D03*
%TO.P,U1,6,NC*%
%TO.N,unconnected-(U1-Pad6)*%
X147840000Y-89650000D03*
%TO.P,U1,7,BOOT*%
%TO.N,Net-(C3-Pad1)*%
X149110000Y-89650000D03*
%TO.P,U1,8,SW*%
%TO.N,Net-(C3-Pad2)*%
X150380000Y-89650000D03*
D27*
%TO.P,U1,9,EP*%
%TO.N,GND*%
X148475000Y-86045000D03*
X147175000Y-86045000D03*
X148475000Y-87955000D03*
X147175000Y-87955000D03*
D28*
X148475000Y-87000000D03*
D27*
X149775000Y-87955000D03*
X149775000Y-86045000D03*
%TD*%
D29*
%TO.P,J1,1,Pin_1*%
%TO.N,Net-(J1-Pad1)*%
X130780000Y-87960000D03*
D30*
%TO.P,J1,2,Pin_2*%
%TO.N,GND*%
X130780000Y-93040000D03*
%TD*%
D31*
%TO.P,Q1,1,G*%
%TO.N,Net-(D1-Pad2)*%
X137075000Y-82355000D03*
D32*
%TO.P,Q1,2,D*%
%TO.N,Net-(J1-Pad1)*%
X130775000Y-80075000D03*
D31*
%TO.P,Q1,3,S*%
%TO.N,/VM*%
X137075000Y-77795000D03*
%TD*%
D10*
%TO.P,TP6,1,1*%
%TO.N,GND*%
X172000000Y-106400000D03*
%TD*%
D12*
%TO.P,C7,1*%
%TO.N,GND*%
X152725000Y-102350000D03*
%TO.P,C7,2*%
%TO.N,+5V*%
X149775000Y-102350000D03*
%TD*%
D33*
%TO.P,D1,1,K*%
%TO.N,/VM*%
X139650000Y-78450000D03*
%TO.P,D1,2,A*%
%TO.N,Net-(D1-Pad2)*%
X139650000Y-81950000D03*
%TD*%
D34*
%TO.N,GND*%
X137050000Y-87740000D03*
X151900000Y-71800000D03*
X144639000Y-81675000D03*
X155200000Y-102350000D03*
X155200000Y-104850000D03*
X141900000Y-104850000D03*
X154100000Y-104850000D03*
X148500000Y-110050000D03*
X144780000Y-86614000D03*
X154100000Y-102350000D03*
X145250000Y-84200000D03*
X151892000Y-88138000D03*
X154178000Y-88138000D03*
X142950000Y-104850000D03*
X152146000Y-89916000D03*
X141900000Y-102350000D03*
X142950000Y-102350000D03*
%TD*%
D35*
%TO.N,GND*%
X152725000Y-102350000D02*
X154100000Y-102350000D01*
X142300000Y-81675000D02*
X144639000Y-81675000D01*
X154100000Y-104850000D02*
X155200000Y-104850000D01*
D36*
X154200000Y-89900000D02*
X152162000Y-89900000D01*
X144650000Y-86744000D02*
X144780000Y-86614000D01*
X147840000Y-83215000D02*
X146325000Y-81700000D01*
X154200000Y-89900000D02*
X154200000Y-88160000D01*
X152300000Y-87012500D02*
X152300000Y-87730000D01*
D35*
X144275000Y-102350000D02*
X142950000Y-102350000D01*
X153150000Y-71800000D02*
X151900000Y-71800000D01*
D36*
X152300000Y-87730000D02*
X151892000Y-88138000D01*
D35*
X133782000Y-93040000D02*
X130780000Y-93040000D01*
D36*
X154200000Y-88160000D02*
X154178000Y-88138000D01*
D35*
X148500000Y-108800000D02*
X148500000Y-110050000D01*
X144639000Y-81675000D02*
X146300000Y-81675000D01*
X142950000Y-102350000D02*
X141900000Y-102350000D01*
D36*
X147840000Y-84350000D02*
X147840000Y-83215000D01*
D35*
X146300000Y-81675000D02*
X146325000Y-81700000D01*
D36*
X144650000Y-87837500D02*
X144650000Y-86744000D01*
D35*
X144275000Y-104850000D02*
X142950000Y-104850000D01*
X152725000Y-104850000D02*
X154100000Y-104850000D01*
D36*
X146570000Y-81945000D02*
X146325000Y-81700000D01*
X152162000Y-89900000D02*
X152146000Y-89916000D01*
X146570000Y-84350000D02*
X146570000Y-81945000D01*
D35*
X137050000Y-86512500D02*
X137050000Y-87740000D01*
X142950000Y-104850000D02*
X141900000Y-104850000D01*
X137050000Y-89772000D02*
X133782000Y-93040000D01*
X137050000Y-87740000D02*
X137050000Y-89772000D01*
X154100000Y-102350000D02*
X155200000Y-102350000D01*
D36*
%TO.N,/VM*%
X152300000Y-81737500D02*
X149312500Y-81737500D01*
D35*
X137075000Y-74325000D02*
X137100000Y-74300000D01*
X149098000Y-81523000D02*
X149275000Y-81700000D01*
X142300000Y-78725000D02*
X147559000Y-78725000D01*
X139650000Y-78450000D02*
X142025000Y-78450000D01*
X137075000Y-77795000D02*
X138995000Y-77795000D01*
X147559000Y-78725000D02*
X149098000Y-80264000D01*
X142025000Y-78450000D02*
X142300000Y-78725000D01*
X137075000Y-77795000D02*
X137075000Y-74325000D01*
X149098000Y-80264000D02*
X149098000Y-81523000D01*
D36*
X149110000Y-81865000D02*
X149275000Y-81700000D01*
D35*
X138995000Y-77795000D02*
X139650000Y-78450000D01*
D36*
X149110000Y-84350000D02*
X149110000Y-81865000D01*
X149312500Y-81737500D02*
X149275000Y-81700000D01*
%TO.N,Net-(C3-Pad1)*%
X149110000Y-91490000D02*
X148800000Y-91800000D01*
X149110000Y-89650000D02*
X149110000Y-91490000D01*
%TO.N,Net-(C3-Pad2)*%
X150380000Y-89650000D02*
X150380000Y-91480000D01*
D35*
X150700000Y-91800000D02*
X150700000Y-93950000D01*
D37*
X148500000Y-93950000D02*
X150700000Y-93950000D01*
X150700000Y-93950000D02*
X154150000Y-93950000D01*
D36*
X150380000Y-91480000D02*
X150700000Y-91800000D01*
X148500000Y-93950000D02*
X143537500Y-93950000D01*
D37*
X154150000Y-93950000D02*
X154200000Y-93900000D01*
D36*
X143537500Y-93950000D02*
X143500000Y-93987500D01*
%TO.N,Net-(C4-Pad1)*%
X146570000Y-89650000D02*
X144662500Y-89650000D01*
X143062500Y-92337500D02*
X141450000Y-93950000D01*
X143062500Y-91250000D02*
X144650000Y-89662500D01*
X143062500Y-91850000D02*
X143062500Y-92337500D01*
X144662500Y-89650000D02*
X144650000Y-89662500D01*
D38*
X141750000Y-90537500D02*
X143062500Y-91850000D01*
D36*
X143062500Y-91850000D02*
X143062500Y-91250000D01*
D38*
X141750000Y-88950000D02*
X141750000Y-90537500D01*
D36*
%TO.N,Net-(C4-Pad2)*%
X143500000Y-95812500D02*
X141487500Y-95812500D01*
X143500000Y-95812500D02*
X143500000Y-97550000D01*
X141487500Y-95812500D02*
X141450000Y-95850000D01*
%TO.N,+5V*%
X142450000Y-99300000D02*
X143350000Y-99300000D01*
X140200000Y-97050000D02*
X142450000Y-99300000D01*
D37*
X161750000Y-95450000D02*
X163030000Y-94170000D01*
X163030000Y-94170000D02*
X163030000Y-94000000D01*
D36*
X140600000Y-91850000D02*
X140200000Y-92250000D01*
X140200000Y-92250000D02*
X140200000Y-97050000D01*
X147225000Y-101575000D02*
X147225000Y-102350000D01*
D35*
X162100000Y-94000000D02*
X163030000Y-94000000D01*
X149800000Y-106050000D02*
X149800000Y-104875000D01*
D36*
X141237500Y-91850000D02*
X140600000Y-91850000D01*
D35*
X158687500Y-71800000D02*
X158687500Y-90587500D01*
X150750000Y-107000000D02*
X149800000Y-106050000D01*
D36*
X143350000Y-99300000D02*
X143500000Y-99450000D01*
X146550000Y-100900000D02*
X147225000Y-101575000D01*
X143500000Y-99450000D02*
X144950000Y-100900000D01*
D37*
X156200000Y-107000000D02*
X161750000Y-101450000D01*
D36*
X144950000Y-100900000D02*
X146550000Y-100900000D01*
D37*
X161750000Y-101450000D02*
X161750000Y-95450000D01*
D35*
X156200000Y-107000000D02*
X150750000Y-107000000D01*
X158687500Y-90587500D02*
X162100000Y-94000000D01*
X149800000Y-104875000D02*
X149775000Y-104850000D01*
%TO.N,Net-(D1-Pad2)*%
X137075000Y-84662500D02*
X137050000Y-84687500D01*
X137075000Y-82355000D02*
X139245000Y-82355000D01*
X137075000Y-82355000D02*
X137075000Y-84662500D01*
X139245000Y-82355000D02*
X139650000Y-81950000D01*
%TO.N,Net-(D3-Pad1)*%
X156812500Y-71800000D02*
X154975000Y-71800000D01*
D37*
%TO.N,Net-(J1-Pad1)*%
X130780000Y-87960000D02*
X130780000Y-80080000D01*
X130780000Y-80080000D02*
X130775000Y-80075000D01*
D35*
%TO.N,Net-(J2-Pad2)*%
X163030000Y-89500000D02*
X163030000Y-91500000D01*
D36*
%TO.N,Net-(R2-Pad2)*%
X152300000Y-83562500D02*
X152300000Y-85187500D01*
X152300000Y-83562500D02*
X151167500Y-83562500D01*
X151167500Y-83562500D02*
X150380000Y-84350000D01*
%TD*%
%TA.AperFunction,Conductor*%
%TO.N,GND*%
G36*
X148509500Y-85053834D02*
G01*
X148512481Y-85085369D01*
X148557366Y-85213184D01*
X148562958Y-85220754D01*
X148562959Y-85220757D01*
X148576351Y-85238888D01*
X148637850Y-85322150D01*
X148645421Y-85327742D01*
X148739243Y-85397041D01*
X148739246Y-85397042D01*
X148746816Y-85402634D01*
X148874631Y-85447519D01*
X148882277Y-85448242D01*
X148882278Y-85448242D01*
X148888248Y-85448806D01*
X148906166Y-85450500D01*
X149313834Y-85450500D01*
X149331752Y-85448806D01*
X149337722Y-85448242D01*
X149337723Y-85448242D01*
X149345369Y-85447519D01*
X149473184Y-85402634D01*
X149480754Y-85397042D01*
X149480757Y-85397041D01*
X149574579Y-85327742D01*
X149582150Y-85322150D01*
X149587742Y-85314579D01*
X149587745Y-85314576D01*
X149643649Y-85238888D01*
X149700210Y-85195977D01*
X149770992Y-85190457D01*
X149833521Y-85224081D01*
X149846351Y-85238888D01*
X149902255Y-85314576D01*
X149902258Y-85314579D01*
X149907850Y-85322150D01*
X149915421Y-85327742D01*
X150009243Y-85397041D01*
X150009246Y-85397042D01*
X150016816Y-85402634D01*
X150144631Y-85447519D01*
X150152277Y-85448242D01*
X150152278Y-85448242D01*
X150158248Y-85448806D01*
X150176166Y-85450500D01*
X150583834Y-85450500D01*
X150601752Y-85448806D01*
X150607722Y-85448242D01*
X150607723Y-85448242D01*
X150615369Y-85447519D01*
X150743184Y-85402634D01*
X150750754Y-85397042D01*
X150750757Y-85397041D01*
X150844579Y-85327742D01*
X150852150Y-85322150D01*
X150913649Y-85238888D01*
X150927041Y-85220757D01*
X150927042Y-85220754D01*
X150932634Y-85213184D01*
X150950000Y-85163732D01*
X150950000Y-88836268D01*
X150940615Y-88809543D01*
X150932634Y-88786816D01*
X150927042Y-88779246D01*
X150927041Y-88779243D01*
X150857742Y-88685421D01*
X150852150Y-88677850D01*
X150835206Y-88665335D01*
X150750757Y-88602959D01*
X150750754Y-88602958D01*
X150743184Y-88597366D01*
X150615369Y-88552481D01*
X150607723Y-88551758D01*
X150607722Y-88551758D01*
X150601752Y-88551194D01*
X150583834Y-88549500D01*
X150176166Y-88549500D01*
X150158248Y-88551194D01*
X150152278Y-88551758D01*
X150152277Y-88551758D01*
X150144631Y-88552481D01*
X150016816Y-88597366D01*
X150009246Y-88602958D01*
X150009243Y-88602959D01*
X149924794Y-88665335D01*
X149907850Y-88677850D01*
X149902258Y-88685421D01*
X149902255Y-88685424D01*
X149846351Y-88761112D01*
X149789790Y-88804023D01*
X149719008Y-88809543D01*
X149656479Y-88775919D01*
X149643649Y-88761112D01*
X149587745Y-88685424D01*
X149587742Y-88685421D01*
X149582150Y-88677850D01*
X149565206Y-88665335D01*
X149480757Y-88602959D01*
X149480754Y-88602958D01*
X149473184Y-88597366D01*
X149345369Y-88552481D01*
X149337723Y-88551758D01*
X149337722Y-88551758D01*
X149331752Y-88551194D01*
X149313834Y-88549500D01*
X148906166Y-88549500D01*
X148888248Y-88551194D01*
X148882278Y-88551758D01*
X148882277Y-88551758D01*
X148874631Y-88552481D01*
X148746816Y-88597366D01*
X148739246Y-88602958D01*
X148739243Y-88602959D01*
X148654794Y-88665335D01*
X148637850Y-88677850D01*
X148632258Y-88685421D01*
X148632255Y-88685424D01*
X148576351Y-88761112D01*
X148519790Y-88804023D01*
X148449008Y-88809543D01*
X148386479Y-88775919D01*
X148373649Y-88761112D01*
X148317745Y-88685424D01*
X148317742Y-88685421D01*
X148312150Y-88677850D01*
X148295206Y-88665335D01*
X148210757Y-88602959D01*
X148210754Y-88602958D01*
X148203184Y-88597366D01*
X148075369Y-88552481D01*
X148067723Y-88551758D01*
X148067722Y-88551758D01*
X148061752Y-88551194D01*
X148043834Y-88549500D01*
X147636166Y-88549500D01*
X147618248Y-88551194D01*
X147612278Y-88551758D01*
X147612277Y-88551758D01*
X147604631Y-88552481D01*
X147476816Y-88597366D01*
X147469246Y-88602958D01*
X147469243Y-88602959D01*
X147384794Y-88665335D01*
X147367850Y-88677850D01*
X147362258Y-88685421D01*
X147362255Y-88685424D01*
X147306351Y-88761112D01*
X147249790Y-88804023D01*
X147179008Y-88809543D01*
X147116479Y-88775919D01*
X147103649Y-88761112D01*
X147047745Y-88685424D01*
X147047742Y-88685421D01*
X147042150Y-88677850D01*
X147025206Y-88665335D01*
X146940757Y-88602959D01*
X146940754Y-88602958D01*
X146933184Y-88597366D01*
X146805369Y-88552481D01*
X146797723Y-88551758D01*
X146797722Y-88551758D01*
X146791752Y-88551194D01*
X146773834Y-88549500D01*
X146366166Y-88549500D01*
X146348248Y-88551194D01*
X146342278Y-88551758D01*
X146342277Y-88551758D01*
X146334631Y-88552481D01*
X146206816Y-88597366D01*
X146199246Y-88602958D01*
X146199243Y-88602959D01*
X146114794Y-88665335D01*
X146097850Y-88677850D01*
X146092258Y-88685421D01*
X146022959Y-88779243D01*
X146022958Y-88779246D01*
X146017366Y-88786816D01*
X145972481Y-88914631D01*
X145969500Y-88946166D01*
X145969500Y-89000000D01*
X145950000Y-89000000D01*
X145950000Y-85000000D01*
X148509500Y-85000000D01*
X148509500Y-85053834D01*
G37*
%TD.AperFunction*%
%TD*%
%TA.AperFunction,Conductor*%
%TO.N,GND*%
G36*
X170678905Y-63320502D02*
G01*
X170725398Y-63374158D01*
X170735502Y-63444432D01*
X170706008Y-63509012D01*
X170655938Y-63544131D01*
X170492836Y-63606740D01*
X170486811Y-63609422D01*
X170146397Y-63782872D01*
X170140687Y-63786169D01*
X169820268Y-63994251D01*
X169814938Y-63998123D01*
X169612111Y-64162369D01*
X169603645Y-64174624D01*
X169609979Y-64185715D01*
X174813419Y-69389155D01*
X174826495Y-69396295D01*
X174836863Y-69388837D01*
X175001877Y-69185062D01*
X175005749Y-69179732D01*
X175213831Y-68859313D01*
X175217128Y-68853603D01*
X175390578Y-68513189D01*
X175393260Y-68507164D01*
X175455869Y-68344062D01*
X175498955Y-68287634D01*
X175565708Y-68263457D01*
X175634935Y-68279208D01*
X175684657Y-68329886D01*
X175699500Y-68389216D01*
X175699500Y-112610784D01*
X175679498Y-112678905D01*
X175625842Y-112725398D01*
X175555568Y-112735502D01*
X175490988Y-112706008D01*
X175455869Y-112655938D01*
X175393260Y-112492836D01*
X175390578Y-112486811D01*
X175217128Y-112146397D01*
X175213831Y-112140687D01*
X175005749Y-111820268D01*
X175001877Y-111814938D01*
X174837631Y-111612111D01*
X174825376Y-111603645D01*
X174814285Y-111609979D01*
X169610845Y-116813419D01*
X169603705Y-116826495D01*
X169611163Y-116836863D01*
X169814943Y-117001880D01*
X169820265Y-117005747D01*
X170140685Y-117213830D01*
X170146394Y-117217127D01*
X170486811Y-117390578D01*
X170492836Y-117393260D01*
X170655938Y-117455869D01*
X170712366Y-117498955D01*
X170736543Y-117565708D01*
X170720792Y-117634935D01*
X170670114Y-117684657D01*
X170610784Y-117699500D01*
X126389216Y-117699500D01*
X126321095Y-117679498D01*
X126274602Y-117625842D01*
X126264498Y-117555568D01*
X126293992Y-117490988D01*
X126344062Y-117455869D01*
X126507164Y-117393260D01*
X126513189Y-117390578D01*
X126853606Y-117217127D01*
X126859315Y-117213830D01*
X127179735Y-117005747D01*
X127185057Y-117001880D01*
X127387889Y-116837631D01*
X127396355Y-116825376D01*
X127390021Y-116814285D01*
X124576868Y-114001132D01*
X125429462Y-114001132D01*
X125429593Y-114002965D01*
X125433844Y-114009580D01*
X127813419Y-116389155D01*
X127826495Y-116396295D01*
X127836863Y-116388837D01*
X128001877Y-116185062D01*
X128005749Y-116179732D01*
X128213831Y-115859313D01*
X128217128Y-115853603D01*
X128390578Y-115513189D01*
X128393260Y-115507164D01*
X128530171Y-115150498D01*
X128532212Y-115144216D01*
X128631094Y-114775184D01*
X128632465Y-114768734D01*
X128692234Y-114391371D01*
X128692920Y-114384833D01*
X128712916Y-114003301D01*
X168287084Y-114003301D01*
X168307080Y-114384833D01*
X168307766Y-114391371D01*
X168367535Y-114768734D01*
X168368906Y-114775184D01*
X168467788Y-115144216D01*
X168469829Y-115150498D01*
X168606740Y-115507164D01*
X168609422Y-115513189D01*
X168782872Y-115853603D01*
X168786169Y-115859313D01*
X168994251Y-116179732D01*
X168998123Y-116185062D01*
X169162369Y-116387889D01*
X169174624Y-116396355D01*
X169185715Y-116390021D01*
X171562924Y-114012812D01*
X171570538Y-113998868D01*
X171570407Y-113997035D01*
X171566156Y-113990420D01*
X169186581Y-111610845D01*
X169173505Y-111603705D01*
X169163137Y-111611163D01*
X168998123Y-111814938D01*
X168994251Y-111820268D01*
X168786169Y-112140687D01*
X168782872Y-112146397D01*
X168609422Y-112486811D01*
X168606740Y-112492836D01*
X168469829Y-112849502D01*
X168467788Y-112855784D01*
X168368906Y-113224816D01*
X168367535Y-113231266D01*
X168307766Y-113608629D01*
X168307080Y-113615167D01*
X168287084Y-113996699D01*
X168287084Y-114003301D01*
X128712916Y-114003301D01*
X128712916Y-113996699D01*
X128692920Y-113615167D01*
X128692234Y-113608629D01*
X128632465Y-113231266D01*
X128631094Y-113224816D01*
X128532212Y-112855784D01*
X128530171Y-112849502D01*
X128393260Y-112492836D01*
X128390578Y-112486811D01*
X128217128Y-112146397D01*
X128213831Y-112140687D01*
X128005749Y-111820268D01*
X128001877Y-111814938D01*
X127837631Y-111612111D01*
X127825376Y-111603645D01*
X127814285Y-111609979D01*
X125437076Y-113987188D01*
X125429462Y-114001132D01*
X124576868Y-114001132D01*
X122186581Y-111610845D01*
X122173505Y-111603705D01*
X122163137Y-111611163D01*
X121998123Y-111814938D01*
X121994251Y-111820268D01*
X121786169Y-112140687D01*
X121782872Y-112146397D01*
X121609422Y-112486811D01*
X121606740Y-112492836D01*
X121544131Y-112655938D01*
X121501045Y-112712366D01*
X121434292Y-112736543D01*
X121365065Y-112720792D01*
X121315343Y-112670114D01*
X121300500Y-112610784D01*
X121300500Y-111174624D01*
X122603645Y-111174624D01*
X122609979Y-111185715D01*
X124987188Y-113562924D01*
X125001132Y-113570538D01*
X125002965Y-113570407D01*
X125009580Y-113566156D01*
X127389155Y-111186581D01*
X127395684Y-111174624D01*
X169603645Y-111174624D01*
X169609979Y-111185715D01*
X171987188Y-113562924D01*
X172001132Y-113570538D01*
X172002965Y-113570407D01*
X172009580Y-113566156D01*
X174389155Y-111186581D01*
X174396295Y-111173505D01*
X174388837Y-111163137D01*
X174185057Y-110998120D01*
X174179735Y-110994253D01*
X173859315Y-110786170D01*
X173853606Y-110782873D01*
X173513189Y-110609422D01*
X173507164Y-110606740D01*
X173150498Y-110469829D01*
X173144216Y-110467788D01*
X172775184Y-110368906D01*
X172768734Y-110367535D01*
X172391371Y-110307766D01*
X172384833Y-110307080D01*
X172003301Y-110287084D01*
X171996699Y-110287084D01*
X171615167Y-110307080D01*
X171608629Y-110307766D01*
X171231266Y-110367535D01*
X171224816Y-110368906D01*
X170855784Y-110467788D01*
X170849502Y-110469829D01*
X170492836Y-110606740D01*
X170486811Y-110609422D01*
X170146397Y-110782872D01*
X170140687Y-110786169D01*
X169820268Y-110994251D01*
X169814938Y-110998123D01*
X169612111Y-111162369D01*
X169603645Y-111174624D01*
X127395684Y-111174624D01*
X127396295Y-111173505D01*
X127388837Y-111163137D01*
X127185057Y-110998120D01*
X127179735Y-110994253D01*
X126859315Y-110786170D01*
X126853606Y-110782873D01*
X126513189Y-110609422D01*
X126507164Y-110606740D01*
X126150498Y-110469829D01*
X126144216Y-110467788D01*
X125775184Y-110368906D01*
X125768734Y-110367535D01*
X125391371Y-110307766D01*
X125384833Y-110307080D01*
X125003301Y-110287084D01*
X124996699Y-110287084D01*
X124615167Y-110307080D01*
X124608629Y-110307766D01*
X124231266Y-110367535D01*
X124224816Y-110368906D01*
X123855784Y-110467788D01*
X123849502Y-110469829D01*
X123492836Y-110606740D01*
X123486811Y-110609422D01*
X123146397Y-110782872D01*
X123140687Y-110786169D01*
X122820268Y-110994251D01*
X122814938Y-110998123D01*
X122612111Y-111162369D01*
X122603645Y-111174624D01*
X121300500Y-111174624D01*
X121300500Y-107657388D01*
X124172496Y-107657388D01*
X124178223Y-107665038D01*
X124309042Y-107745205D01*
X124317837Y-107749687D01*
X124527988Y-107836734D01*
X124537373Y-107839783D01*
X124758554Y-107892885D01*
X124768301Y-107894428D01*
X124995070Y-107912275D01*
X125004930Y-107912275D01*
X125231699Y-107894428D01*
X125241446Y-107892885D01*
X125462627Y-107839783D01*
X125472012Y-107836734D01*
X125682163Y-107749687D01*
X125690958Y-107745205D01*
X125818110Y-107667285D01*
X125827570Y-107656829D01*
X125823786Y-107648050D01*
X125012812Y-106837076D01*
X124998868Y-106829462D01*
X124997035Y-106829593D01*
X124990420Y-106833844D01*
X124179256Y-107645008D01*
X124172496Y-107657388D01*
X121300500Y-107657388D01*
X121300500Y-106404930D01*
X123487725Y-106404930D01*
X123505572Y-106631699D01*
X123507115Y-106641446D01*
X123560217Y-106862627D01*
X123563266Y-106872012D01*
X123650313Y-107082163D01*
X123654795Y-107090958D01*
X123732715Y-107218110D01*
X123743171Y-107227570D01*
X123751950Y-107223786D01*
X124562924Y-106412812D01*
X124569302Y-106401132D01*
X125429462Y-106401132D01*
X125429593Y-106402965D01*
X125433844Y-106409580D01*
X126245008Y-107220744D01*
X126257388Y-107227504D01*
X126265038Y-107221777D01*
X126345205Y-107090958D01*
X126349687Y-107082163D01*
X126436734Y-106872012D01*
X126439783Y-106862627D01*
X126492885Y-106641446D01*
X126494428Y-106631699D01*
X126512275Y-106404930D01*
X126512275Y-106395070D01*
X126494428Y-106168301D01*
X126492885Y-106158554D01*
X126439783Y-105937373D01*
X126436734Y-105927988D01*
X126349687Y-105717837D01*
X126345205Y-105709042D01*
X126267285Y-105581890D01*
X126256829Y-105572430D01*
X126248050Y-105576214D01*
X125437076Y-106387188D01*
X125429462Y-106401132D01*
X124569302Y-106401132D01*
X124570538Y-106398868D01*
X124570407Y-106397035D01*
X124566156Y-106390420D01*
X123754992Y-105579256D01*
X123742612Y-105572496D01*
X123734962Y-105578223D01*
X123654795Y-105709042D01*
X123650313Y-105717837D01*
X123563266Y-105927988D01*
X123560217Y-105937373D01*
X123507115Y-106158554D01*
X123505572Y-106168301D01*
X123487725Y-106395070D01*
X123487725Y-106404930D01*
X121300500Y-106404930D01*
X121300500Y-105143171D01*
X124172430Y-105143171D01*
X124176214Y-105151950D01*
X124987188Y-105962924D01*
X125001132Y-105970538D01*
X125002965Y-105970407D01*
X125009580Y-105966156D01*
X125820744Y-105154992D01*
X125827504Y-105142612D01*
X125821777Y-105134962D01*
X125690958Y-105054795D01*
X125682163Y-105050313D01*
X125472012Y-104963266D01*
X125462627Y-104960217D01*
X125241446Y-104907115D01*
X125231699Y-104905572D01*
X125004930Y-104887725D01*
X124995070Y-104887725D01*
X124768301Y-104905572D01*
X124758554Y-104907115D01*
X124537373Y-104960217D01*
X124527988Y-104963266D01*
X124317837Y-105050313D01*
X124309042Y-105054795D01*
X124181890Y-105132715D01*
X124172430Y-105143171D01*
X121300500Y-105143171D01*
X121300500Y-93351242D01*
X128499254Y-93351242D01*
X128562989Y-93576476D01*
X128566503Y-93585927D01*
X128667506Y-93802528D01*
X128672485Y-93811292D01*
X128806814Y-94008951D01*
X128813138Y-94016815D01*
X128977336Y-94190451D01*
X128984843Y-94197210D01*
X129174688Y-94342357D01*
X129183167Y-94347821D01*
X129393783Y-94460752D01*
X129403029Y-94464792D01*
X129628987Y-94542596D01*
X129638768Y-94545107D01*
X129875334Y-94585969D01*
X129883206Y-94586824D01*
X129907685Y-94587936D01*
X129910518Y-94588000D01*
X130461885Y-94588000D01*
X130477124Y-94583525D01*
X130478329Y-94582135D01*
X130480000Y-94574452D01*
X130480000Y-94569885D01*
X131080000Y-94569885D01*
X131084475Y-94585124D01*
X131085865Y-94586329D01*
X131093548Y-94588000D01*
X131600072Y-94588000D01*
X131605104Y-94587798D01*
X131783259Y-94573464D01*
X131793212Y-94571852D01*
X132025300Y-94514846D01*
X132034870Y-94511663D01*
X132254860Y-94418282D01*
X132263799Y-94413608D01*
X132466024Y-94286261D01*
X132474099Y-94280220D01*
X132653368Y-94122173D01*
X132660371Y-94114921D01*
X132812062Y-93930250D01*
X132817818Y-93921967D01*
X132938031Y-93715421D01*
X132942393Y-93706316D01*
X133028034Y-93483215D01*
X133030885Y-93473526D01*
X133055075Y-93357736D01*
X133053952Y-93343675D01*
X133043844Y-93340000D01*
X131098115Y-93340000D01*
X131082876Y-93344475D01*
X131081671Y-93345865D01*
X131080000Y-93353548D01*
X131080000Y-94569885D01*
X130480000Y-94569885D01*
X130480000Y-93358115D01*
X130475525Y-93342876D01*
X130474135Y-93341671D01*
X130466452Y-93340000D01*
X128514465Y-93340000D01*
X128500377Y-93344137D01*
X128499254Y-93351242D01*
X121300500Y-93351242D01*
X121300500Y-92722264D01*
X128504925Y-92722264D01*
X128506048Y-92736325D01*
X128516156Y-92740000D01*
X130461885Y-92740000D01*
X130477124Y-92735525D01*
X130478329Y-92734135D01*
X130480000Y-92726452D01*
X130480000Y-92721885D01*
X131080000Y-92721885D01*
X131084475Y-92737124D01*
X131085865Y-92738329D01*
X131093548Y-92740000D01*
X133045535Y-92740000D01*
X133059623Y-92735863D01*
X133060746Y-92728758D01*
X132997011Y-92503524D01*
X132993497Y-92494073D01*
X132892494Y-92277472D01*
X132887515Y-92268708D01*
X132753186Y-92071049D01*
X132746862Y-92063185D01*
X132582664Y-91889549D01*
X132575157Y-91882790D01*
X132385312Y-91737643D01*
X132376833Y-91732179D01*
X132166217Y-91619248D01*
X132156971Y-91615208D01*
X131931013Y-91537404D01*
X131921232Y-91534893D01*
X131684666Y-91494031D01*
X131676794Y-91493176D01*
X131652315Y-91492064D01*
X131649482Y-91492000D01*
X131098115Y-91492000D01*
X131082876Y-91496475D01*
X131081671Y-91497865D01*
X131080000Y-91505548D01*
X131080000Y-92721885D01*
X130480000Y-92721885D01*
X130480000Y-91510115D01*
X130475525Y-91494876D01*
X130474135Y-91493671D01*
X130466452Y-91492000D01*
X129959928Y-91492000D01*
X129954896Y-91492202D01*
X129776741Y-91506536D01*
X129766788Y-91508148D01*
X129534700Y-91565154D01*
X129525130Y-91568337D01*
X129305140Y-91661718D01*
X129296201Y-91666392D01*
X129093976Y-91793739D01*
X129085901Y-91799780D01*
X128906632Y-91957827D01*
X128899629Y-91965079D01*
X128747938Y-92149750D01*
X128742182Y-92158033D01*
X128621969Y-92364579D01*
X128617607Y-92373684D01*
X128531966Y-92596785D01*
X128529115Y-92606474D01*
X128504925Y-92722264D01*
X121300500Y-92722264D01*
X121300500Y-83019646D01*
X127274500Y-83019646D01*
X127277618Y-83045846D01*
X127281456Y-83054486D01*
X127281456Y-83054487D01*
X127318140Y-83137074D01*
X127323061Y-83148153D01*
X127331294Y-83156372D01*
X127331295Y-83156373D01*
X127346511Y-83171562D01*
X127402287Y-83227241D01*
X127412924Y-83231944D01*
X127412926Y-83231945D01*
X127465209Y-83255059D01*
X127504673Y-83272506D01*
X127530354Y-83275500D01*
X129653500Y-83275500D01*
X129721621Y-83295502D01*
X129768114Y-83349158D01*
X129779500Y-83401500D01*
X129779500Y-86493501D01*
X129759498Y-86561622D01*
X129705842Y-86608115D01*
X129653500Y-86619501D01*
X129187228Y-86619501D01*
X129183470Y-86619956D01*
X129183465Y-86619956D01*
X129106030Y-86629326D01*
X129097452Y-86630364D01*
X129089929Y-86633342D01*
X129089927Y-86633343D01*
X129037319Y-86654172D01*
X128957216Y-86685887D01*
X128837077Y-86777077D01*
X128745887Y-86897216D01*
X128742726Y-86905201D01*
X128700120Y-87012812D01*
X128690364Y-87037452D01*
X128679500Y-87127227D01*
X128679501Y-88792772D01*
X128679956Y-88796530D01*
X128679956Y-88796535D01*
X128686365Y-88849500D01*
X128690364Y-88882548D01*
X128693342Y-88890071D01*
X128693343Y-88890073D01*
X128702312Y-88912725D01*
X128745887Y-89022784D01*
X128837077Y-89142923D01*
X128957216Y-89234113D01*
X129022405Y-89259923D01*
X129089922Y-89286655D01*
X129089924Y-89286656D01*
X129097452Y-89289636D01*
X129187227Y-89300500D01*
X130778949Y-89300500D01*
X132372772Y-89300499D01*
X132376530Y-89300044D01*
X132376535Y-89300044D01*
X132454515Y-89290608D01*
X132462548Y-89289636D01*
X132470071Y-89286658D01*
X132470073Y-89286657D01*
X132537595Y-89259923D01*
X132602784Y-89234113D01*
X132722923Y-89142923D01*
X132814113Y-89022784D01*
X132863986Y-88896818D01*
X132866655Y-88890078D01*
X132866656Y-88890076D01*
X132869636Y-88882548D01*
X132880500Y-88792773D01*
X132880499Y-87127228D01*
X132880044Y-87123462D01*
X132870608Y-87045485D01*
X132869636Y-87037452D01*
X132859881Y-87012812D01*
X132817274Y-86905201D01*
X132814113Y-86897216D01*
X132722923Y-86777077D01*
X132602784Y-86685887D01*
X132520808Y-86653430D01*
X132470078Y-86633345D01*
X132470076Y-86633344D01*
X132462548Y-86630364D01*
X132372773Y-86619500D01*
X131906500Y-86619500D01*
X131838379Y-86599498D01*
X131791886Y-86545842D01*
X131780500Y-86493500D01*
X131780500Y-83401500D01*
X131800502Y-83333379D01*
X131854158Y-83286886D01*
X131906500Y-83275500D01*
X134019646Y-83275500D01*
X134023350Y-83275059D01*
X134023353Y-83275059D01*
X134033040Y-83273906D01*
X134045846Y-83272382D01*
X134058220Y-83266886D01*
X134137518Y-83231663D01*
X134148153Y-83226939D01*
X134163403Y-83211663D01*
X134199508Y-83175494D01*
X134227241Y-83147713D01*
X134232255Y-83136373D01*
X134262503Y-83067953D01*
X134272506Y-83045327D01*
X134275500Y-83019646D01*
X134275500Y-82999646D01*
X135674500Y-82999646D01*
X135677618Y-83025846D01*
X135681456Y-83034486D01*
X135681456Y-83034487D01*
X135708593Y-83095580D01*
X135723061Y-83128153D01*
X135731294Y-83136372D01*
X135731295Y-83136373D01*
X135742655Y-83147713D01*
X135802287Y-83207241D01*
X135812924Y-83211944D01*
X135812926Y-83211945D01*
X135872462Y-83238265D01*
X135904673Y-83252506D01*
X135930354Y-83255500D01*
X136148500Y-83255500D01*
X136216621Y-83275502D01*
X136263114Y-83329158D01*
X136274500Y-83381500D01*
X136274500Y-83918355D01*
X136254498Y-83986476D01*
X136224680Y-84018717D01*
X136207078Y-84032078D01*
X136115887Y-84152217D01*
X136060364Y-84292453D01*
X136049500Y-84382228D01*
X136049500Y-84992772D01*
X136060364Y-85082547D01*
X136063344Y-85090075D01*
X136063345Y-85090077D01*
X136090700Y-85159168D01*
X136115887Y-85222783D01*
X136207078Y-85342922D01*
X136327217Y-85434113D01*
X136368606Y-85450500D01*
X136459923Y-85486655D01*
X136459925Y-85486656D01*
X136467453Y-85489636D01*
X136557228Y-85500500D01*
X137542772Y-85500500D01*
X137632547Y-85489636D01*
X137640075Y-85486656D01*
X137640077Y-85486655D01*
X137731394Y-85450500D01*
X137772783Y-85434113D01*
X137892922Y-85342922D01*
X137984113Y-85222783D01*
X138009300Y-85159168D01*
X138036655Y-85090077D01*
X138036656Y-85090075D01*
X138039636Y-85082547D01*
X138050500Y-84992772D01*
X138050500Y-84382228D01*
X138039636Y-84292453D01*
X137984113Y-84152217D01*
X137978920Y-84145375D01*
X137978918Y-84145372D01*
X137901138Y-84042901D01*
X137875884Y-83976548D01*
X137875500Y-83966721D01*
X137875500Y-83381500D01*
X137895502Y-83313379D01*
X137949158Y-83266886D01*
X138001500Y-83255500D01*
X138219646Y-83255500D01*
X138223350Y-83255059D01*
X138223353Y-83255059D01*
X138230746Y-83254179D01*
X138245846Y-83252382D01*
X138258816Y-83246621D01*
X138337519Y-83211663D01*
X138337521Y-83211661D01*
X138348153Y-83206939D01*
X138362586Y-83192481D01*
X138424867Y-83158403D01*
X138451757Y-83155500D01*
X139235917Y-83155500D01*
X139237238Y-83155507D01*
X139326407Y-83156441D01*
X139368296Y-83147384D01*
X139380870Y-83145325D01*
X139395477Y-83143686D01*
X139416476Y-83141331D01*
X139416478Y-83141330D01*
X139423472Y-83140546D01*
X139454759Y-83129650D01*
X139469564Y-83125489D01*
X139495061Y-83119977D01*
X139495064Y-83119976D01*
X139501942Y-83118489D01*
X139540799Y-83100370D01*
X139552582Y-83095586D01*
X139593073Y-83081485D01*
X139621167Y-83063930D01*
X139634682Y-83056592D01*
X139664707Y-83042591D01*
X139675154Y-83034487D01*
X139698567Y-83016326D01*
X139709024Y-83009031D01*
X139739400Y-82990050D01*
X139739403Y-82990048D01*
X139745375Y-82986316D01*
X139773893Y-82957997D01*
X139774515Y-82957415D01*
X139775177Y-82956901D01*
X139794673Y-82937405D01*
X139856985Y-82903379D01*
X139883768Y-82900500D01*
X140544646Y-82900500D01*
X140548350Y-82900059D01*
X140548353Y-82900059D01*
X140555746Y-82899179D01*
X140570846Y-82897382D01*
X140582279Y-82892304D01*
X140662518Y-82856663D01*
X140673153Y-82851939D01*
X140687793Y-82837274D01*
X140712858Y-82812165D01*
X140752241Y-82772713D01*
X140768434Y-82736087D01*
X140793675Y-82678992D01*
X140797506Y-82670327D01*
X140800500Y-82644646D01*
X140800500Y-81255354D01*
X140797382Y-81229154D01*
X140751939Y-81126847D01*
X140720030Y-81094993D01*
X140680945Y-81055977D01*
X140672713Y-81047759D01*
X140662076Y-81043056D01*
X140662074Y-81043055D01*
X140581035Y-81007228D01*
X140570327Y-81002494D01*
X140544646Y-80999500D01*
X138755354Y-80999500D01*
X138751650Y-80999941D01*
X138751647Y-80999941D01*
X138744254Y-81000821D01*
X138729154Y-81002618D01*
X138720514Y-81006456D01*
X138720513Y-81006456D01*
X138638117Y-81043055D01*
X138626847Y-81048061D01*
X138618628Y-81056294D01*
X138618627Y-81056295D01*
X138598072Y-81076886D01*
X138547759Y-81127287D01*
X138502494Y-81229673D01*
X138499500Y-81255354D01*
X138499500Y-81376395D01*
X138479498Y-81444516D01*
X138425842Y-81491009D01*
X138355568Y-81501113D01*
X138322552Y-81491635D01*
X138253993Y-81461325D01*
X138253992Y-81461325D01*
X138245327Y-81457494D01*
X138219646Y-81454500D01*
X135930354Y-81454500D01*
X135926650Y-81454941D01*
X135926647Y-81454941D01*
X135919254Y-81455821D01*
X135904154Y-81457618D01*
X135895514Y-81461456D01*
X135895513Y-81461456D01*
X135812482Y-81498337D01*
X135801847Y-81503061D01*
X135722759Y-81582287D01*
X135718056Y-81592924D01*
X135718055Y-81592926D01*
X135709934Y-81611296D01*
X135677494Y-81684673D01*
X135674500Y-81710354D01*
X135674500Y-82999646D01*
X134275500Y-82999646D01*
X134275500Y-78439646D01*
X135674500Y-78439646D01*
X135677618Y-78465846D01*
X135723061Y-78568153D01*
X135802287Y-78647241D01*
X135812924Y-78651944D01*
X135812926Y-78651945D01*
X135872462Y-78678265D01*
X135904673Y-78692506D01*
X135930354Y-78695500D01*
X138219646Y-78695500D01*
X138223350Y-78695059D01*
X138223353Y-78695059D01*
X138230746Y-78694179D01*
X138245846Y-78692382D01*
X138322354Y-78658399D01*
X138392726Y-78649026D01*
X138456997Y-78679188D01*
X138494758Y-78739310D01*
X138499500Y-78773550D01*
X138499500Y-79144646D01*
X138502618Y-79170846D01*
X138548061Y-79273153D01*
X138627287Y-79352241D01*
X138637924Y-79356944D01*
X138637926Y-79356945D01*
X138697462Y-79383265D01*
X138729673Y-79397506D01*
X138755354Y-79400500D01*
X140544646Y-79400500D01*
X140548350Y-79400059D01*
X140548353Y-79400059D01*
X140555746Y-79399179D01*
X140570846Y-79397382D01*
X140673153Y-79351939D01*
X140702259Y-79322783D01*
X140737498Y-79287482D01*
X140799781Y-79253403D01*
X140826671Y-79250500D01*
X141052867Y-79250500D01*
X141120988Y-79270502D01*
X141162640Y-79314647D01*
X141162726Y-79314800D01*
X141165887Y-79322783D01*
X141257078Y-79442922D01*
X141377217Y-79534113D01*
X141405983Y-79545502D01*
X141509923Y-79586655D01*
X141509925Y-79586656D01*
X141517453Y-79589636D01*
X141607228Y-79600500D01*
X142992772Y-79600500D01*
X143082547Y-79589636D01*
X143090077Y-79586655D01*
X143151325Y-79562405D01*
X143222191Y-79534347D01*
X143268572Y-79525500D01*
X147175232Y-79525500D01*
X147243353Y-79545502D01*
X147264327Y-79562405D01*
X148260595Y-80558673D01*
X148294621Y-80620985D01*
X148297500Y-80647768D01*
X148297500Y-81513917D01*
X148297493Y-81515237D01*
X148296559Y-81604407D01*
X148305615Y-81646292D01*
X148307675Y-81658870D01*
X148312454Y-81701472D01*
X148323350Y-81732759D01*
X148327511Y-81747563D01*
X148334511Y-81779942D01*
X148352630Y-81818799D01*
X148357414Y-81830582D01*
X148371515Y-81871073D01*
X148375250Y-81877050D01*
X148380353Y-81885217D01*
X148399500Y-81951988D01*
X148399500Y-82392772D01*
X148410364Y-82482547D01*
X148465887Y-82622783D01*
X148471079Y-82629623D01*
X148483864Y-82646467D01*
X148509116Y-82712820D01*
X148509500Y-82722645D01*
X148509500Y-85000000D01*
X145950000Y-85000000D01*
X145950000Y-88986761D01*
X145944199Y-89001292D01*
X145886406Y-89042530D01*
X145845081Y-89049500D01*
X145585886Y-89049500D01*
X145517765Y-89029498D01*
X145497612Y-89013257D01*
X145492922Y-89007078D01*
X145485300Y-89001292D01*
X145379623Y-88921079D01*
X145379624Y-88921079D01*
X145372783Y-88915887D01*
X145309168Y-88890700D01*
X145240077Y-88863345D01*
X145240075Y-88863344D01*
X145232547Y-88860364D01*
X145142772Y-88849500D01*
X144157228Y-88849500D01*
X144067453Y-88860364D01*
X144059925Y-88863344D01*
X144059923Y-88863345D01*
X143990832Y-88890700D01*
X143927217Y-88915887D01*
X143807078Y-89007078D01*
X143715887Y-89127217D01*
X143698468Y-89171212D01*
X143672313Y-89237274D01*
X143660364Y-89267453D01*
X143649500Y-89357228D01*
X143649500Y-89761574D01*
X143629498Y-89829695D01*
X143612595Y-89850669D01*
X142780884Y-90682380D01*
X142718572Y-90716406D01*
X142647757Y-90711341D01*
X142602694Y-90682380D01*
X142287405Y-90367091D01*
X142253379Y-90304779D01*
X142250500Y-90277996D01*
X142250500Y-90231827D01*
X142270502Y-90163706D01*
X142323250Y-90117632D01*
X142397753Y-90082891D01*
X142397756Y-90082889D01*
X142402734Y-90080568D01*
X142589139Y-89950047D01*
X142750047Y-89789139D01*
X142880568Y-89602734D01*
X142914574Y-89529810D01*
X142974416Y-89401478D01*
X142974417Y-89401476D01*
X142976739Y-89396496D01*
X143004571Y-89292627D01*
X143034211Y-89182007D01*
X143034211Y-89182005D01*
X143035635Y-89176692D01*
X143055468Y-88950000D01*
X143035635Y-88723308D01*
X143006583Y-88614885D01*
X142978162Y-88508814D01*
X142978161Y-88508812D01*
X142976739Y-88503504D01*
X142946411Y-88438465D01*
X142882891Y-88302247D01*
X142882889Y-88302244D01*
X142880568Y-88297266D01*
X142750047Y-88110861D01*
X142589139Y-87949953D01*
X142402734Y-87819432D01*
X142397756Y-87817111D01*
X142397753Y-87817109D01*
X142201478Y-87725584D01*
X142201476Y-87725583D01*
X142196496Y-87723261D01*
X142191188Y-87721839D01*
X142191186Y-87721838D01*
X141982007Y-87665789D01*
X141982005Y-87665789D01*
X141976692Y-87664365D01*
X141750000Y-87644532D01*
X141523308Y-87664365D01*
X141517995Y-87665789D01*
X141517993Y-87665789D01*
X141308814Y-87721838D01*
X141308812Y-87721839D01*
X141303504Y-87723261D01*
X141298524Y-87725583D01*
X141298522Y-87725584D01*
X141102247Y-87817109D01*
X141102244Y-87817111D01*
X141097266Y-87819432D01*
X140910861Y-87949953D01*
X140749953Y-88110861D01*
X140619432Y-88297266D01*
X140617111Y-88302244D01*
X140617109Y-88302247D01*
X140553589Y-88438465D01*
X140523261Y-88503504D01*
X140521839Y-88508812D01*
X140521838Y-88508814D01*
X140493417Y-88614885D01*
X140464365Y-88723308D01*
X140444532Y-88950000D01*
X140464365Y-89176692D01*
X140465789Y-89182005D01*
X140465789Y-89182007D01*
X140495430Y-89292627D01*
X140523261Y-89396496D01*
X140525583Y-89401476D01*
X140525584Y-89401478D01*
X140585427Y-89529810D01*
X140619432Y-89602734D01*
X140749953Y-89789139D01*
X140910861Y-89950047D01*
X141097266Y-90080568D01*
X141102244Y-90082889D01*
X141102247Y-90082891D01*
X141176750Y-90117632D01*
X141230035Y-90164549D01*
X141249500Y-90231827D01*
X141249500Y-90467319D01*
X141248172Y-90479204D01*
X141248682Y-90479245D01*
X141247962Y-90488191D01*
X141245981Y-90496947D01*
X141246537Y-90505907D01*
X141249258Y-90549764D01*
X141249500Y-90557567D01*
X141249500Y-90573440D01*
X141250135Y-90577874D01*
X141250948Y-90583550D01*
X141251978Y-90593606D01*
X141254859Y-90640038D01*
X141257907Y-90648482D01*
X141258676Y-90652194D01*
X141262346Y-90666915D01*
X141263405Y-90670537D01*
X141264677Y-90679418D01*
X141268390Y-90687585D01*
X141268552Y-90688138D01*
X141268472Y-90759135D01*
X141230021Y-90818818D01*
X141165407Y-90848238D01*
X141147616Y-90849500D01*
X140932228Y-90849500D01*
X140842453Y-90860364D01*
X140834925Y-90863344D01*
X140834923Y-90863345D01*
X140765832Y-90890700D01*
X140702217Y-90915887D01*
X140582078Y-91007078D01*
X140490887Y-91127217D01*
X140461875Y-91200494D01*
X140454643Y-91218760D01*
X140410969Y-91274734D01*
X140385708Y-91288786D01*
X140304791Y-91322302D01*
X140304787Y-91322305D01*
X140297159Y-91325464D01*
X140171718Y-91421718D01*
X140166695Y-91428264D01*
X140152571Y-91446671D01*
X140141703Y-91459062D01*
X139809062Y-91791703D01*
X139796672Y-91802570D01*
X139771718Y-91821718D01*
X139705295Y-91908282D01*
X139675464Y-91947159D01*
X139614956Y-92093238D01*
X139594318Y-92250000D01*
X139595396Y-92258188D01*
X139598422Y-92281173D01*
X139599500Y-92297619D01*
X139599500Y-97002381D01*
X139598422Y-97018827D01*
X139594318Y-97050000D01*
X139595396Y-97058188D01*
X139599500Y-97089361D01*
X139610840Y-97175494D01*
X139614956Y-97206762D01*
X139675464Y-97352841D01*
X139771718Y-97478282D01*
X139778264Y-97483305D01*
X139796671Y-97497429D01*
X139809062Y-97508297D01*
X141991703Y-99690938D01*
X142002570Y-99703328D01*
X142021718Y-99728282D01*
X142071761Y-99766681D01*
X142147159Y-99824536D01*
X142293238Y-99885044D01*
X142446358Y-99905204D01*
X142511284Y-99933926D01*
X142538566Y-99966921D01*
X142540887Y-99972783D01*
X142546081Y-99979625D01*
X142546081Y-99979626D01*
X142599306Y-100049747D01*
X142632078Y-100092922D01*
X142752217Y-100184113D01*
X142815832Y-100209300D01*
X142884923Y-100236655D01*
X142884925Y-100236656D01*
X142892453Y-100239636D01*
X142982228Y-100250500D01*
X143399075Y-100250500D01*
X143467196Y-100270502D01*
X143488170Y-100287405D01*
X144491703Y-101290938D01*
X144502570Y-101303328D01*
X144521718Y-101328282D01*
X144638951Y-101418238D01*
X144647159Y-101424536D01*
X144654786Y-101427695D01*
X144654789Y-101427697D01*
X144785609Y-101481884D01*
X144793238Y-101485044D01*
X144801426Y-101486122D01*
X144856982Y-101493436D01*
X144950000Y-101505682D01*
X144958188Y-101504604D01*
X144981173Y-101501578D01*
X144997619Y-101500500D01*
X145318500Y-101500500D01*
X145386621Y-101520502D01*
X145433114Y-101574158D01*
X145444500Y-101626500D01*
X145444500Y-105597810D01*
X145446250Y-105630461D01*
X145449129Y-105657244D01*
X145484750Y-105771007D01*
X145518776Y-105833319D01*
X145521471Y-105836919D01*
X145568187Y-105899324D01*
X145568191Y-105899329D01*
X145570884Y-105902926D01*
X147097074Y-107429116D01*
X147098331Y-107430245D01*
X147098334Y-107430248D01*
X147120152Y-107449847D01*
X147120162Y-107449855D01*
X147121396Y-107450964D01*
X147142370Y-107467867D01*
X147202505Y-107499324D01*
X147232950Y-107515250D01*
X147248000Y-107523123D01*
X147253938Y-107524866D01*
X147253939Y-107524867D01*
X147271769Y-107530102D01*
X147316121Y-107543125D01*
X147320577Y-107543766D01*
X147320583Y-107543767D01*
X147357114Y-107549019D01*
X147402190Y-107555500D01*
X147606246Y-107555500D01*
X147674367Y-107575502D01*
X147682420Y-107581134D01*
X147752217Y-107634113D01*
X147809591Y-107656829D01*
X147884923Y-107686655D01*
X147884925Y-107686656D01*
X147892453Y-107689636D01*
X147982228Y-107700500D01*
X149017772Y-107700500D01*
X149107547Y-107689636D01*
X149115075Y-107686656D01*
X149115077Y-107686655D01*
X149190409Y-107656829D01*
X149247783Y-107634113D01*
X149317575Y-107581138D01*
X149383927Y-107555884D01*
X149393754Y-107555500D01*
X149597810Y-107555500D01*
X149630461Y-107553750D01*
X149632132Y-107553570D01*
X149632149Y-107553569D01*
X149646103Y-107552069D01*
X149657244Y-107550871D01*
X149771007Y-107515250D01*
X149776439Y-107512284D01*
X149776441Y-107512283D01*
X149829371Y-107483380D01*
X149829373Y-107483379D01*
X149833319Y-107481224D01*
X149836921Y-107478527D01*
X149836928Y-107478523D01*
X149897939Y-107432850D01*
X149964459Y-107408038D01*
X150033833Y-107423129D01*
X150062544Y-107444622D01*
X150177483Y-107559561D01*
X150178412Y-107560499D01*
X150240859Y-107624268D01*
X150246782Y-107628085D01*
X150246783Y-107628086D01*
X150276886Y-107647487D01*
X150287237Y-107654925D01*
X150315224Y-107677267D01*
X150315233Y-107677273D01*
X150320734Y-107681664D01*
X150327077Y-107684730D01*
X150327078Y-107684731D01*
X150350559Y-107696082D01*
X150363974Y-107703611D01*
X150391817Y-107721554D01*
X150398437Y-107723964D01*
X150398438Y-107723964D01*
X150432089Y-107736212D01*
X150443831Y-107741172D01*
X150452174Y-107745205D01*
X150482422Y-107759827D01*
X150489277Y-107761410D01*
X150489281Y-107761411D01*
X150508243Y-107765788D01*
X150514698Y-107767279D01*
X150529446Y-107771648D01*
X150553955Y-107780568D01*
X150553959Y-107780569D01*
X150560578Y-107782978D01*
X150603118Y-107788352D01*
X150615637Y-107790582D01*
X150657411Y-107800226D01*
X150664452Y-107800251D01*
X150664455Y-107800251D01*
X150697582Y-107800367D01*
X150698455Y-107800396D01*
X150699283Y-107800500D01*
X150735738Y-107800500D01*
X150736178Y-107800501D01*
X150833507Y-107800841D01*
X150833510Y-107800841D01*
X150837000Y-107800853D01*
X150838188Y-107800587D01*
X150839800Y-107800500D01*
X155109403Y-107800500D01*
X155177524Y-107820502D01*
X155199362Y-107839730D01*
X155199953Y-107839139D01*
X155360861Y-108000047D01*
X155547266Y-108130568D01*
X155552244Y-108132889D01*
X155552247Y-108132891D01*
X155748522Y-108224416D01*
X155753504Y-108226739D01*
X155758812Y-108228161D01*
X155758814Y-108228162D01*
X155967993Y-108284211D01*
X155967995Y-108284211D01*
X155973308Y-108285635D01*
X156200000Y-108305468D01*
X156426692Y-108285635D01*
X156432005Y-108284211D01*
X156432007Y-108284211D01*
X156641186Y-108228162D01*
X156641188Y-108228161D01*
X156646496Y-108226739D01*
X156651478Y-108224416D01*
X156847753Y-108132891D01*
X156847756Y-108132889D01*
X156852734Y-108130568D01*
X157039139Y-108000047D01*
X157200047Y-107839139D01*
X157327309Y-107657388D01*
X171172496Y-107657388D01*
X171178223Y-107665038D01*
X171309042Y-107745205D01*
X171317837Y-107749687D01*
X171527988Y-107836734D01*
X171537373Y-107839783D01*
X171758554Y-107892885D01*
X171768301Y-107894428D01*
X171995070Y-107912275D01*
X172004930Y-107912275D01*
X172231699Y-107894428D01*
X172241446Y-107892885D01*
X172462627Y-107839783D01*
X172472012Y-107836734D01*
X172682163Y-107749687D01*
X172690958Y-107745205D01*
X172818110Y-107667285D01*
X172827570Y-107656829D01*
X172823786Y-107648050D01*
X172012812Y-106837076D01*
X171998868Y-106829462D01*
X171997035Y-106829593D01*
X171990420Y-106833844D01*
X171179256Y-107645008D01*
X171172496Y-107657388D01*
X157327309Y-107657388D01*
X157330568Y-107652734D01*
X157346190Y-107619234D01*
X157424416Y-107451478D01*
X157424417Y-107451476D01*
X157426739Y-107446496D01*
X157430396Y-107432850D01*
X157484211Y-107232007D01*
X157484211Y-107232005D01*
X157485635Y-107226692D01*
X157486156Y-107220744D01*
X157490977Y-107165632D01*
X157516840Y-107099513D01*
X157527403Y-107087518D01*
X158209991Y-106404930D01*
X170487725Y-106404930D01*
X170505572Y-106631699D01*
X170507115Y-106641446D01*
X170560217Y-106862627D01*
X170563266Y-106872012D01*
X170650313Y-107082163D01*
X170654795Y-107090958D01*
X170732715Y-107218110D01*
X170743171Y-107227570D01*
X170751950Y-107223786D01*
X171562924Y-106412812D01*
X171569302Y-106401132D01*
X172429462Y-106401132D01*
X172429593Y-106402965D01*
X172433844Y-106409580D01*
X173245008Y-107220744D01*
X173257388Y-107227504D01*
X173265038Y-107221777D01*
X173345205Y-107090958D01*
X173349687Y-107082163D01*
X173436734Y-106872012D01*
X173439783Y-106862627D01*
X173492885Y-106641446D01*
X173494428Y-106631699D01*
X173512275Y-106404930D01*
X173512275Y-106395070D01*
X173494428Y-106168301D01*
X173492885Y-106158554D01*
X173439783Y-105937373D01*
X173436734Y-105927988D01*
X173349687Y-105717837D01*
X173345205Y-105709042D01*
X173267285Y-105581890D01*
X173256829Y-105572430D01*
X173248050Y-105576214D01*
X172437076Y-106387188D01*
X172429462Y-106401132D01*
X171569302Y-106401132D01*
X171570538Y-106398868D01*
X171570407Y-106397035D01*
X171566156Y-106390420D01*
X170754992Y-105579256D01*
X170742612Y-105572496D01*
X170734962Y-105578223D01*
X170654795Y-105709042D01*
X170650313Y-105717837D01*
X170563266Y-105927988D01*
X170560217Y-105937373D01*
X170507115Y-106158554D01*
X170505572Y-106168301D01*
X170487725Y-106395070D01*
X170487725Y-106404930D01*
X158209991Y-106404930D01*
X159471750Y-105143171D01*
X171172430Y-105143171D01*
X171176214Y-105151950D01*
X171987188Y-105962924D01*
X172001132Y-105970538D01*
X172002965Y-105970407D01*
X172009580Y-105966156D01*
X172820744Y-105154992D01*
X172827504Y-105142612D01*
X172821777Y-105134962D01*
X172690958Y-105054795D01*
X172682163Y-105050313D01*
X172472012Y-104963266D01*
X172462627Y-104960217D01*
X172241446Y-104907115D01*
X172231699Y-104905572D01*
X172004930Y-104887725D01*
X171995070Y-104887725D01*
X171768301Y-104905572D01*
X171758554Y-104907115D01*
X171537373Y-104960217D01*
X171527988Y-104963266D01*
X171317837Y-105050313D01*
X171309042Y-105054795D01*
X171181890Y-105132715D01*
X171172430Y-105143171D01*
X159471750Y-105143171D01*
X162446032Y-102168889D01*
X162448554Y-102166436D01*
X162506639Y-102111508D01*
X162506640Y-102111507D01*
X162511280Y-102107119D01*
X162545878Y-102057708D01*
X162551448Y-102050343D01*
X162585539Y-102008544D01*
X162585542Y-102008540D01*
X162589573Y-102003597D01*
X162602910Y-101978087D01*
X162611353Y-101964200D01*
X162624202Y-101945849D01*
X162627863Y-101940621D01*
X162651822Y-101885256D01*
X162655795Y-101876928D01*
X162680784Y-101829127D01*
X162680785Y-101829124D01*
X162683741Y-101823470D01*
X162691675Y-101795799D01*
X162697155Y-101780495D01*
X162708586Y-101754081D01*
X162720922Y-101695033D01*
X162723140Y-101686070D01*
X162738007Y-101634220D01*
X162739766Y-101628087D01*
X162741974Y-101599388D01*
X162744265Y-101583295D01*
X162750151Y-101555120D01*
X162750500Y-101548461D01*
X162750500Y-101493436D01*
X162750871Y-101483769D01*
X162754871Y-101431790D01*
X162754871Y-101431786D01*
X162755360Y-101425430D01*
X162751494Y-101394827D01*
X162750500Y-101379035D01*
X162750500Y-98866398D01*
X164373016Y-98866398D01*
X164382898Y-98878887D01*
X164605144Y-99027387D01*
X164612281Y-99031508D01*
X164870349Y-99158772D01*
X164877953Y-99161922D01*
X165150420Y-99254412D01*
X165158383Y-99256546D01*
X165440600Y-99312683D01*
X165448751Y-99313756D01*
X165735881Y-99332575D01*
X165744119Y-99332575D01*
X166031249Y-99313756D01*
X166039400Y-99312683D01*
X166321617Y-99256546D01*
X166329580Y-99254412D01*
X166602047Y-99161922D01*
X166609651Y-99158772D01*
X166867719Y-99031508D01*
X166874856Y-99027387D01*
X167098537Y-98877929D01*
X167106825Y-98868011D01*
X167099568Y-98853832D01*
X165752812Y-97507076D01*
X165738868Y-97499462D01*
X165737035Y-97499593D01*
X165730420Y-97503844D01*
X164379212Y-98855052D01*
X164373016Y-98866398D01*
X162750500Y-98866398D01*
X162750500Y-97074119D01*
X163477425Y-97074119D01*
X163496244Y-97361249D01*
X163497317Y-97369400D01*
X163553454Y-97651617D01*
X163555588Y-97659580D01*
X163648078Y-97932047D01*
X163651228Y-97939651D01*
X163778492Y-98197718D01*
X163782613Y-98204855D01*
X163932071Y-98428537D01*
X163941989Y-98436825D01*
X163956167Y-98429569D01*
X165302924Y-97082812D01*
X165309302Y-97071132D01*
X166169462Y-97071132D01*
X166169593Y-97072965D01*
X166173844Y-97079580D01*
X167525052Y-98430788D01*
X167536398Y-98436984D01*
X167548887Y-98427102D01*
X167697387Y-98204855D01*
X167701508Y-98197718D01*
X167828772Y-97939651D01*
X167831922Y-97932047D01*
X167924412Y-97659580D01*
X167926546Y-97651617D01*
X167982683Y-97369400D01*
X167983756Y-97361249D01*
X168002575Y-97074119D01*
X168002575Y-97065881D01*
X167983756Y-96778751D01*
X167982683Y-96770600D01*
X167926546Y-96488383D01*
X167924412Y-96480420D01*
X167831922Y-96207953D01*
X167828772Y-96200349D01*
X167701508Y-95942282D01*
X167697387Y-95935145D01*
X167547929Y-95711463D01*
X167538011Y-95703175D01*
X167523833Y-95710431D01*
X166177076Y-97057188D01*
X166169462Y-97071132D01*
X165309302Y-97071132D01*
X165310538Y-97068868D01*
X165310407Y-97067035D01*
X165306156Y-97060420D01*
X163954948Y-95709212D01*
X163943602Y-95703016D01*
X163931113Y-95712898D01*
X163782613Y-95935145D01*
X163778492Y-95942282D01*
X163651228Y-96200349D01*
X163648078Y-96207953D01*
X163555588Y-96480420D01*
X163553454Y-96488383D01*
X163497317Y-96770600D01*
X163496244Y-96778751D01*
X163477425Y-97065881D01*
X163477425Y-97074119D01*
X162750500Y-97074119D01*
X162750500Y-95916611D01*
X162770502Y-95848490D01*
X162787405Y-95827516D01*
X163342932Y-95271989D01*
X164373175Y-95271989D01*
X164380431Y-95286167D01*
X165727188Y-96632924D01*
X165741132Y-96640538D01*
X165742965Y-96640407D01*
X165749580Y-96636156D01*
X167100788Y-95284948D01*
X167106984Y-95273602D01*
X167097102Y-95261113D01*
X166874856Y-95112613D01*
X166867719Y-95108492D01*
X166609651Y-94981228D01*
X166602047Y-94978078D01*
X166329580Y-94885588D01*
X166321617Y-94883454D01*
X166039400Y-94827317D01*
X166031249Y-94826244D01*
X165744119Y-94807425D01*
X165735881Y-94807425D01*
X165448751Y-94826244D01*
X165440600Y-94827317D01*
X165158383Y-94883454D01*
X165150420Y-94885588D01*
X164877953Y-94978078D01*
X164870349Y-94981228D01*
X164612282Y-95108492D01*
X164605145Y-95112613D01*
X164381463Y-95262071D01*
X164373175Y-95271989D01*
X163342932Y-95271989D01*
X163515516Y-95099405D01*
X163577828Y-95065379D01*
X163604611Y-95062500D01*
X163836646Y-95062500D01*
X163840350Y-95062059D01*
X163840353Y-95062059D01*
X163847746Y-95061179D01*
X163862846Y-95059382D01*
X163884831Y-95049617D01*
X163954518Y-95018663D01*
X163965153Y-95013939D01*
X163980463Y-94998603D01*
X164013766Y-94965241D01*
X164044241Y-94934713D01*
X164049902Y-94921910D01*
X164075265Y-94864538D01*
X164089506Y-94832327D01*
X164092500Y-94806646D01*
X164092500Y-93193354D01*
X164089382Y-93167154D01*
X164083761Y-93154498D01*
X164048663Y-93075482D01*
X164043939Y-93064847D01*
X163964713Y-92985759D01*
X163954076Y-92981056D01*
X163954074Y-92981055D01*
X163870992Y-92944325D01*
X163870993Y-92944325D01*
X163862327Y-92940494D01*
X163836646Y-92937500D01*
X162223354Y-92937500D01*
X162223354Y-92935992D01*
X162160142Y-92921440D01*
X162132761Y-92900684D01*
X160717171Y-91485093D01*
X161962463Y-91485093D01*
X161979899Y-91692730D01*
X162037333Y-91893025D01*
X162040151Y-91898507D01*
X162040152Y-91898511D01*
X162129756Y-92072862D01*
X162129759Y-92072866D01*
X162132577Y-92078350D01*
X162144377Y-92093238D01*
X162258174Y-92236816D01*
X162258179Y-92236821D01*
X162262003Y-92241646D01*
X162266696Y-92245640D01*
X162266697Y-92245641D01*
X162396905Y-92356456D01*
X162420683Y-92376693D01*
X162426061Y-92379699D01*
X162426063Y-92379700D01*
X162506235Y-92424506D01*
X162602571Y-92478346D01*
X162800740Y-92542735D01*
X163007641Y-92567407D01*
X163013776Y-92566935D01*
X163013778Y-92566935D01*
X163209252Y-92551894D01*
X163209256Y-92551893D01*
X163215394Y-92551421D01*
X163416085Y-92495387D01*
X163421589Y-92492607D01*
X163421591Y-92492606D01*
X163596570Y-92404218D01*
X163596572Y-92404217D01*
X163602071Y-92401439D01*
X163766266Y-92273156D01*
X163902417Y-92115423D01*
X163905461Y-92110065D01*
X164002294Y-91939610D01*
X164002296Y-91939606D01*
X164005339Y-91934249D01*
X164040593Y-91828271D01*
X164069164Y-91742382D01*
X164069165Y-91742379D01*
X164071109Y-91736534D01*
X164082450Y-91646762D01*
X164096783Y-91533312D01*
X164096784Y-91533305D01*
X164097225Y-91529810D01*
X164097641Y-91500000D01*
X164077308Y-91292627D01*
X164017083Y-91093154D01*
X163919261Y-90909176D01*
X163858857Y-90835114D01*
X163831303Y-90769683D01*
X163830500Y-90755478D01*
X163830500Y-90245600D01*
X163850502Y-90177479D01*
X163861118Y-90163270D01*
X163898389Y-90120091D01*
X163898395Y-90120083D01*
X163902417Y-90115423D01*
X163994570Y-89953206D01*
X164002294Y-89939610D01*
X164002296Y-89939606D01*
X164005339Y-89934249D01*
X164055111Y-89784627D01*
X164069164Y-89742382D01*
X164069165Y-89742379D01*
X164071109Y-89736534D01*
X164076643Y-89692730D01*
X164096783Y-89533312D01*
X164096784Y-89533305D01*
X164097225Y-89529810D01*
X164097641Y-89500000D01*
X164077308Y-89292627D01*
X164017083Y-89093154D01*
X163919261Y-88909176D01*
X163913590Y-88902222D01*
X163827395Y-88796538D01*
X163787567Y-88747704D01*
X163627017Y-88614885D01*
X163443728Y-88515781D01*
X163371923Y-88493554D01*
X163320764Y-88477717D01*
X163261604Y-88438465D01*
X163233057Y-88373461D01*
X163244186Y-88303342D01*
X163291457Y-88250371D01*
X163325412Y-88235645D01*
X163460715Y-88199391D01*
X163471007Y-88195645D01*
X163662436Y-88106380D01*
X163671937Y-88100894D01*
X163677501Y-88096998D01*
X163685877Y-88086520D01*
X163678808Y-88073072D01*
X163042812Y-87437076D01*
X163028868Y-87429462D01*
X163027035Y-87429593D01*
X163020420Y-87433844D01*
X162380470Y-88073794D01*
X162374040Y-88085569D01*
X162383334Y-88097583D01*
X162388063Y-88100894D01*
X162397564Y-88106380D01*
X162588993Y-88195645D01*
X162599285Y-88199391D01*
X162735010Y-88235758D01*
X162795633Y-88272710D01*
X162826654Y-88336570D01*
X162818226Y-88407065D01*
X162773023Y-88461812D01*
X162737975Y-88478338D01*
X162712063Y-88485965D01*
X162630055Y-88510101D01*
X162624590Y-88512958D01*
X162452433Y-88602959D01*
X162445399Y-88606636D01*
X162283011Y-88737200D01*
X162279047Y-88741924D01*
X162233924Y-88795699D01*
X162149075Y-88896818D01*
X162048693Y-89079411D01*
X161985690Y-89278025D01*
X161985004Y-89284142D01*
X161985003Y-89284146D01*
X161972401Y-89396496D01*
X161962463Y-89485093D01*
X161962979Y-89491237D01*
X161973006Y-89610639D01*
X161979899Y-89692730D01*
X162037333Y-89893025D01*
X162040151Y-89898507D01*
X162040152Y-89898511D01*
X162129756Y-90072862D01*
X162129759Y-90072866D01*
X162132577Y-90078350D01*
X162187180Y-90147242D01*
X162202246Y-90166251D01*
X162228883Y-90232061D01*
X162229500Y-90244515D01*
X162229500Y-90755111D01*
X162209498Y-90823232D01*
X162200022Y-90836102D01*
X162149075Y-90896818D01*
X162146104Y-90902222D01*
X162146102Y-90902225D01*
X162127769Y-90935573D01*
X162048693Y-91079411D01*
X161985690Y-91278025D01*
X161985004Y-91284142D01*
X161985003Y-91284146D01*
X161965383Y-91459062D01*
X161962463Y-91485093D01*
X160717171Y-91485093D01*
X159524905Y-90292827D01*
X159490879Y-90230515D01*
X159488000Y-90203732D01*
X159488000Y-87005475D01*
X161755628Y-87005475D01*
X161774038Y-87215896D01*
X161775941Y-87226691D01*
X161830609Y-87430715D01*
X161834355Y-87441007D01*
X161923624Y-87632444D01*
X161929102Y-87641930D01*
X161933002Y-87647501D01*
X161943480Y-87655876D01*
X161956928Y-87648808D01*
X162592924Y-87012812D01*
X162599302Y-87001132D01*
X163459462Y-87001132D01*
X163459593Y-87002965D01*
X163463844Y-87009580D01*
X164103794Y-87649530D01*
X164115568Y-87655960D01*
X164127584Y-87646663D01*
X164130898Y-87641930D01*
X164136376Y-87632444D01*
X164225645Y-87441007D01*
X164229391Y-87430715D01*
X164284059Y-87226691D01*
X164285962Y-87215896D01*
X164304372Y-87005475D01*
X164304372Y-86994525D01*
X164285962Y-86784104D01*
X164284059Y-86773309D01*
X164229391Y-86569285D01*
X164225645Y-86558993D01*
X164136376Y-86367556D01*
X164130898Y-86358070D01*
X164126998Y-86352499D01*
X164116520Y-86344124D01*
X164103072Y-86351192D01*
X163467076Y-86987188D01*
X163459462Y-87001132D01*
X162599302Y-87001132D01*
X162600538Y-86998868D01*
X162600407Y-86997035D01*
X162596156Y-86990420D01*
X161956206Y-86350470D01*
X161944432Y-86344040D01*
X161932416Y-86353337D01*
X161929102Y-86358070D01*
X161923624Y-86367556D01*
X161834355Y-86558993D01*
X161830609Y-86569285D01*
X161775941Y-86773309D01*
X161774038Y-86784104D01*
X161755628Y-86994525D01*
X161755628Y-87005475D01*
X159488000Y-87005475D01*
X159488000Y-85913480D01*
X162374124Y-85913480D01*
X162381192Y-85926928D01*
X163017188Y-86562924D01*
X163031132Y-86570538D01*
X163032965Y-86570407D01*
X163039580Y-86566156D01*
X163679530Y-85926206D01*
X163685960Y-85914431D01*
X163676666Y-85902417D01*
X163671937Y-85899106D01*
X163662436Y-85893620D01*
X163471007Y-85804355D01*
X163460715Y-85800609D01*
X163256691Y-85745941D01*
X163245896Y-85744038D01*
X163044276Y-85726398D01*
X164373016Y-85726398D01*
X164382898Y-85738887D01*
X164605144Y-85887387D01*
X164612281Y-85891508D01*
X164870349Y-86018772D01*
X164877953Y-86021922D01*
X165150420Y-86114412D01*
X165158383Y-86116546D01*
X165440600Y-86172683D01*
X165448751Y-86173756D01*
X165735881Y-86192575D01*
X165744119Y-86192575D01*
X166031249Y-86173756D01*
X166039400Y-86172683D01*
X166321617Y-86116546D01*
X166329580Y-86114412D01*
X166602047Y-86021922D01*
X166609651Y-86018772D01*
X166867719Y-85891508D01*
X166874856Y-85887387D01*
X167098537Y-85737929D01*
X167106825Y-85728011D01*
X167099568Y-85713832D01*
X165752812Y-84367076D01*
X165738868Y-84359462D01*
X165737035Y-84359593D01*
X165730420Y-84363844D01*
X164379212Y-85715052D01*
X164373016Y-85726398D01*
X163044276Y-85726398D01*
X163035475Y-85725628D01*
X163024525Y-85725628D01*
X162814104Y-85744038D01*
X162803309Y-85745941D01*
X162599285Y-85800609D01*
X162588993Y-85804355D01*
X162397556Y-85893624D01*
X162388070Y-85899102D01*
X162382499Y-85903002D01*
X162374124Y-85913480D01*
X159488000Y-85913480D01*
X159488000Y-83934119D01*
X163477425Y-83934119D01*
X163496244Y-84221249D01*
X163497317Y-84229400D01*
X163553454Y-84511617D01*
X163555588Y-84519580D01*
X163648078Y-84792047D01*
X163651228Y-84799651D01*
X163778492Y-85057718D01*
X163782613Y-85064855D01*
X163932071Y-85288537D01*
X163941989Y-85296825D01*
X163956167Y-85289569D01*
X165302924Y-83942812D01*
X165309302Y-83931132D01*
X166169462Y-83931132D01*
X166169593Y-83932965D01*
X166173844Y-83939580D01*
X167525052Y-85290788D01*
X167536398Y-85296984D01*
X167548887Y-85287102D01*
X167697387Y-85064855D01*
X167701508Y-85057718D01*
X167828772Y-84799651D01*
X167831922Y-84792047D01*
X167924412Y-84519580D01*
X167926546Y-84511617D01*
X167982683Y-84229400D01*
X167983756Y-84221249D01*
X168002575Y-83934119D01*
X168002575Y-83925881D01*
X167983756Y-83638751D01*
X167982683Y-83630600D01*
X167926546Y-83348383D01*
X167924412Y-83340420D01*
X167831922Y-83067953D01*
X167828772Y-83060349D01*
X167701508Y-82802282D01*
X167697387Y-82795145D01*
X167547929Y-82571463D01*
X167538011Y-82563175D01*
X167523833Y-82570431D01*
X166177076Y-83917188D01*
X166169462Y-83931132D01*
X165309302Y-83931132D01*
X165310538Y-83928868D01*
X165310407Y-83927035D01*
X165306156Y-83920420D01*
X163954948Y-82569212D01*
X163943602Y-82563016D01*
X163931113Y-82572898D01*
X163782613Y-82795145D01*
X163778492Y-82802282D01*
X163651228Y-83060349D01*
X163648078Y-83067953D01*
X163555588Y-83340420D01*
X163553454Y-83348383D01*
X163497317Y-83630600D01*
X163496244Y-83638751D01*
X163477425Y-83925881D01*
X163477425Y-83934119D01*
X159488000Y-83934119D01*
X159488000Y-82131989D01*
X164373175Y-82131989D01*
X164380431Y-82146167D01*
X165727188Y-83492924D01*
X165741132Y-83500538D01*
X165742965Y-83500407D01*
X165749580Y-83496156D01*
X167100788Y-82144948D01*
X167106984Y-82133602D01*
X167097102Y-82121113D01*
X166874856Y-81972613D01*
X166867719Y-81968492D01*
X166609651Y-81841228D01*
X166602047Y-81838078D01*
X166329580Y-81745588D01*
X166321617Y-81743454D01*
X166039400Y-81687317D01*
X166031249Y-81686244D01*
X165744119Y-81667425D01*
X165735881Y-81667425D01*
X165448751Y-81686244D01*
X165440600Y-81687317D01*
X165158383Y-81743454D01*
X165150420Y-81745588D01*
X164877953Y-81838078D01*
X164870349Y-81841228D01*
X164612282Y-81968492D01*
X164605145Y-81972613D01*
X164381463Y-82122071D01*
X164373175Y-82131989D01*
X159488000Y-82131989D01*
X159488000Y-75857388D01*
X171172496Y-75857388D01*
X171178223Y-75865038D01*
X171309042Y-75945205D01*
X171317837Y-75949687D01*
X171527988Y-76036734D01*
X171537373Y-76039783D01*
X171758554Y-76092885D01*
X171768301Y-76094428D01*
X171995070Y-76112275D01*
X172004930Y-76112275D01*
X172231699Y-76094428D01*
X172241446Y-76092885D01*
X172462627Y-76039783D01*
X172472012Y-76036734D01*
X172682163Y-75949687D01*
X172690958Y-75945205D01*
X172818110Y-75867285D01*
X172827570Y-75856829D01*
X172823786Y-75848050D01*
X172012812Y-75037076D01*
X171998868Y-75029462D01*
X171997035Y-75029593D01*
X171990420Y-75033844D01*
X171179256Y-75845008D01*
X171172496Y-75857388D01*
X159488000Y-75857388D01*
X159488000Y-74604930D01*
X170487725Y-74604930D01*
X170505572Y-74831699D01*
X170507115Y-74841446D01*
X170560217Y-75062627D01*
X170563266Y-75072012D01*
X170650313Y-75282163D01*
X170654795Y-75290958D01*
X170732715Y-75418110D01*
X170743171Y-75427570D01*
X170751950Y-75423786D01*
X171562924Y-74612812D01*
X171569302Y-74601132D01*
X172429462Y-74601132D01*
X172429593Y-74602965D01*
X172433844Y-74609580D01*
X173245008Y-75420744D01*
X173257388Y-75427504D01*
X173265038Y-75421777D01*
X173345205Y-75290958D01*
X173349687Y-75282163D01*
X173436734Y-75072012D01*
X173439783Y-75062627D01*
X173492885Y-74841446D01*
X173494428Y-74831699D01*
X173512275Y-74604930D01*
X173512275Y-74595070D01*
X173494428Y-74368301D01*
X173492885Y-74358554D01*
X173439783Y-74137373D01*
X173436734Y-74127988D01*
X173349687Y-73917837D01*
X173345205Y-73909042D01*
X173267285Y-73781890D01*
X173256829Y-73772430D01*
X173248050Y-73776214D01*
X172437076Y-74587188D01*
X172429462Y-74601132D01*
X171569302Y-74601132D01*
X171570538Y-74598868D01*
X171570407Y-74597035D01*
X171566156Y-74590420D01*
X170754992Y-73779256D01*
X170742612Y-73772496D01*
X170734962Y-73778223D01*
X170654795Y-73909042D01*
X170650313Y-73917837D01*
X170563266Y-74127988D01*
X170560217Y-74137373D01*
X170507115Y-74358554D01*
X170505572Y-74368301D01*
X170487725Y-74595070D01*
X170487725Y-74604930D01*
X159488000Y-74604930D01*
X159488000Y-73343171D01*
X171172430Y-73343171D01*
X171176214Y-73351950D01*
X171987188Y-74162924D01*
X172001132Y-74170538D01*
X172002965Y-74170407D01*
X172009580Y-74166156D01*
X172820744Y-73354992D01*
X172827504Y-73342612D01*
X172821777Y-73334962D01*
X172690958Y-73254795D01*
X172682163Y-73250313D01*
X172472012Y-73163266D01*
X172462627Y-73160217D01*
X172241446Y-73107115D01*
X172231699Y-73105572D01*
X172004930Y-73087725D01*
X171995070Y-73087725D01*
X171768301Y-73105572D01*
X171758554Y-73107115D01*
X171537373Y-73160217D01*
X171527988Y-73163266D01*
X171317837Y-73250313D01*
X171309042Y-73254795D01*
X171181890Y-73332715D01*
X171172430Y-73343171D01*
X159488000Y-73343171D01*
X159488000Y-71754845D01*
X159476285Y-71650404D01*
X159475500Y-71636359D01*
X159475500Y-71301466D01*
X159464759Y-71212708D01*
X159409866Y-71074064D01*
X159319711Y-70955289D01*
X159200936Y-70865134D01*
X159192955Y-70861974D01*
X159192953Y-70861973D01*
X159124642Y-70834927D01*
X159062292Y-70810241D01*
X159054254Y-70809268D01*
X159054253Y-70809268D01*
X159030993Y-70806453D01*
X158973534Y-70799500D01*
X158401466Y-70799500D01*
X158344007Y-70806453D01*
X158320747Y-70809268D01*
X158320746Y-70809268D01*
X158312708Y-70810241D01*
X158250358Y-70834927D01*
X158182047Y-70861973D01*
X158182045Y-70861974D01*
X158174064Y-70865134D01*
X158055289Y-70955289D01*
X157965134Y-71074064D01*
X157910241Y-71212708D01*
X157899500Y-71301466D01*
X157899500Y-71642402D01*
X157898507Y-71658191D01*
X157887000Y-71749283D01*
X157887000Y-90578417D01*
X157886993Y-90579737D01*
X157886059Y-90668907D01*
X157895115Y-90710792D01*
X157897175Y-90723370D01*
X157898814Y-90737977D01*
X157900219Y-90750500D01*
X157901954Y-90765972D01*
X157912850Y-90797259D01*
X157917011Y-90812063D01*
X157924011Y-90844442D01*
X157942130Y-90883299D01*
X157946914Y-90895082D01*
X157961015Y-90935573D01*
X157964749Y-90941548D01*
X157978570Y-90963667D01*
X157985908Y-90977182D01*
X157999909Y-91007207D01*
X158004228Y-91012774D01*
X158004228Y-91012775D01*
X158026174Y-91041067D01*
X158033469Y-91051524D01*
X158050895Y-91079411D01*
X158056184Y-91087875D01*
X158061146Y-91092872D01*
X158061147Y-91092873D01*
X158084503Y-91116393D01*
X158085085Y-91117015D01*
X158085599Y-91117677D01*
X158111459Y-91143537D01*
X158182730Y-91215307D01*
X158183757Y-91215959D01*
X158184965Y-91217043D01*
X161287406Y-94319484D01*
X161321432Y-94381796D01*
X161316367Y-94452611D01*
X161287406Y-94497674D01*
X161053986Y-94731094D01*
X161051464Y-94733547D01*
X160999330Y-94782848D01*
X160988720Y-94792881D01*
X160964608Y-94827317D01*
X160954120Y-94842295D01*
X160948550Y-94849660D01*
X160919248Y-94885588D01*
X160910427Y-94896403D01*
X160907472Y-94902055D01*
X160907469Y-94902060D01*
X160897092Y-94921910D01*
X160888643Y-94935807D01*
X160872137Y-94959379D01*
X160869605Y-94965230D01*
X160869599Y-94965241D01*
X160848181Y-95014736D01*
X160844205Y-95023072D01*
X160819215Y-95070872D01*
X160819212Y-95070880D01*
X160816258Y-95076530D01*
X160814500Y-95082661D01*
X160808323Y-95104203D01*
X160802844Y-95119506D01*
X160791414Y-95145919D01*
X160790110Y-95152163D01*
X160790108Y-95152168D01*
X160782965Y-95186362D01*
X160781235Y-95194646D01*
X160779080Y-95204960D01*
X160776864Y-95213917D01*
X160760234Y-95271913D01*
X160759137Y-95286167D01*
X160758026Y-95300610D01*
X160755735Y-95316705D01*
X160749849Y-95344880D01*
X160749500Y-95351539D01*
X160749500Y-95406565D01*
X160749129Y-95416232D01*
X160746723Y-95447506D01*
X160744640Y-95474571D01*
X160745440Y-95480903D01*
X160748506Y-95505173D01*
X160749500Y-95520965D01*
X160749500Y-100983389D01*
X160729498Y-101051510D01*
X160712595Y-101072484D01*
X156112483Y-105672597D01*
X156050171Y-105706623D01*
X156034371Y-105709023D01*
X156024112Y-105709920D01*
X155978789Y-105713885D01*
X155978784Y-105713886D01*
X155973308Y-105714365D01*
X155967995Y-105715789D01*
X155967993Y-105715789D01*
X155758814Y-105771838D01*
X155758812Y-105771839D01*
X155753504Y-105773261D01*
X155748524Y-105775583D01*
X155748522Y-105775584D01*
X155552247Y-105867109D01*
X155552244Y-105867111D01*
X155547266Y-105869432D01*
X155360861Y-105999953D01*
X155199953Y-106160861D01*
X155198514Y-106159422D01*
X155146815Y-106193818D01*
X155109403Y-106199500D01*
X151436732Y-106199500D01*
X151368611Y-106179498D01*
X151322118Y-106125842D01*
X151312014Y-106055568D01*
X151341508Y-105990988D01*
X151347637Y-105984405D01*
X151429116Y-105902926D01*
X151450964Y-105878604D01*
X151467867Y-105857630D01*
X151523123Y-105752000D01*
X151543125Y-105683879D01*
X151544748Y-105672597D01*
X151554858Y-105602273D01*
X151555500Y-105597810D01*
X151555500Y-100002190D01*
X151553750Y-99969539D01*
X151550871Y-99942756D01*
X151515250Y-99828993D01*
X151481224Y-99766681D01*
X151463025Y-99742370D01*
X151431813Y-99700676D01*
X151431809Y-99700671D01*
X151429116Y-99697074D01*
X150352926Y-98620884D01*
X150349924Y-98618187D01*
X150329848Y-98600153D01*
X150329838Y-98600145D01*
X150328604Y-98599036D01*
X150307630Y-98582133D01*
X150247495Y-98550676D01*
X150207485Y-98529746D01*
X150207483Y-98529745D01*
X150202000Y-98526877D01*
X150196062Y-98525134D01*
X150196061Y-98525133D01*
X150178231Y-98519898D01*
X150133879Y-98506875D01*
X150129423Y-98506234D01*
X150129417Y-98506233D01*
X150080005Y-98499129D01*
X150047810Y-98494500D01*
X146952190Y-98494500D01*
X146919539Y-98496250D01*
X146917868Y-98496430D01*
X146917851Y-98496431D01*
X146903897Y-98497931D01*
X146892756Y-98499129D01*
X146778993Y-98534750D01*
X146773561Y-98537716D01*
X146773559Y-98537717D01*
X146720629Y-98566620D01*
X146716681Y-98568776D01*
X146713081Y-98571471D01*
X146650676Y-98618187D01*
X146650671Y-98618191D01*
X146647074Y-98620884D01*
X145570884Y-99697074D01*
X145549036Y-99721396D01*
X145532133Y-99742370D01*
X145476877Y-99848000D01*
X145456875Y-99916121D01*
X145456234Y-99920577D01*
X145456233Y-99920583D01*
X145453045Y-99942756D01*
X145444500Y-100002190D01*
X145444500Y-100173500D01*
X145424498Y-100241621D01*
X145370842Y-100288114D01*
X145318500Y-100299500D01*
X145250925Y-100299500D01*
X145182804Y-100279498D01*
X145161830Y-100262595D01*
X144562405Y-99663170D01*
X144528379Y-99600858D01*
X144525500Y-99574075D01*
X144525500Y-99157228D01*
X144514636Y-99067453D01*
X144500405Y-99031508D01*
X144462275Y-98935204D01*
X144459113Y-98927217D01*
X144367922Y-98807078D01*
X144247783Y-98715887D01*
X144184046Y-98690652D01*
X144115077Y-98663345D01*
X144115075Y-98663344D01*
X144107547Y-98660364D01*
X144017772Y-98649500D01*
X142982228Y-98649500D01*
X142892453Y-98660364D01*
X142884927Y-98663344D01*
X142884926Y-98663344D01*
X142871506Y-98668657D01*
X142815952Y-98690652D01*
X142769571Y-98699500D01*
X142750925Y-98699500D01*
X142682804Y-98679498D01*
X142661830Y-98662595D01*
X140864830Y-96865595D01*
X140830804Y-96803283D01*
X140835869Y-96732468D01*
X140878416Y-96675632D01*
X140944936Y-96650821D01*
X140953925Y-96650500D01*
X141967772Y-96650500D01*
X142057547Y-96639636D01*
X142065075Y-96636656D01*
X142065077Y-96636655D01*
X142138643Y-96607528D01*
X142197783Y-96584113D01*
X142317922Y-96492922D01*
X142340771Y-96462819D01*
X142397888Y-96420653D01*
X142441133Y-96413000D01*
X142552843Y-96413000D01*
X142620964Y-96433002D01*
X142645306Y-96455513D01*
X142645812Y-96455007D01*
X142651884Y-96461079D01*
X142657078Y-96467922D01*
X142777217Y-96559113D01*
X142785202Y-96562275D01*
X142785203Y-96562275D01*
X142793094Y-96565399D01*
X142849068Y-96609073D01*
X142872544Y-96676075D01*
X142856070Y-96745134D01*
X142804874Y-96794323D01*
X142793098Y-96799701D01*
X142752217Y-96815887D01*
X142632078Y-96907078D01*
X142540887Y-97027217D01*
X142485364Y-97167453D01*
X142474500Y-97257228D01*
X142474500Y-97842772D01*
X142485364Y-97932547D01*
X142540887Y-98072783D01*
X142632078Y-98192922D01*
X142752217Y-98284113D01*
X142815832Y-98309300D01*
X142884923Y-98336655D01*
X142884925Y-98336656D01*
X142892453Y-98339636D01*
X142982228Y-98350500D01*
X144017772Y-98350500D01*
X144107547Y-98339636D01*
X144115075Y-98336656D01*
X144115077Y-98336655D01*
X144184168Y-98309300D01*
X144247783Y-98284113D01*
X144367922Y-98192922D01*
X144459113Y-98072783D01*
X144514636Y-97932547D01*
X144525500Y-97842772D01*
X144525500Y-97257228D01*
X144514636Y-97167453D01*
X144459113Y-97027217D01*
X144367922Y-96907078D01*
X144247783Y-96815887D01*
X144206905Y-96799703D01*
X144150932Y-96756029D01*
X144127456Y-96689026D01*
X144143930Y-96619968D01*
X144195126Y-96570779D01*
X144206906Y-96565399D01*
X144214797Y-96562275D01*
X144214798Y-96562275D01*
X144222783Y-96559113D01*
X144342922Y-96467922D01*
X144434113Y-96347783D01*
X144489636Y-96207547D01*
X144500500Y-96117772D01*
X144500500Y-95507228D01*
X144489636Y-95417453D01*
X144480360Y-95394023D01*
X144449750Y-95316713D01*
X144434113Y-95277217D01*
X144342922Y-95157078D01*
X144222783Y-95065887D01*
X144099690Y-95017151D01*
X144043718Y-94973478D01*
X144020241Y-94906475D01*
X144036717Y-94837416D01*
X144087912Y-94788227D01*
X144099687Y-94782850D01*
X144222783Y-94734113D01*
X144342922Y-94642922D01*
X144375259Y-94600320D01*
X144432377Y-94558153D01*
X144475621Y-94550500D01*
X146573500Y-94550500D01*
X146641621Y-94570502D01*
X146688114Y-94624158D01*
X146699500Y-94676500D01*
X146699500Y-94744646D01*
X146702618Y-94770846D01*
X146706456Y-94779486D01*
X146706456Y-94779487D01*
X146727225Y-94826244D01*
X146748061Y-94873153D01*
X146756294Y-94881372D01*
X146756295Y-94881373D01*
X146777018Y-94902060D01*
X146827287Y-94952241D01*
X146837924Y-94956944D01*
X146837926Y-94956945D01*
X146875323Y-94973478D01*
X146929673Y-94997506D01*
X146955354Y-95000500D01*
X150044646Y-95000500D01*
X150048350Y-95000059D01*
X150048353Y-95000059D01*
X150055746Y-94999179D01*
X150070846Y-94997382D01*
X150151968Y-94961349D01*
X150203116Y-94950500D01*
X152873500Y-94950500D01*
X152941621Y-94970502D01*
X152988114Y-95024158D01*
X152999500Y-95076500D01*
X152999500Y-95194646D01*
X153002618Y-95220846D01*
X153048061Y-95323153D01*
X153056294Y-95331372D01*
X153056295Y-95331373D01*
X153078164Y-95353204D01*
X153127287Y-95402241D01*
X153137924Y-95406944D01*
X153137926Y-95406945D01*
X153197462Y-95433265D01*
X153229673Y-95447506D01*
X153255354Y-95450500D01*
X155144646Y-95450500D01*
X155148350Y-95450059D01*
X155148353Y-95450059D01*
X155155746Y-95449179D01*
X155170846Y-95447382D01*
X155251829Y-95411411D01*
X155262518Y-95406663D01*
X155273153Y-95401939D01*
X155352241Y-95322713D01*
X155358423Y-95308731D01*
X155393675Y-95228992D01*
X155397506Y-95220327D01*
X155400500Y-95194646D01*
X155400500Y-92605354D01*
X155397382Y-92579154D01*
X155391841Y-92566678D01*
X155356663Y-92487482D01*
X155351939Y-92476847D01*
X155272713Y-92397759D01*
X155262076Y-92393056D01*
X155262074Y-92393055D01*
X155197662Y-92364579D01*
X155170327Y-92352494D01*
X155144646Y-92349500D01*
X153255354Y-92349500D01*
X153251650Y-92349941D01*
X153251647Y-92349941D01*
X153244254Y-92350821D01*
X153229154Y-92352618D01*
X153220514Y-92356456D01*
X153220513Y-92356456D01*
X153138117Y-92393055D01*
X153126847Y-92398061D01*
X153118628Y-92406294D01*
X153118627Y-92406295D01*
X153100448Y-92424506D01*
X153047759Y-92477287D01*
X153043056Y-92487924D01*
X153043055Y-92487926D01*
X153020124Y-92539796D01*
X153002494Y-92579673D01*
X152999500Y-92605354D01*
X152999500Y-92823500D01*
X152979498Y-92891621D01*
X152925842Y-92938114D01*
X152873500Y-92949500D01*
X151626500Y-92949500D01*
X151558379Y-92929498D01*
X151511886Y-92875842D01*
X151500500Y-92823500D01*
X151500500Y-91282228D01*
X151489636Y-91192453D01*
X151434113Y-91052217D01*
X151342922Y-90932078D01*
X151222783Y-90840887D01*
X151082547Y-90785364D01*
X151075210Y-90784476D01*
X151014385Y-90748486D01*
X150982529Y-90685038D01*
X150980500Y-90662516D01*
X150980500Y-88946166D01*
X150977519Y-88914631D01*
X150950000Y-88836268D01*
X150950000Y-85163732D01*
X150977519Y-85085369D01*
X150980500Y-85053834D01*
X150980500Y-84650925D01*
X151000502Y-84582804D01*
X151017405Y-84561830D01*
X151324913Y-84254322D01*
X151387225Y-84220296D01*
X151458040Y-84225361D01*
X151490188Y-84243054D01*
X151531797Y-84274637D01*
X151573964Y-84331755D01*
X151578556Y-84402603D01*
X151544117Y-84464687D01*
X151531798Y-84475362D01*
X151457078Y-84532078D01*
X151365887Y-84652217D01*
X151310364Y-84792453D01*
X151299500Y-84882228D01*
X151299500Y-85492772D01*
X151310364Y-85582547D01*
X151365887Y-85722783D01*
X151457078Y-85842922D01*
X151577217Y-85934113D01*
X151640832Y-85959300D01*
X151709923Y-85986655D01*
X151709925Y-85986656D01*
X151717453Y-85989636D01*
X151807228Y-86000500D01*
X152792772Y-86000500D01*
X152882547Y-85989636D01*
X152890075Y-85986656D01*
X152890077Y-85986655D01*
X152959168Y-85959300D01*
X153022783Y-85934113D01*
X153142922Y-85842922D01*
X153234113Y-85722783D01*
X153289636Y-85582547D01*
X153300500Y-85492772D01*
X153300500Y-84882228D01*
X153289636Y-84792453D01*
X153234113Y-84652217D01*
X153142922Y-84532078D01*
X153068203Y-84475363D01*
X153026036Y-84418245D01*
X153021444Y-84347397D01*
X153055883Y-84285313D01*
X153068203Y-84274637D01*
X153133122Y-84225361D01*
X153142922Y-84217922D01*
X153234113Y-84097783D01*
X153289636Y-83957547D01*
X153300500Y-83867772D01*
X153300500Y-83257228D01*
X153289636Y-83167453D01*
X153284907Y-83155507D01*
X153250241Y-83067953D01*
X153234113Y-83027217D01*
X153142922Y-82907078D01*
X153022783Y-82815887D01*
X152899690Y-82767151D01*
X152843718Y-82723478D01*
X152820241Y-82656475D01*
X152836717Y-82587416D01*
X152887912Y-82538227D01*
X152899687Y-82532850D01*
X153022783Y-82484113D01*
X153142922Y-82392922D01*
X153234113Y-82272783D01*
X153259300Y-82209168D01*
X153286655Y-82140077D01*
X153286656Y-82140075D01*
X153289636Y-82132547D01*
X153300500Y-82042772D01*
X153300500Y-81432228D01*
X153289636Y-81342453D01*
X153234113Y-81202217D01*
X153142922Y-81082078D01*
X153022783Y-80990887D01*
X152959168Y-80965700D01*
X152890077Y-80938345D01*
X152890075Y-80938344D01*
X152882547Y-80935364D01*
X152792772Y-80924500D01*
X151807228Y-80924500D01*
X151717453Y-80935364D01*
X151709925Y-80938344D01*
X151709923Y-80938345D01*
X151640832Y-80965700D01*
X151577217Y-80990887D01*
X151457078Y-81082078D01*
X151451884Y-81088921D01*
X151445812Y-81094993D01*
X151444457Y-81093639D01*
X151396086Y-81129347D01*
X151352843Y-81137000D01*
X150276500Y-81137000D01*
X150208379Y-81116998D01*
X150161886Y-81063342D01*
X150151322Y-81014778D01*
X150150729Y-81014814D01*
X150150500Y-81011019D01*
X150150500Y-81007228D01*
X150139636Y-80917453D01*
X150084113Y-80777217D01*
X149992922Y-80657078D01*
X149948318Y-80623221D01*
X149906153Y-80566105D01*
X149898500Y-80522861D01*
X149898500Y-80273129D01*
X149898507Y-80271810D01*
X149899367Y-80189635D01*
X149899441Y-80182593D01*
X149897953Y-80175709D01*
X149890384Y-80140698D01*
X149888324Y-80128120D01*
X149884331Y-80092522D01*
X149884330Y-80092518D01*
X149883546Y-80085528D01*
X149881230Y-80078876D01*
X149872654Y-80054247D01*
X149868492Y-80039442D01*
X149862978Y-80013940D01*
X149861490Y-80007058D01*
X149843373Y-79968206D01*
X149838579Y-79956401D01*
X149826801Y-79922578D01*
X149824485Y-79915927D01*
X149806933Y-79887838D01*
X149799592Y-79874318D01*
X149788566Y-79850673D01*
X149785591Y-79844293D01*
X149759319Y-79810424D01*
X149752031Y-79799977D01*
X149729316Y-79763625D01*
X149700998Y-79735108D01*
X149700416Y-79734486D01*
X149699902Y-79733824D01*
X149674041Y-79707963D01*
X149602770Y-79636193D01*
X149601743Y-79635541D01*
X149600535Y-79634457D01*
X148131519Y-78165441D01*
X148130590Y-78164503D01*
X148130325Y-78164232D01*
X148068141Y-78100732D01*
X148062221Y-78096917D01*
X148062215Y-78096912D01*
X148032109Y-78077510D01*
X148021755Y-78070070D01*
X147993774Y-78047733D01*
X147988266Y-78043336D01*
X147958441Y-78028918D01*
X147945025Y-78021389D01*
X147923109Y-78007265D01*
X147917183Y-78003446D01*
X147876909Y-77988787D01*
X147865169Y-77983828D01*
X147832916Y-77968237D01*
X147832917Y-77968237D01*
X147826578Y-77965173D01*
X147819723Y-77963590D01*
X147819719Y-77963589D01*
X147800757Y-77959212D01*
X147794302Y-77957721D01*
X147779554Y-77953352D01*
X147755045Y-77944432D01*
X147755041Y-77944431D01*
X147748422Y-77942022D01*
X147705882Y-77936648D01*
X147693363Y-77934418D01*
X147651589Y-77924774D01*
X147644548Y-77924749D01*
X147644545Y-77924749D01*
X147611418Y-77924633D01*
X147610545Y-77924604D01*
X147609717Y-77924500D01*
X147573262Y-77924500D01*
X147572822Y-77924499D01*
X147475493Y-77924159D01*
X147475490Y-77924159D01*
X147472000Y-77924147D01*
X147470812Y-77924413D01*
X147469200Y-77924500D01*
X143268572Y-77924500D01*
X143222191Y-77915653D01*
X143082547Y-77860364D01*
X142992772Y-77849500D01*
X142606908Y-77849500D01*
X142538787Y-77829498D01*
X142535477Y-77827097D01*
X142534141Y-77825732D01*
X142529271Y-77822594D01*
X142529262Y-77822587D01*
X142498109Y-77802510D01*
X142487755Y-77795070D01*
X142459774Y-77772733D01*
X142454266Y-77768336D01*
X142424441Y-77753918D01*
X142411025Y-77746389D01*
X142389109Y-77732265D01*
X142383183Y-77728446D01*
X142342909Y-77713787D01*
X142331169Y-77708828D01*
X142298916Y-77693237D01*
X142298917Y-77693237D01*
X142292578Y-77690173D01*
X142285723Y-77688590D01*
X142285719Y-77688589D01*
X142266757Y-77684212D01*
X142260302Y-77682721D01*
X142245554Y-77678352D01*
X142221045Y-77669432D01*
X142221041Y-77669431D01*
X142214422Y-77667022D01*
X142171882Y-77661648D01*
X142159363Y-77659418D01*
X142117589Y-77649774D01*
X142110548Y-77649749D01*
X142110545Y-77649749D01*
X142077418Y-77649633D01*
X142076545Y-77649604D01*
X142075717Y-77649500D01*
X142039262Y-77649500D01*
X142038822Y-77649499D01*
X141941493Y-77649159D01*
X141941490Y-77649159D01*
X141938000Y-77649147D01*
X141936812Y-77649413D01*
X141935200Y-77649500D01*
X140826758Y-77649500D01*
X140758637Y-77629498D01*
X140737740Y-77612673D01*
X140680945Y-77555977D01*
X140672713Y-77547759D01*
X140662076Y-77543056D01*
X140662074Y-77543055D01*
X140578992Y-77506325D01*
X140578993Y-77506325D01*
X140570327Y-77502494D01*
X140544646Y-77499500D01*
X139883768Y-77499500D01*
X139815647Y-77479498D01*
X139794673Y-77462595D01*
X139567519Y-77235441D01*
X139566590Y-77234503D01*
X139566325Y-77234232D01*
X139504141Y-77170732D01*
X139498221Y-77166917D01*
X139498215Y-77166912D01*
X139468109Y-77147510D01*
X139457755Y-77140070D01*
X139429774Y-77117733D01*
X139424266Y-77113336D01*
X139394441Y-77098918D01*
X139381025Y-77091389D01*
X139359109Y-77077265D01*
X139353183Y-77073446D01*
X139312909Y-77058787D01*
X139301169Y-77053828D01*
X139268916Y-77038237D01*
X139268917Y-77038237D01*
X139262578Y-77035173D01*
X139255723Y-77033590D01*
X139255719Y-77033589D01*
X139236757Y-77029212D01*
X139230302Y-77027721D01*
X139215554Y-77023352D01*
X139191045Y-77014432D01*
X139191041Y-77014431D01*
X139184422Y-77012022D01*
X139141882Y-77006648D01*
X139129363Y-77004418D01*
X139087589Y-76994774D01*
X139080548Y-76994749D01*
X139080545Y-76994749D01*
X139047418Y-76994633D01*
X139046545Y-76994604D01*
X139045717Y-76994500D01*
X139009262Y-76994500D01*
X139008822Y-76994499D01*
X138911493Y-76994159D01*
X138911490Y-76994159D01*
X138908000Y-76994147D01*
X138906812Y-76994413D01*
X138905200Y-76994500D01*
X138451671Y-76994500D01*
X138383550Y-76974498D01*
X138362653Y-76957673D01*
X138355945Y-76950977D01*
X138347713Y-76942759D01*
X138337076Y-76938056D01*
X138337074Y-76938055D01*
X138277538Y-76911735D01*
X138245327Y-76897494D01*
X138219646Y-76894500D01*
X138001500Y-76894500D01*
X137933379Y-76874498D01*
X137886886Y-76820842D01*
X137875500Y-76768500D01*
X137875500Y-75410199D01*
X137895502Y-75342078D01*
X137929232Y-75306984D01*
X137930504Y-75306093D01*
X137939139Y-75300047D01*
X138100047Y-75139139D01*
X138230568Y-74952734D01*
X138326739Y-74746496D01*
X138363426Y-74609580D01*
X138384211Y-74532007D01*
X138384211Y-74532005D01*
X138385635Y-74526692D01*
X138405468Y-74300000D01*
X138385635Y-74073308D01*
X138326739Y-73853504D01*
X138293345Y-73781890D01*
X138232891Y-73652247D01*
X138232889Y-73652244D01*
X138230568Y-73647266D01*
X138100047Y-73460861D01*
X137939139Y-73299953D01*
X137752734Y-73169432D01*
X137747756Y-73167111D01*
X137747753Y-73167109D01*
X137551478Y-73075584D01*
X137551476Y-73075583D01*
X137546496Y-73073261D01*
X137541188Y-73071839D01*
X137541186Y-73071838D01*
X137332007Y-73015789D01*
X137332005Y-73015789D01*
X137326692Y-73014365D01*
X137100000Y-72994532D01*
X136873308Y-73014365D01*
X136867995Y-73015789D01*
X136867993Y-73015789D01*
X136658814Y-73071838D01*
X136658812Y-73071839D01*
X136653504Y-73073261D01*
X136648524Y-73075583D01*
X136648522Y-73075584D01*
X136452247Y-73167109D01*
X136452244Y-73167111D01*
X136447266Y-73169432D01*
X136260861Y-73299953D01*
X136099953Y-73460861D01*
X135969432Y-73647266D01*
X135967111Y-73652244D01*
X135967109Y-73652247D01*
X135906655Y-73781890D01*
X135873261Y-73853504D01*
X135814365Y-74073308D01*
X135794532Y-74300000D01*
X135814365Y-74526692D01*
X135815789Y-74532005D01*
X135815789Y-74532007D01*
X135836575Y-74609580D01*
X135873261Y-74746496D01*
X135969432Y-74952734D01*
X136099953Y-75139139D01*
X136237595Y-75276781D01*
X136271621Y-75339093D01*
X136274500Y-75365876D01*
X136274500Y-76768500D01*
X136254498Y-76836621D01*
X136200842Y-76883114D01*
X136148500Y-76894500D01*
X135930354Y-76894500D01*
X135926650Y-76894941D01*
X135926647Y-76894941D01*
X135919254Y-76895821D01*
X135904154Y-76897618D01*
X135895514Y-76901456D01*
X135895513Y-76901456D01*
X135829052Y-76930977D01*
X135801847Y-76943061D01*
X135722759Y-77022287D01*
X135718056Y-77032924D01*
X135718055Y-77032926D01*
X135698453Y-77077265D01*
X135677494Y-77124673D01*
X135674500Y-77150354D01*
X135674500Y-78439646D01*
X134275500Y-78439646D01*
X134275500Y-77130354D01*
X134272382Y-77104154D01*
X134260439Y-77077265D01*
X134231663Y-77012482D01*
X134226939Y-77001847D01*
X134147713Y-76922759D01*
X134137076Y-76918056D01*
X134137074Y-76918055D01*
X134058039Y-76883114D01*
X134045327Y-76877494D01*
X134019646Y-76874500D01*
X127530354Y-76874500D01*
X127526650Y-76874941D01*
X127526647Y-76874941D01*
X127519254Y-76875821D01*
X127504154Y-76877618D01*
X127495514Y-76881456D01*
X127495513Y-76881456D01*
X127450487Y-76901456D01*
X127401847Y-76923061D01*
X127393628Y-76931294D01*
X127393627Y-76931295D01*
X127373662Y-76951295D01*
X127322759Y-77002287D01*
X127318056Y-77012924D01*
X127318055Y-77012926D01*
X127298745Y-77056604D01*
X127277494Y-77104673D01*
X127274500Y-77130354D01*
X127274500Y-83019646D01*
X121300500Y-83019646D01*
X121300500Y-75857388D01*
X124172496Y-75857388D01*
X124178223Y-75865038D01*
X124309042Y-75945205D01*
X124317837Y-75949687D01*
X124527988Y-76036734D01*
X124537373Y-76039783D01*
X124758554Y-76092885D01*
X124768301Y-76094428D01*
X124995070Y-76112275D01*
X125004930Y-76112275D01*
X125231699Y-76094428D01*
X125241446Y-76092885D01*
X125462627Y-76039783D01*
X125472012Y-76036734D01*
X125682163Y-75949687D01*
X125690958Y-75945205D01*
X125818110Y-75867285D01*
X125827570Y-75856829D01*
X125823786Y-75848050D01*
X125012812Y-75037076D01*
X124998868Y-75029462D01*
X124997035Y-75029593D01*
X124990420Y-75033844D01*
X124179256Y-75845008D01*
X124172496Y-75857388D01*
X121300500Y-75857388D01*
X121300500Y-74604930D01*
X123487725Y-74604930D01*
X123505572Y-74831699D01*
X123507115Y-74841446D01*
X123560217Y-75062627D01*
X123563266Y-75072012D01*
X123650313Y-75282163D01*
X123654795Y-75290958D01*
X123732715Y-75418110D01*
X123743171Y-75427570D01*
X123751950Y-75423786D01*
X124562924Y-74612812D01*
X124569302Y-74601132D01*
X125429462Y-74601132D01*
X125429593Y-74602965D01*
X125433844Y-74609580D01*
X126245008Y-75420744D01*
X126257388Y-75427504D01*
X126265038Y-75421777D01*
X126345205Y-75290958D01*
X126349687Y-75282163D01*
X126436734Y-75072012D01*
X126439783Y-75062627D01*
X126492885Y-74841446D01*
X126494428Y-74831699D01*
X126512275Y-74604930D01*
X126512275Y-74595070D01*
X126494428Y-74368301D01*
X126492885Y-74358554D01*
X126439783Y-74137373D01*
X126436734Y-74127988D01*
X126349687Y-73917837D01*
X126345205Y-73909042D01*
X126267285Y-73781890D01*
X126256829Y-73772430D01*
X126248050Y-73776214D01*
X125437076Y-74587188D01*
X125429462Y-74601132D01*
X124569302Y-74601132D01*
X124570538Y-74598868D01*
X124570407Y-74597035D01*
X124566156Y-74590420D01*
X123754992Y-73779256D01*
X123742612Y-73772496D01*
X123734962Y-73778223D01*
X123654795Y-73909042D01*
X123650313Y-73917837D01*
X123563266Y-74127988D01*
X123560217Y-74137373D01*
X123507115Y-74358554D01*
X123505572Y-74368301D01*
X123487725Y-74595070D01*
X123487725Y-74604930D01*
X121300500Y-74604930D01*
X121300500Y-73343171D01*
X124172430Y-73343171D01*
X124176214Y-73351950D01*
X124987188Y-74162924D01*
X125001132Y-74170538D01*
X125002965Y-74170407D01*
X125009580Y-74166156D01*
X125820744Y-73354992D01*
X125827504Y-73342612D01*
X125821777Y-73334962D01*
X125690958Y-73254795D01*
X125682163Y-73250313D01*
X125472012Y-73163266D01*
X125462627Y-73160217D01*
X125241446Y-73107115D01*
X125231699Y-73105572D01*
X125004930Y-73087725D01*
X124995070Y-73087725D01*
X124768301Y-73105572D01*
X124758554Y-73107115D01*
X124537373Y-73160217D01*
X124527988Y-73163266D01*
X124317837Y-73250313D01*
X124309042Y-73254795D01*
X124181890Y-73332715D01*
X124172430Y-73343171D01*
X121300500Y-73343171D01*
X121300500Y-72292772D01*
X154162000Y-72292772D01*
X154172864Y-72382547D01*
X154228387Y-72522783D01*
X154319578Y-72642922D01*
X154439717Y-72734113D01*
X154449603Y-72738027D01*
X154572423Y-72786655D01*
X154572425Y-72786656D01*
X154579953Y-72789636D01*
X154669728Y-72800500D01*
X155280272Y-72800500D01*
X155370047Y-72789636D01*
X155377575Y-72786656D01*
X155377577Y-72786655D01*
X155500397Y-72738027D01*
X155510283Y-72734113D01*
X155621224Y-72649904D01*
X155623581Y-72648115D01*
X155623583Y-72648113D01*
X155630422Y-72642922D01*
X155634835Y-72637108D01*
X155696599Y-72603380D01*
X155723386Y-72600500D01*
X156085535Y-72600500D01*
X156153656Y-72620502D01*
X156174628Y-72637402D01*
X156175098Y-72637871D01*
X156180289Y-72644711D01*
X156299064Y-72734866D01*
X156307045Y-72738026D01*
X156307047Y-72738027D01*
X156375358Y-72765073D01*
X156437708Y-72789759D01*
X156445746Y-72790732D01*
X156445747Y-72790732D01*
X156469007Y-72793547D01*
X156526466Y-72800500D01*
X157098534Y-72800500D01*
X157155993Y-72793547D01*
X157179253Y-72790732D01*
X157179254Y-72790732D01*
X157187292Y-72789759D01*
X157249642Y-72765073D01*
X157317953Y-72738027D01*
X157317955Y-72738026D01*
X157325936Y-72734866D01*
X157444711Y-72644711D01*
X157534866Y-72525936D01*
X157589759Y-72387292D01*
X157600500Y-72298534D01*
X157600500Y-71960251D01*
X157601386Y-71945332D01*
X157617211Y-71812617D01*
X157618045Y-71805624D01*
X157613079Y-71758369D01*
X157601190Y-71645256D01*
X157600500Y-71632086D01*
X157600500Y-71301466D01*
X157589759Y-71212708D01*
X157534866Y-71074064D01*
X157444711Y-70955289D01*
X157325936Y-70865134D01*
X157317955Y-70861974D01*
X157317953Y-70861973D01*
X157249642Y-70834927D01*
X157187292Y-70810241D01*
X157179254Y-70809268D01*
X157179253Y-70809268D01*
X157155993Y-70806453D01*
X157098534Y-70799500D01*
X156526466Y-70799500D01*
X156469007Y-70806453D01*
X156445747Y-70809268D01*
X156445746Y-70809268D01*
X156437708Y-70810241D01*
X156375358Y-70834927D01*
X156307047Y-70861973D01*
X156307045Y-70861974D01*
X156299064Y-70865134D01*
X156180289Y-70955289D01*
X156175098Y-70962128D01*
X156174628Y-70962598D01*
X156112315Y-70996621D01*
X156085535Y-70999500D01*
X155723386Y-70999500D01*
X155655265Y-70979498D01*
X155635112Y-70963257D01*
X155630422Y-70957078D01*
X155621227Y-70950098D01*
X155517123Y-70871079D01*
X155517124Y-70871079D01*
X155510283Y-70865887D01*
X155446668Y-70840700D01*
X155377577Y-70813345D01*
X155377575Y-70813344D01*
X155370047Y-70810364D01*
X155280272Y-70799500D01*
X154669728Y-70799500D01*
X154579953Y-70810364D01*
X154572425Y-70813344D01*
X154572423Y-70813345D01*
X154503332Y-70840700D01*
X154439717Y-70865887D01*
X154319578Y-70957078D01*
X154228387Y-71077217D01*
X154172864Y-71217453D01*
X154162000Y-71307228D01*
X154162000Y-72292772D01*
X121300500Y-72292772D01*
X121300500Y-69826495D01*
X122603705Y-69826495D01*
X122611163Y-69836863D01*
X122814943Y-70001880D01*
X122820265Y-70005747D01*
X123140685Y-70213830D01*
X123146394Y-70217127D01*
X123486811Y-70390578D01*
X123492836Y-70393260D01*
X123849502Y-70530171D01*
X123855784Y-70532212D01*
X124224816Y-70631094D01*
X124231266Y-70632465D01*
X124608629Y-70692234D01*
X124615167Y-70692920D01*
X124996699Y-70712916D01*
X125003301Y-70712916D01*
X125384833Y-70692920D01*
X125391371Y-70692234D01*
X125768734Y-70632465D01*
X125775184Y-70631094D01*
X126144216Y-70532212D01*
X126150498Y-70530171D01*
X126507164Y-70393260D01*
X126513189Y-70390578D01*
X126853606Y-70217127D01*
X126859315Y-70213830D01*
X127179735Y-70005747D01*
X127185057Y-70001880D01*
X127387889Y-69837631D01*
X127395582Y-69826495D01*
X169603705Y-69826495D01*
X169611163Y-69836863D01*
X169814943Y-70001880D01*
X169820265Y-70005747D01*
X170140685Y-70213830D01*
X170146394Y-70217127D01*
X170486811Y-70390578D01*
X170492836Y-70393260D01*
X170849502Y-70530171D01*
X170855784Y-70532212D01*
X171224816Y-70631094D01*
X171231266Y-70632465D01*
X171608629Y-70692234D01*
X171615167Y-70692920D01*
X171996699Y-70712916D01*
X172003301Y-70712916D01*
X172384833Y-70692920D01*
X172391371Y-70692234D01*
X172768734Y-70632465D01*
X172775184Y-70631094D01*
X173144216Y-70532212D01*
X173150498Y-70530171D01*
X173507164Y-70393260D01*
X173513189Y-70390578D01*
X173853606Y-70217127D01*
X173859315Y-70213830D01*
X174179735Y-70005747D01*
X174185057Y-70001880D01*
X174387889Y-69837631D01*
X174396355Y-69825376D01*
X174390021Y-69814285D01*
X172012812Y-67437076D01*
X171998868Y-67429462D01*
X171997035Y-67429593D01*
X171990420Y-67433844D01*
X169610845Y-69813419D01*
X169603705Y-69826495D01*
X127395582Y-69826495D01*
X127396355Y-69825376D01*
X127390021Y-69814285D01*
X125012812Y-67437076D01*
X124998868Y-67429462D01*
X124997035Y-67429593D01*
X124990420Y-67433844D01*
X122610845Y-69813419D01*
X122603705Y-69826495D01*
X121300500Y-69826495D01*
X121300500Y-68389216D01*
X121320502Y-68321095D01*
X121374158Y-68274602D01*
X121444432Y-68264498D01*
X121509012Y-68293992D01*
X121544131Y-68344062D01*
X121606740Y-68507164D01*
X121609422Y-68513189D01*
X121782872Y-68853603D01*
X121786169Y-68859313D01*
X121994251Y-69179732D01*
X121998123Y-69185062D01*
X122162369Y-69387889D01*
X122174624Y-69396355D01*
X122185715Y-69390021D01*
X124574604Y-67001132D01*
X125429462Y-67001132D01*
X125429593Y-67002965D01*
X125433844Y-67009580D01*
X127813419Y-69389155D01*
X127826495Y-69396295D01*
X127836863Y-69388837D01*
X128001877Y-69185062D01*
X128005749Y-69179732D01*
X128213831Y-68859313D01*
X128217128Y-68853603D01*
X128390578Y-68513189D01*
X128393260Y-68507164D01*
X128530171Y-68150498D01*
X128532212Y-68144216D01*
X128631094Y-67775184D01*
X128632465Y-67768734D01*
X128692234Y-67391371D01*
X128692920Y-67384833D01*
X128712916Y-67003301D01*
X168287084Y-67003301D01*
X168307080Y-67384833D01*
X168307766Y-67391371D01*
X168367535Y-67768734D01*
X168368906Y-67775184D01*
X168467788Y-68144216D01*
X168469829Y-68150498D01*
X168606740Y-68507164D01*
X168609422Y-68513189D01*
X168782872Y-68853603D01*
X168786169Y-68859313D01*
X168994251Y-69179732D01*
X168998123Y-69185062D01*
X169162369Y-69387889D01*
X169174624Y-69396355D01*
X169185715Y-69390021D01*
X171562924Y-67012812D01*
X171570538Y-66998868D01*
X171570407Y-66997035D01*
X171566156Y-66990420D01*
X169186581Y-64610845D01*
X169173505Y-64603705D01*
X169163137Y-64611163D01*
X168998123Y-64814938D01*
X168994251Y-64820268D01*
X168786169Y-65140687D01*
X168782872Y-65146397D01*
X168609422Y-65486811D01*
X168606740Y-65492836D01*
X168469829Y-65849502D01*
X168467788Y-65855784D01*
X168368906Y-66224816D01*
X168367535Y-66231266D01*
X168307766Y-66608629D01*
X168307080Y-66615167D01*
X168287084Y-66996699D01*
X168287084Y-67003301D01*
X128712916Y-67003301D01*
X128712916Y-66996699D01*
X128692920Y-66615167D01*
X128692234Y-66608629D01*
X128632465Y-66231266D01*
X128631094Y-66224816D01*
X128532212Y-65855784D01*
X128530171Y-65849502D01*
X128393260Y-65492836D01*
X128390578Y-65486811D01*
X128217128Y-65146397D01*
X128213831Y-65140687D01*
X128005749Y-64820268D01*
X128001877Y-64814938D01*
X127837631Y-64612111D01*
X127825376Y-64603645D01*
X127814285Y-64609979D01*
X125437076Y-66987188D01*
X125429462Y-67001132D01*
X124574604Y-67001132D01*
X127389155Y-64186581D01*
X127396295Y-64173505D01*
X127388837Y-64163137D01*
X127185057Y-63998120D01*
X127179735Y-63994253D01*
X126859315Y-63786170D01*
X126853606Y-63782873D01*
X126513189Y-63609422D01*
X126507164Y-63606740D01*
X126344062Y-63544131D01*
X126287634Y-63501045D01*
X126263457Y-63434292D01*
X126279208Y-63365065D01*
X126329886Y-63315343D01*
X126389216Y-63300500D01*
X170610784Y-63300500D01*
X170678905Y-63320502D01*
G37*
%TD.AperFunction*%
%TD*%
%TA.AperFunction,Conductor*%
%TO.N,+5V*%
G36*
X150115931Y-98820002D02*
G01*
X150136905Y-98836905D01*
X151213095Y-99913095D01*
X151247121Y-99975407D01*
X151250000Y-100002190D01*
X151250000Y-105597810D01*
X151229998Y-105665931D01*
X151213095Y-105686905D01*
X149686905Y-107213095D01*
X149624593Y-107247121D01*
X149597810Y-107250000D01*
X147402190Y-107250000D01*
X147334069Y-107229998D01*
X147313095Y-107213095D01*
X145786905Y-105686905D01*
X145752879Y-105624593D01*
X145750000Y-105597810D01*
X145750000Y-100002190D01*
X145770002Y-99934069D01*
X145786905Y-99913095D01*
X146863095Y-98836905D01*
X146925407Y-98802879D01*
X146952190Y-98800000D01*
X150047810Y-98800000D01*
X150115931Y-98820002D01*
G37*
%TD.AperFunction*%
%TD*%
M02*
