%TF.GenerationSoftware,KiCad,Pcbnew,(6.0.5)*%
%TF.CreationDate,2025-05-25T15:44:49+02:00*%
%TF.ProjectId,HT1015A_Dev,48543130-3135-4415-9f44-65762e6b6963,rev?*%
%TF.SameCoordinates,Original*%
%TF.FileFunction,Paste,Top*%
%TF.FilePolarity,Positive*%
%FSLAX46Y46*%
G04 Gerber Fmt 4.6, Leading zero omitted, Abs format (unit mm)*
G04 Created by KiCad (PCBNEW (6.0.5)) date 2025-05-25 15:44:49*
%MOMM*%
%LPD*%
G01*
G04 APERTURE LIST*
G04 Aperture macros list*
%AMRoundRect*
0 Rectangle with rounded corners*
0 $1 Rounding radius*
0 $2 $3 $4 $5 $6 $7 $8 $9 X,Y pos of 4 corners*
0 Add a 4 corners polygon primitive as box body*
4,1,4,$2,$3,$4,$5,$6,$7,$8,$9,$2,$3,0*
0 Add four circle primitives for the rounded corners*
1,1,$1+$1,$2,$3*
1,1,$1+$1,$4,$5*
1,1,$1+$1,$6,$7*
1,1,$1+$1,$8,$9*
0 Add four rect primitives between the rounded corners*
20,1,$1+$1,$2,$3,$4,$5,0*
20,1,$1+$1,$4,$5,$6,$7,0*
20,1,$1+$1,$6,$7,$8,$9,0*
20,1,$1+$1,$8,$9,$2,$3,0*%
G04 Aperture macros list end*
%ADD10RoundRect,0.243750X-0.243750X-0.456250X0.243750X-0.456250X0.243750X0.456250X-0.243750X0.456250X0*%
%ADD11RoundRect,0.250000X0.325000X0.650000X-0.325000X0.650000X-0.325000X-0.650000X0.325000X-0.650000X0*%
%ADD12RoundRect,0.250000X-0.450000X0.262500X-0.450000X-0.262500X0.450000X-0.262500X0.450000X0.262500X0*%
%ADD13RoundRect,0.250000X-0.250000X-0.475000X0.250000X-0.475000X0.250000X0.475000X-0.250000X0.475000X0*%
%ADD14RoundRect,0.250000X-0.475000X0.250000X-0.475000X-0.250000X0.475000X-0.250000X0.475000X0.250000X0*%
%ADD15RoundRect,0.250000X-0.325000X-0.650000X0.325000X-0.650000X0.325000X0.650000X-0.325000X0.650000X0*%
%ADD16R,1.800000X2.500000*%
%ADD17RoundRect,0.250000X0.262500X0.450000X-0.262500X0.450000X-0.262500X-0.450000X0.262500X-0.450000X0*%
%ADD18RoundRect,0.250000X-0.262500X-0.450000X0.262500X-0.450000X0.262500X0.450000X-0.262500X0.450000X0*%
%ADD19R,3.000000X1.500000*%
%ADD20RoundRect,0.250000X0.650000X-0.325000X0.650000X0.325000X-0.650000X0.325000X-0.650000X-0.325000X0*%
%ADD21RoundRect,0.242500X-0.382500X0.242500X-0.382500X-0.242500X0.382500X-0.242500X0.382500X0.242500X0*%
%ADD22RoundRect,0.150000X-0.150000X0.650000X-0.150000X-0.650000X0.150000X-0.650000X0.150000X0.650000X0*%
%ADD23R,3.050000X2.750000*%
%ADD24R,2.200000X1.200000*%
%ADD25R,1.700000X1.300000*%
G04 APERTURE END LIST*
D10*
%TO.C,D3*%
X156812500Y-71800000D03*
X158687500Y-71800000D03*
%TD*%
D11*
%TO.C,C9*%
X152725000Y-104850000D03*
X149775000Y-104850000D03*
%TD*%
D12*
%TO.C,R6*%
X144650000Y-87837500D03*
X144650000Y-89662500D03*
%TD*%
D13*
%TO.C,C3*%
X148800000Y-91800000D03*
X150700000Y-91800000D03*
%TD*%
D14*
%TO.C,C5*%
X143500000Y-97550000D03*
X143500000Y-99450000D03*
%TD*%
D12*
%TO.C,R4*%
X143500000Y-93987500D03*
X143500000Y-95812500D03*
%TD*%
D15*
%TO.C,C8*%
X144275000Y-104850000D03*
X147225000Y-104850000D03*
%TD*%
D14*
%TO.C,C10*%
X148500000Y-106900000D03*
X148500000Y-108800000D03*
%TD*%
D12*
%TO.C,R1*%
X137050000Y-84687500D03*
X137050000Y-86512500D03*
%TD*%
D16*
%TO.C,D2*%
X154200000Y-93900000D03*
X154200000Y-89900000D03*
%TD*%
D12*
%TO.C,R2*%
X152300000Y-81737500D03*
X152300000Y-83562500D03*
%TD*%
%TO.C,R3*%
X152300000Y-85187500D03*
X152300000Y-87012500D03*
%TD*%
D15*
%TO.C,C1*%
X146325000Y-81700000D03*
X149275000Y-81700000D03*
%TD*%
%TO.C,C6*%
X144275000Y-102350000D03*
X147225000Y-102350000D03*
%TD*%
D17*
%TO.C,R5*%
X143062500Y-91850000D03*
X141237500Y-91850000D03*
%TD*%
D14*
%TO.C,C4*%
X141450000Y-93950000D03*
X141450000Y-95850000D03*
%TD*%
D18*
%TO.C,R7*%
X153150000Y-71800000D03*
X154975000Y-71800000D03*
%TD*%
D19*
%TO.C,L1*%
X148500000Y-93950000D03*
X148500000Y-99650000D03*
%TD*%
D20*
%TO.C,C2*%
X142300000Y-81675000D03*
X142300000Y-78725000D03*
%TD*%
D21*
%TO.C,U1*%
X147700000Y-87600000D03*
X149250000Y-86400000D03*
X147700000Y-86400000D03*
X149250000Y-87600000D03*
D22*
X150380000Y-84350000D03*
X149110000Y-84350000D03*
X147840000Y-84350000D03*
X146570000Y-84350000D03*
X146570000Y-89650000D03*
X147840000Y-89650000D03*
X149110000Y-89650000D03*
X150380000Y-89650000D03*
%TD*%
D23*
%TO.C,Q1*%
X132450000Y-78550000D03*
X129100000Y-78550000D03*
X132450000Y-81600000D03*
X129100000Y-81600000D03*
D24*
X137075000Y-82355000D03*
X137075000Y-77795000D03*
%TD*%
D11*
%TO.C,C7*%
X152725000Y-102350000D03*
X149775000Y-102350000D03*
%TD*%
D25*
%TO.C,D1*%
X139650000Y-78450000D03*
X139650000Y-81950000D03*
%TD*%
M02*
