M48
; DRILL file {KiCad (6.0.5)} date Sun May 25 15:45:02 2025
; FORMAT={-:-/ absolute / metric / decimal}
; #@! TF.CreationDate,2025-05-25T15:45:02+02:00
; #@! TF.GenerationSoftware,Kicad,Pcbnew,(6.0.5)
; #@! TF.FileFunction,Plated,1,2,PTH
FMAT,2
METRIC
; #@! TA.AperFunction,Plated,PTH,ComponentDrill
T1C0.200
; #@! TA.AperFunction,Plated,PTH,ViaDrill
T2C0.500
; #@! TA.AperFunction,Plated,PTH,ComponentDrill
T3C0.920
; #@! TA.AperFunction,Plated,PTH,ComponentDrill
T4C1.000
; #@! TA.AperFunction,Plated,PTH,ComponentDrill
T5C1.400
; #@! TA.AperFunction,Plated,PTH,ComponentDrill
T6C2.300
; #@! TA.AperFunction,Plated,PTH,ComponentDrill
T7C3.200
%
G90
G05
T1
X147.175Y-86.045
X147.175Y-87.955
X148.475Y-86.045
X148.475Y-87.955
X149.775Y-86.045
X149.775Y-87.955
T2
X137.05Y-87.74
X141.9Y-102.35
X141.9Y-104.85
X142.95Y-102.35
X142.95Y-104.85
X144.639Y-81.675
X144.78Y-86.614
X145.25Y-84.2
X148.5Y-110.05
X151.892Y-88.138
X151.9Y-71.8
X152.146Y-89.916
X154.1Y-102.35
X154.1Y-104.85
X154.178Y-88.138
X155.2Y-102.35
X155.2Y-104.85
T3
X163.03Y-87.0
X163.03Y-89.5
X163.03Y-91.5
X163.03Y-94.0
T4
X125.0Y-74.6
X125.0Y-106.4
X137.1Y-74.3
X141.75Y-88.95
X156.2Y-107.0
X172.0Y-74.6
X172.0Y-106.4
T5
X130.78Y-87.96
X130.78Y-93.04
T6
X165.74Y-83.93
X165.74Y-97.07
T7
X125.0Y-67.0
X125.0Y-114.0
X172.0Y-67.0
X172.0Y-114.0
T0
M30
